<svg width="210" height="121" viewBox="0 0 210 121" fill="none" xmlns="http://www.w3.org/2000/svg">
<rect x="70.5464" y="16.8793" width="5.45455" height="32.7273" fill="#EEEFF3"/>
<path fill-rule="evenodd" clip-rule="evenodd" d="M155.043 71.4237C154.851 71.4465 154.658 71.4598 154.464 71.4632C127.397 71.942 118.818 79.1078 110.009 86.4642C100.481 94.422 90.6855 102.603 56.9335 102.784V102.816H32.388V80.9974H55.7839V80.9691C85.0488 80.9691 94.3378 73.4749 103.834 65.8132C109.824 60.981 115.896 56.0822 127.114 52.9547C127.938 50.9875 129.881 49.6055 132.147 49.6055L156.945 49.6055C158.518 49.6055 160.014 50.2845 161.05 51.4682L167.394 58.7186C168.294 59.7469 168.294 61.2822 167.394 62.3105L161.05 69.561C160.014 70.7447 158.518 71.4237 156.945 71.4237H155.043Z" fill="url(#paint0_linear_22_1403)"/>
<path d="M34.7739 49.6338H176.745L190.569 60.5429L176.745 71.452H34.7739V49.6338Z" fill="url(#paint1_linear_22_1403)"/>
<path fill-rule="evenodd" clip-rule="evenodd" d="M155.044 49.6036C154.853 49.5808 154.66 49.5675 154.466 49.5641C126.792 49.0771 117.298 41.638 107.719 34.1323C97.8224 26.3776 87.8348 18.5518 57.6136 18.249V18.2405H56.2444C56.0911 18.2401 55.9372 18.2399 55.7829 18.2399V18.2405H34.4318V41.4223H56.2345C84.9873 41.4954 93.964 48.5526 103.186 55.8029C112.473 63.1038 122.009 70.6006 152.238 71.3589C152.509 71.4003 152.786 71.4218 153.068 71.4218L193.061 71.4218L198.068 60.5127L193.061 49.6036H155.044Z" fill="url(#paint2_linear_22_1403)"/>
<rect x="12.6136" y="7.33123" width="46.3636" height="106.364" rx="7.5" stroke="black" stroke-width="1.36364" stroke-dasharray="2.73 2.73"/>
<circle cx="35.8222" cy="29.174" r="12.9812" fill="#212529"/>
<path d="M27.748 28.1254H44.1063V30.0499H27.748V28.1254Z" fill="#EEEFF3"/>
<circle cx="35.8223" cy="60.591" r="12.9812" fill="#212529"/>
<path d="M27.7481 59.5426H44.1064V61.4671H27.7481V59.5426Z" fill="#EEEFF3"/>
<circle cx="35.8223" cy="92.008" r="12.9812" fill="#212529"/>
<path d="M27.7481 90.9557H44.1064V92.8802H27.7481V90.9557Z" fill="#EEEFF3"/>
<defs>
<linearGradient id="paint0_linear_22_1403" x1="-193.78" y1="29.0524" x2="223.161" y2="31.1938" gradientUnits="userSpaceOnUse">
<stop offset="0.0692192" stop-color="#426AD1"/>
<stop offset="0.822917" stop-color="#62E4E4"/>
</linearGradient>
<linearGradient id="paint1_linear_22_1403" x1="-139.669" y1="41.1754" x2="282.711" y2="48.1432" gradientUnits="userSpaceOnUse">
<stop offset="0.106286" stop-color="#426AD1"/>
<stop offset="0.802522" stop-color="#62E4E4"/>
</linearGradient>
<linearGradient id="paint2_linear_22_1403" x1="-97.0404" y1="91.9742" x2="453.087" y2="91.9575" gradientUnits="userSpaceOnUse">
<stop offset="0.223958" stop-color="#426AD1"/>
<stop offset="0.822917" stop-color="#62E4E4"/>
</linearGradient>
</defs>
</svg>
