<svg width="211" height="121" viewBox="0 0 211 121" fill="none" xmlns="http://www.w3.org/2000/svg">
<path fill-rule="evenodd" clip-rule="evenodd" d="M151.891 71.4654C151.721 71.4826 151.55 71.4922 151.378 71.4939C124.312 71.7645 115.732 75.8133 106.924 79.9698C97.4602 84.4357 87.7328 89.026 54.5303 89.1882V89.1962H46.3485V67.378H52.6987V67.3745C81.9636 67.3745 91.2525 63.1387 100.749 58.8081C106.922 55.9932 113.183 53.1383 125.074 51.3807C126.07 50.3141 127.488 49.6472 129.062 49.6472L153.86 49.6472C155.433 49.6472 156.929 50.3262 157.965 51.5099L164.309 58.7604C165.209 59.7886 165.209 61.324 164.309 62.3522L157.965 69.6027C156.929 70.7864 155.433 71.4654 153.86 71.4654H151.891Z" fill="url(#paint0_linear_22_1376)"/>
<rect x="36.8038" y="64.6052" width="25.9091" height="25.9091" rx="2.72727" fill="#212529"/>
<path d="M42.2579 76.8337L57.2579 76.8337V78.7582H42.2579V76.8337Z" fill="#EEEFF3"/>
<path fill-rule="evenodd" clip-rule="evenodd" d="M151.895 49.6493C151.725 49.6322 151.554 49.6226 151.383 49.6209C123.709 49.3457 114.215 45.1424 104.636 40.9016C94.7394 36.52 84.7519 32.0983 54.5304 31.9272V31.9195H10.894V55.1013H52.7V55.1039C81.8107 55.1039 90.833 58.9728 100.104 62.9482C109.415 66.9412 118.978 71.0417 149.4 71.4365C149.592 71.457 149.788 71.4675 149.985 71.4675L203.615 71.4675L208.622 60.5584L203.615 49.6493H151.895Z" fill="url(#paint1_linear_22_1376)"/>
<path d="M17.0304 60.5517C17.0304 60.0695 16.6359 59.675 16.1538 59.675H5.63431C5.15217 59.675 4.75769 60.0695 4.75769 60.5517C4.75769 61.0338 5.15217 61.4283 5.63431 61.4283H16.1538C16.6359 61.4283 17.0304 61.0338 17.0304 60.5517Z" fill="#EEEFF3"/>
<rect x="2.71179" y="30.5118" width="25.9091" height="25.9091" rx="2.72727" fill="#212529"/>
<path d="M8.16699 42.7406L23.167 42.7406V44.6651H8.16699V42.7406Z" fill="#EEEFF3"/>
<defs>
<linearGradient id="paint0_linear_22_1376" x1="-48.968" y1="24.0801" x2="197.563" y2="24.8287" gradientUnits="userSpaceOnUse">
<stop offset="0.0692192" stop-color="#426AD1"/>
<stop offset="0.822917" stop-color="#62E4E4"/>
</linearGradient>
<linearGradient id="paint1_linear_22_1376" x1="-147.968" y1="97.716" x2="516.769" y2="97.6916" gradientUnits="userSpaceOnUse">
<stop offset="0.223958" stop-color="#426AD1"/>
<stop offset="0.822917" stop-color="#62E4E4"/>
</linearGradient>
</defs>
</svg>
