<svg width="211" height="121" viewBox="0 0 211 121" fill="none" xmlns="http://www.w3.org/2000/svg">
<g clip-path="url(#clip0_22_1625)">
<path d="M103.827 25.9224L102.114 88.253H49.0508L46.9929 57.8207H1.7309V130.046H212.749V56.0521H161.209L158.98 25.9224H103.827Z" fill="url(#paint0_linear_22_1625)"/>
<path d="M103.827 25.9224L102.114 88.253H49.0508L46.9929 57.8207H1.7309V130.046H212.749V56.0521H161.209L158.98 25.9224H103.827Z" fill="url(#paint1_linear_22_1625)"/>
<path d="M2.4162 57.8207H46.9622L49.0508 87.57H102.115L103.827 25.8701H158.98L160.693 56.2772H212.749" stroke="url(#paint2_linear_22_1625)" stroke-width="1.37025"/>
<path d="M70.2806 74.8084C70.2806 74.5676 70.2431 74.3535 70.1682 74.1661C70.0986 73.9788 69.9728 73.8075 69.7908 73.6523C69.6088 73.497 69.3519 73.3472 69.0201 73.2027C68.6936 73.0528 68.2761 72.9002 67.7676 72.745C67.2109 72.5737 66.6971 72.3837 66.226 72.175C65.7604 71.9609 65.3536 71.7147 65.0057 71.4363C64.6577 71.1526 64.3874 70.8288 64.1948 70.4648C64.0021 70.0955 63.9057 69.67 63.9057 69.1883C63.9057 68.7119 64.0047 68.2783 64.2028 67.8876C64.4062 67.4969 64.6925 67.1597 65.0619 66.876C65.4365 66.5869 65.8781 66.3648 66.3866 66.2096C66.8951 66.049 67.4571 65.9687 68.0727 65.9687C68.9398 65.9687 69.6864 66.1293 70.3127 66.4504C70.9443 66.7716 71.4287 67.2025 71.7659 67.7431C72.1085 68.2837 72.2797 68.8805 72.2797 69.5335H70.2806C70.2806 69.1481 70.1976 68.8082 70.0317 68.5138C69.8711 68.2141 69.6249 67.9786 69.293 67.8073C68.9665 67.636 68.5517 67.5504 68.0486 67.5504C67.5722 67.5504 67.1761 67.6226 66.8603 67.7672C66.5445 67.9117 66.309 68.107 66.1538 68.3533C65.9986 68.5995 65.9209 68.8778 65.9209 69.1883C65.9209 69.4077 65.9718 69.6084 66.0735 69.7904C66.1752 69.9671 66.3304 70.133 66.5392 70.2882C66.7479 70.4381 67.0102 70.5799 67.326 70.7137C67.6418 70.8475 68.0138 70.976 68.442 71.0991C69.0896 71.2918 69.6543 71.5059 70.1361 71.7414C70.6178 71.9716 71.0192 72.2338 71.3404 72.5282C71.6615 72.8226 71.9024 73.1572 72.063 73.5318C72.2235 73.9012 72.3038 74.3213 72.3038 74.7924C72.3038 75.2848 72.2048 75.7291 72.0068 76.1251C71.8087 76.5159 71.525 76.8504 71.1557 77.1287C70.7917 77.4017 70.3528 77.6131 69.839 77.763C69.3305 77.9075 68.7631 77.9798 68.1369 77.9798C67.5749 77.9798 67.0209 77.9049 66.4749 77.755C65.9343 77.6051 65.4419 77.3776 64.9976 77.0725C64.5534 76.7621 64.2001 76.3767 63.9378 75.9164C63.6756 75.4507 63.5444 74.9074 63.5444 74.2865H65.5596C65.5596 74.6666 65.6239 74.9904 65.7523 75.258C65.8862 75.5257 66.0708 75.7451 66.3063 75.9164C66.5418 76.0823 66.8148 76.2054 67.1253 76.2857C67.4411 76.366 67.7783 76.4061 68.1369 76.4061C68.6079 76.4061 69.0013 76.3392 69.3171 76.2054C69.6383 76.0716 69.8791 75.8843 70.0397 75.6434C70.2003 75.4025 70.2806 75.1242 70.2806 74.8084ZM78.7911 76.077V71.9341C78.7911 71.6237 78.7349 71.356 78.6225 71.1312C78.5101 70.9064 78.3388 70.7325 78.1087 70.6094C77.8838 70.4862 77.6002 70.4247 77.2576 70.4247C76.9418 70.4247 76.6688 70.4782 76.4387 70.5853C76.2085 70.6923 76.0292 70.8368 75.9007 71.0188C75.7723 71.2008 75.708 71.4069 75.708 71.637H73.7811C73.7811 71.2945 73.8641 70.9626 74.03 70.6415C74.196 70.3203 74.4368 70.034 74.7526 69.7824C75.0684 69.5308 75.4458 69.3328 75.8847 69.1883C76.3236 69.0437 76.816 68.9715 77.362 68.9715C78.015 68.9715 78.5931 69.0812 79.0962 69.3007C79.6047 69.5201 80.0034 69.852 80.2925 70.2962C80.5869 70.7351 80.7341 71.2865 80.7341 71.9502V75.812C80.7341 76.2081 80.7608 76.564 80.8144 76.8798C80.8732 77.1903 80.9562 77.4606 81.0633 77.6908V77.8192H79.0801C78.9891 77.6105 78.9169 77.3455 78.8634 77.0244C78.8152 76.6979 78.7911 76.3821 78.7911 76.077ZM79.0721 72.5363L79.0882 73.7326H77.6992C77.3406 73.7326 77.0248 73.7673 76.7518 73.8369C76.4788 73.9012 76.2513 73.9975 76.0693 74.126C75.8874 74.2544 75.7509 74.4097 75.6599 74.5916C75.5689 74.7736 75.5234 74.9797 75.5234 75.2099C75.5234 75.44 75.5769 75.6514 75.684 75.8441C75.791 76.0315 75.9462 76.1787 76.1496 76.2857C76.3584 76.3928 76.6099 76.4463 76.9043 76.4463C77.3004 76.4463 77.6457 76.366 77.94 76.2054C78.2398 76.0395 78.4753 75.8388 78.6466 75.6033C78.8179 75.3624 78.9089 75.1349 78.9196 74.9208L79.5458 75.7799C79.4816 75.9994 79.3719 76.2349 79.2166 76.4864C79.0614 76.738 78.858 76.9789 78.6064 77.209C78.3602 77.4338 78.0632 77.6185 77.7152 77.763C77.3727 77.9075 76.9766 77.9798 76.527 77.9798C75.9596 77.9798 75.4538 77.8674 75.0095 77.6426C74.5653 77.4124 74.2174 77.1047 73.9658 76.7193C73.7142 76.3285 73.5884 75.887 73.5884 75.3945C73.5884 74.9342 73.6741 74.5274 73.8454 74.1741C74.022 73.8155 74.2789 73.5158 74.6161 73.2749C74.9587 73.0341 75.3762 72.8521 75.8686 72.729C76.3611 72.6005 76.9231 72.5363 77.5547 72.5363H79.0721ZM86.7396 69.1321V70.5451H81.842V69.1321H86.7396ZM83.2551 67.0044H85.1901V75.4186C85.1901 75.6862 85.2275 75.8923 85.3025 76.0368C85.3827 76.176 85.4925 76.2697 85.6316 76.3178C85.7708 76.366 85.9341 76.3901 86.1214 76.3901C86.2552 76.3901 86.3837 76.3821 86.5068 76.366C86.6299 76.3499 86.7289 76.3339 86.8038 76.3178L86.8119 77.7951C86.6513 77.8433 86.464 77.8861 86.2499 77.9236C86.0411 77.9611 85.8002 77.9798 85.5273 77.9798C85.083 77.9798 84.6896 77.9022 84.347 77.747C84.0045 77.5864 83.7368 77.3268 83.5441 76.9682C83.3515 76.6095 83.2551 76.1332 83.2551 75.539V67.0044Z" fill="#212529"/>
<path d="M124.816 14.0991C124.816 13.8582 124.779 13.6441 124.704 13.4568C124.634 13.2694 124.509 13.0981 124.327 12.9429C124.145 12.7877 123.888 12.6378 123.556 12.4933C123.229 12.3434 122.812 12.1909 122.303 12.0357C121.747 11.8644 121.233 11.6744 120.762 11.4656C120.296 11.2515 119.889 11.0053 119.541 10.727C119.193 10.4433 118.923 10.1195 118.73 9.75549C118.538 9.38616 118.441 8.96064 118.441 8.47891C118.441 8.00253 118.54 7.56898 118.738 7.17824C118.942 6.78751 119.228 6.4503 119.598 6.16662C119.972 5.87758 120.414 5.65545 120.922 5.50023C121.431 5.33965 121.993 5.25936 122.608 5.25936C123.475 5.25936 124.222 5.41994 124.848 5.74109C125.48 6.06224 125.964 6.49312 126.302 7.03373C126.644 7.57433 126.815 8.17114 126.815 8.82415H124.816C124.816 8.43876 124.733 8.09888 124.567 7.80449C124.407 7.50475 124.161 7.26924 123.829 7.09796C123.502 6.92667 123.087 6.84103 122.584 6.84103C122.108 6.84103 121.712 6.91329 121.396 7.05781C121.08 7.20233 120.845 7.3977 120.689 7.64391C120.534 7.89013 120.457 8.16846 120.457 8.47891C120.457 8.69836 120.507 8.89908 120.609 9.08107C120.711 9.2577 120.866 9.42363 121.075 9.57885C121.284 9.72872 121.546 9.87057 121.862 10.0044C122.177 10.1382 122.549 10.2667 122.978 10.3898C123.625 10.5825 124.19 10.7966 124.672 11.0321C125.153 11.2622 125.555 11.5245 125.876 11.8189C126.197 12.1133 126.438 12.4478 126.599 12.8225C126.759 13.1918 126.84 13.612 126.84 14.083C126.84 14.5754 126.741 15.0197 126.542 15.4158C126.344 15.8065 126.061 16.1411 125.691 16.4194C125.327 16.6924 124.889 16.9038 124.375 17.0537C123.866 17.1982 123.299 17.2704 122.673 17.2704C122.111 17.2704 121.557 17.1955 121.011 17.0456C120.47 16.8958 119.978 16.6683 119.533 16.3632C119.089 16.0527 118.736 15.6674 118.474 15.207C118.211 14.7414 118.08 14.1981 118.08 13.5772H120.095C120.095 13.9572 120.16 14.2811 120.288 14.5487C120.422 14.8163 120.607 15.0358 120.842 15.207C121.078 15.373 121.351 15.4961 121.661 15.5764C121.977 15.6567 122.314 15.6968 122.673 15.6968C123.144 15.6968 123.537 15.6299 123.853 15.4961C124.174 15.3623 124.415 15.1749 124.575 14.9341C124.736 14.6932 124.816 14.4149 124.816 14.0991ZM133.656 15.0625V8.42271H135.599V17.1099H133.768L133.656 15.0625ZM133.929 13.256L134.579 13.24C134.579 13.8234 134.515 14.3613 134.387 14.8538C134.258 15.3409 134.06 15.7664 133.792 16.1304C133.525 16.489 133.182 16.77 132.765 16.9734C132.347 17.1714 131.847 17.2704 131.263 17.2704C130.841 17.2704 130.452 17.2089 130.099 17.0858C129.746 16.9627 129.441 16.7727 129.184 16.5157C128.932 16.2588 128.737 15.9243 128.598 15.5121C128.459 15.1 128.389 14.6076 128.389 14.0348V8.42271H130.324V14.0509C130.324 14.3667 130.362 14.6316 130.436 14.8457C130.511 15.0545 130.613 15.2231 130.742 15.3516C130.87 15.48 131.02 15.571 131.191 15.6245C131.362 15.6781 131.544 15.7048 131.737 15.7048C132.288 15.7048 132.722 15.5978 133.038 15.3837C133.359 15.1642 133.586 14.8698 133.72 14.5005C133.859 14.1312 133.929 13.7164 133.929 13.256ZM139.501 10.2774V17.1099H137.566V8.42271H139.389L139.501 10.2774ZM139.156 12.4451L138.529 12.4371C138.535 11.8216 138.62 11.2569 138.786 10.743C138.958 10.2292 139.193 9.7876 139.493 9.41828C139.798 9.04895 140.162 8.76527 140.585 8.56723C141.008 8.36383 141.479 8.26213 141.998 8.26213C142.415 8.26213 142.793 8.32101 143.13 8.43876C143.473 8.55117 143.764 8.73583 144.005 8.99275C144.251 9.24967 144.439 9.58421 144.567 9.99635C144.696 10.4031 144.76 10.9036 144.76 11.4977V17.1099H142.817V11.4897C142.817 11.0722 142.755 10.743 142.632 10.5022C142.514 10.2559 142.34 10.082 142.11 9.98029C141.886 9.87324 141.604 9.81972 141.267 9.81972C140.935 9.81972 140.638 9.8893 140.376 10.0285C140.114 10.1676 139.892 10.3576 139.71 10.5985C139.533 10.8394 139.397 11.1177 139.3 11.4335C139.204 11.7493 139.156 12.0865 139.156 12.4451Z" fill="#212529"/>
<path d="M171.963 34.2315H173.762L177.142 43.2478L180.514 34.2315H182.312L177.848 45.9214H176.419L171.963 34.2315ZM171.144 34.2315H172.854L173.151 42.0354V45.9214H171.144V34.2315ZM181.421 34.2315H183.139V45.9214H181.124V42.0354L181.421 34.2315ZM184.97 41.6742V41.4895C184.97 40.8632 185.061 40.2825 185.243 39.7472C185.425 39.2066 185.687 38.7383 186.03 38.3422C186.378 37.9408 186.8 37.6303 187.298 37.4109C187.801 37.1861 188.369 37.0737 189 37.0737C189.637 37.0737 190.205 37.1861 190.702 37.4109C191.206 37.6303 191.631 37.9408 191.979 38.3422C192.327 38.7383 192.592 39.2066 192.774 39.7472C192.956 40.2825 193.047 40.8632 193.047 41.4895V41.6742C193.047 42.3004 192.956 42.8811 192.774 43.4164C192.592 43.9517 192.327 44.42 191.979 44.8214C191.631 45.2175 191.208 45.528 190.71 45.7528C190.213 45.9722 189.648 46.082 189.016 46.082C188.379 46.082 187.809 45.9722 187.306 45.7528C186.808 45.528 186.386 45.2175 186.038 44.8214C185.69 44.42 185.425 43.9517 185.243 43.4164C185.061 42.8811 184.97 42.3004 184.97 41.6742ZM186.905 41.4895V41.6742C186.905 42.0649 186.945 42.4342 187.025 42.7821C187.106 43.13 187.231 43.4351 187.403 43.6974C187.574 43.9597 187.793 44.1658 188.061 44.3156C188.329 44.4655 188.647 44.5404 189.016 44.5404C189.375 44.5404 189.685 44.4655 189.948 44.3156C190.215 44.1658 190.435 43.9597 190.606 43.6974C190.777 43.4351 190.903 43.13 190.983 42.7821C191.069 42.4342 191.112 42.0649 191.112 41.6742V41.4895C191.112 41.1041 191.069 40.7401 190.983 40.3976C190.903 40.0497 190.775 39.7419 190.598 39.4743C190.427 39.2066 190.207 38.9979 189.94 38.848C189.677 38.6928 189.364 38.6152 189 38.6152C188.636 38.6152 188.321 38.6928 188.053 38.848C187.791 38.9979 187.574 39.2066 187.403 39.4743C187.231 39.7419 187.106 40.0497 187.025 40.3976C186.945 40.7401 186.905 41.1041 186.905 41.4895ZM196.588 39.0889V45.9214H194.653V37.2342H196.475L196.588 39.0889ZM196.242 41.2567L195.616 41.2486C195.621 40.6331 195.707 40.0684 195.873 39.5546C196.044 39.0407 196.28 38.5991 196.579 38.2298C196.885 37.8605 197.249 37.5768 197.671 37.3787C198.094 37.1754 198.565 37.0737 199.084 37.0737C199.502 37.0737 199.879 37.1325 200.217 37.2503C200.559 37.3627 200.851 37.5474 201.092 37.8043C201.338 38.0612 201.525 38.3957 201.654 38.8079C201.782 39.2147 201.846 39.7151 201.846 40.3093V45.9214H199.903V40.3012C199.903 39.8837 199.842 39.5546 199.719 39.3137C199.601 39.0675 199.427 38.8935 199.197 38.7918C198.972 38.6848 198.691 38.6312 198.354 38.6312C198.022 38.6312 197.725 38.7008 197.463 38.84C197.2 38.9792 196.978 39.1692 196.796 39.41C196.62 39.6509 196.483 39.9292 196.387 40.245C196.29 40.5608 196.242 40.898 196.242 41.2567Z" fill="#212529"/>
<path d="M17.7838 36.289V47.9789H15.7685V36.289H17.7838ZM22.5529 41.4033V43.001H17.2699V41.4033H22.5529ZM23.2192 36.289V37.8947H17.2699V36.289H23.2192ZM26.3665 40.9457V47.9789H24.4316V39.2917H26.2782L26.3665 40.9457ZM29.0241 39.2355L29.008 41.034C28.8903 41.0126 28.7618 40.9965 28.6226 40.9858C28.4888 40.9751 28.355 40.9697 28.2212 40.9697C27.8893 40.9697 27.5976 41.0179 27.346 41.1143C27.0945 41.2053 26.8831 41.3391 26.7118 41.5157C26.5458 41.687 26.4174 41.8957 26.3264 42.1419C26.2354 42.3882 26.1819 42.6638 26.1658 42.9689L25.7242 43.001C25.7242 42.4551 25.7778 41.9493 25.8848 41.4836C25.9919 41.0179 26.1524 40.6084 26.3665 40.2552C26.586 39.9019 26.859 39.6263 27.1855 39.4282C27.5173 39.2302 27.9 39.1311 28.3336 39.1311C28.4513 39.1311 28.5771 39.1419 28.7109 39.1633C28.8501 39.1847 28.9545 39.2088 29.0241 39.2355ZM32.3078 39.2917V47.9789H30.3649V39.2917H32.3078ZM30.2364 37.0115C30.2364 36.7172 30.3328 36.4736 30.5254 36.2809C30.7235 36.0829 30.9965 35.9839 31.3444 35.9839C31.6869 35.9839 31.9572 36.0829 32.1553 36.2809C32.3533 36.4736 32.4524 36.7172 32.4524 37.0115C32.4524 37.3006 32.3533 37.5414 32.1553 37.7341C31.9572 37.9268 31.6869 38.0232 31.3444 38.0232C30.9965 38.0232 30.7235 37.9268 30.5254 37.7341C30.3328 37.5414 30.2364 37.3006 30.2364 37.0115Z" fill="#212529"/>
</g>
<defs>
<linearGradient id="paint0_linear_22_1625" x1="-94.1865" y1="87.5584" x2="212.749" y2="87.5582" gradientUnits="userSpaceOnUse">
<stop offset="0.296154" stop-color="#E23D83"/>
<stop offset="1" stop-color="#748FDA"/>
</linearGradient>
<linearGradient id="paint1_linear_22_1625" x1="107.24" y1="45.0902" x2="107.24" y2="108.755" gradientUnits="userSpaceOnUse">
<stop stop-color="#EEEFF3" stop-opacity="0"/>
<stop offset="0.697534" stop-color="#F4F5F9" stop-opacity="0.84"/>
<stop offset="1" stop-color="#F4F5F9"/>
</linearGradient>
<linearGradient id="paint2_linear_22_1625" x1="1.75369" y1="84.826" x2="213.804" y2="84.826" gradientUnits="userSpaceOnUse">
<stop offset="0.296154" stop-color="#C60053"/>
<stop offset="0.484376" stop-color="#7400A3"/>
<stop offset="1" stop-color="#008DC7"/>
</linearGradient>
<clipPath id="clip0_22_1625">
<rect width="210" height="120" fill="white" transform="translate(0.666687 0.541992)"/>
</clipPath>
</defs>
</svg>
