<svg width="211" height="121" viewBox="0 0 211 121" fill="none" xmlns="http://www.w3.org/2000/svg">
<g clip-path="url(#clip0_22_2832)">
<path d="M90.9926 83.7846H36.1062L34.4017 71.5119H2V102.5H209.5V30.6028H185.083H149.288L147.583 45.6028H92.6971L90.9926 83.7846Z" fill="url(#paint0_linear_22_2832)"/>
<path d="M90.9926 83.7846H36.1062L34.4017 71.5119H-18.6665V136H221.333V30.6028H185.083H149.288L147.583 45.6028H92.6971L90.9926 83.7846Z" fill="url(#paint1_linear_22_2832)"/>
<path d="M1.3335 71.5119H34.4017L36.1062 83.7846H90.9926L92.6971 45.6028H147.583L149.288 30.6028H185.083H211.333" stroke="url(#paint2_linear_22_2832)" stroke-width="1.36364"/>
<path d="M48.4719 66.0505V67.5846H44.2452V66.0505H48.4719ZM54.6722 58.2921V60.6812H53.4417V58.2921H54.6722ZM54.5204 71.3399V73.4812H53.2979V71.3399H54.5204ZM55.7269 68.7591C55.7269 68.4502 55.663 68.1812 55.5351 67.9521C55.4126 67.7178 55.2102 67.5073 54.9279 67.3209C54.6456 67.1292 54.2674 66.9507 53.7933 66.7856C53.1115 66.5459 52.5149 66.2769 52.0035 65.9786C51.4975 65.675 51.1033 65.3021 50.821 64.86C50.544 64.4125 50.4055 63.8559 50.4055 63.1901C50.4055 62.5349 50.5546 61.9676 50.8529 61.4882C51.1566 61.0088 51.5774 60.6386 52.1154 60.3776C52.6534 60.1165 53.2819 59.986 54.001 59.986C54.555 59.986 55.053 60.0686 55.4952 60.2337C55.9426 60.3989 56.3235 60.6412 56.6377 60.9608C56.952 61.2804 57.1917 61.6746 57.3568 62.1434C57.5273 62.6068 57.6125 63.1394 57.6125 63.7414H55.6949C55.6949 63.4005 55.655 63.0968 55.5751 62.8305C55.5005 62.5588 55.3886 62.3298 55.2395 62.1434C55.0903 61.9516 54.9092 61.8051 54.6962 61.7039C54.4884 61.6027 54.2514 61.5521 53.985 61.5521C53.6068 61.5521 53.2952 61.624 53.0502 61.7678C52.8052 61.9063 52.6241 62.0981 52.5069 62.3431C52.395 62.5881 52.3391 62.8678 52.3391 63.1821C52.3391 63.4857 52.3977 63.752 52.5149 63.9811C52.6321 64.2101 52.8318 64.4179 53.1141 64.6043C53.4018 64.7854 53.7959 64.9692 54.2967 65.1556C54.9838 65.4006 55.5777 65.675 56.0784 65.9786C56.5845 66.2769 56.9733 66.6471 57.245 67.0892C57.522 67.526 57.6605 68.0773 57.6605 68.7431C57.6605 69.4303 57.5007 70.0136 57.1811 70.493C56.8668 70.9724 56.4247 71.3372 55.8547 71.5876C55.2901 71.8326 54.6322 71.9551 53.8812 71.9551C53.4071 71.9551 52.9357 71.8939 52.4669 71.7714C52.0035 71.6435 51.5827 71.4358 51.2045 71.1481C50.8263 70.8605 50.5253 70.4796 50.3016 70.0056C50.0779 69.5262 49.966 68.9402 49.966 68.2478H51.8996C51.8996 68.6632 51.9556 69.0095 52.0674 69.2865C52.1793 69.5635 52.3311 69.7818 52.5229 69.9417C52.7146 70.1015 52.9277 70.216 53.1621 70.2852C53.4018 70.3545 53.6415 70.3891 53.8812 70.3891C54.2807 70.3891 54.6163 70.3225 54.8879 70.1893C55.1649 70.0508 55.3726 69.8591 55.5111 69.6141C55.655 69.3637 55.7269 69.0787 55.7269 68.7591ZM66.9289 64.9958V66.8974C66.9289 67.8083 66.8384 68.586 66.6573 69.2305C66.4815 69.8697 66.2258 70.3891 65.8902 70.7886C65.5546 71.1881 65.1525 71.4811 64.6837 71.6675C64.2203 71.8539 63.7009 71.9472 63.1257 71.9472C62.6676 71.9472 62.2414 71.8886 61.8473 71.7714C61.4584 71.6542 61.1068 71.4704 60.7926 71.2201C60.4783 70.9697 60.2093 70.6474 59.9856 70.2533C59.7672 69.8538 59.5967 69.377 59.4742 68.823C59.357 68.2691 59.2984 67.6272 59.2984 66.8974V64.9958C59.2984 64.0796 59.389 63.3072 59.5701 62.6787C59.7512 62.0448 60.0095 61.5308 60.3451 61.1366C60.6807 60.7371 61.0802 60.4468 61.5436 60.2657C62.0124 60.0846 62.5344 59.994 63.1097 59.994C63.5731 59.994 63.9992 60.0526 64.3881 60.1698C64.7823 60.2817 65.1338 60.4601 65.4428 60.7051C65.7571 60.9502 66.0234 61.2698 66.2418 61.664C66.4655 62.0528 66.636 62.5242 66.7532 63.0782C66.8703 63.6268 66.9289 64.266 66.9289 64.9958ZM65.0033 67.1691V64.7082C65.0033 64.2447 64.9767 63.8372 64.9234 63.4857C64.8702 63.1288 64.7903 62.8278 64.6837 62.5828C64.5825 62.3325 64.4547 62.13 64.3002 61.9756C64.1457 61.8158 63.9699 61.7012 63.7729 61.632C63.5758 61.5574 63.3547 61.5201 63.1097 61.5201C62.8114 61.5201 62.5451 61.5787 62.3107 61.6959C62.0763 61.8078 61.8792 61.9889 61.7194 62.2392C61.5596 62.4896 61.4371 62.8198 61.3519 63.23C61.272 63.6348 61.232 64.1276 61.232 64.7082V67.1691C61.232 67.6379 61.2587 68.0507 61.3119 68.4076C61.3652 68.7644 61.4451 69.0707 61.5516 69.3264C61.6582 69.5768 61.786 69.7845 61.9351 69.9496C62.0896 70.1094 62.2654 70.2266 62.4625 70.3012C62.6649 70.3758 62.886 70.4131 63.1257 70.4131C63.4293 70.4131 63.6983 70.3545 63.9327 70.2373C64.167 70.1201 64.3641 69.9337 64.5239 69.678C64.6837 69.417 64.8036 69.0787 64.8835 68.6632C64.9634 68.2478 65.0033 67.7497 65.0033 67.1691ZM68.8386 70.8285C68.8386 70.5303 68.9398 70.2799 69.1422 70.0775C69.3446 69.8697 69.6189 69.7659 69.9652 69.7659C70.3167 69.7659 70.591 69.8697 70.7881 70.0775C70.9905 70.2799 71.0918 70.5303 71.0918 70.8285C71.0918 71.1268 70.9905 71.3772 70.7881 71.5796C70.591 71.782 70.3167 71.8832 69.9652 71.8832C69.6189 71.8832 69.3446 71.782 69.1422 71.5796C68.9398 71.3772 68.8386 71.1268 68.8386 70.8285ZM78.4586 60.1139V71.7874H76.533V62.399L73.6805 63.3658V61.7758L78.2269 60.1139H78.4586Z" fill="white"/>
<path d="M108.016 28.5944V30.3282H100.042V28.5944H108.016ZM104.964 25.3345V33.8039H103.102V25.3345H104.964ZM114.112 21.4753V23.8643H112.882V21.4753H114.112ZM113.961 34.523V36.6644H112.738V34.523H113.961ZM115.167 31.9422C115.167 31.6333 115.103 31.3643 114.975 31.1352C114.853 30.9009 114.65 30.6905 114.368 30.504C114.086 30.3123 113.708 30.1338 113.234 29.9687C112.552 29.729 111.955 29.46 111.444 29.1617C110.938 28.8581 110.544 28.4852 110.261 28.0431C109.984 27.5956 109.846 27.039 109.846 26.3732C109.846 25.718 109.995 25.1507 110.293 24.6713C110.597 24.1919 111.018 23.8217 111.556 23.5607C112.094 23.2996 112.722 23.1691 113.441 23.1691C113.995 23.1691 114.493 23.2517 114.935 23.4168C115.383 23.582 115.764 23.8243 116.078 24.1439C116.392 24.4635 116.632 24.8577 116.797 25.3265C116.968 25.7899 117.053 26.3226 117.053 26.9245H115.135C115.135 26.5836 115.095 26.2799 115.015 26.0136C114.941 25.7419 114.829 25.5129 114.68 25.3265C114.531 25.1347 114.35 24.9882 114.136 24.887C113.929 24.7858 113.692 24.7352 113.425 24.7352C113.047 24.7352 112.736 24.8071 112.491 24.9509C112.245 25.0894 112.064 25.2812 111.947 25.5262C111.835 25.7712 111.779 26.0509 111.779 26.3652C111.779 26.6688 111.838 26.9351 111.955 27.1642C112.072 27.3932 112.272 27.601 112.554 27.7874C112.842 27.9685 113.236 28.1523 113.737 28.3387C114.424 28.5837 115.018 28.8581 115.519 29.1617C116.025 29.46 116.414 29.8302 116.685 30.2723C116.962 30.7091 117.101 31.2604 117.101 31.9262C117.101 32.6134 116.941 33.1967 116.621 33.6761C116.307 34.1555 115.865 34.5204 115.295 34.7707C114.73 35.0157 114.073 35.1383 113.321 35.1383C112.847 35.1383 112.376 35.077 111.907 34.9545C111.444 34.8266 111.023 34.6189 110.645 34.3313C110.267 34.0436 109.966 33.6628 109.742 33.1887C109.518 32.7093 109.406 32.1233 109.406 31.4309H111.34C111.34 31.8463 111.396 32.1926 111.508 32.4696C111.62 32.7466 111.771 32.965 111.963 33.1248C112.155 33.2846 112.368 33.3991 112.602 33.4683C112.842 33.5376 113.082 33.5722 113.321 33.5722C113.721 33.5722 114.057 33.5056 114.328 33.3724C114.605 33.234 114.813 33.0422 114.951 32.7972C115.095 32.5468 115.167 32.2618 115.167 31.9422ZM126.369 28.1789V30.0805C126.369 30.9914 126.279 31.7691 126.098 32.4136C125.922 33.0528 125.666 33.5722 125.331 33.9717C124.995 34.3712 124.593 34.6642 124.124 34.8506C123.661 35.037 123.141 35.1303 122.566 35.1303C122.108 35.1303 121.682 35.0717 121.288 34.9545C120.899 34.8373 120.547 34.6535 120.233 34.4032C119.919 34.1528 119.65 33.8305 119.426 33.4364C119.207 33.0369 119.037 32.5601 118.915 32.0061C118.797 31.4522 118.739 30.8103 118.739 30.0805V28.1789C118.739 27.2627 118.829 26.4903 119.01 25.8618C119.191 25.2279 119.45 24.7139 119.785 24.3197C120.121 23.9202 120.521 23.6299 120.984 23.4488C121.453 23.2677 121.975 23.1771 122.55 23.1771C123.013 23.1771 123.44 23.2357 123.828 23.3529C124.223 23.4648 124.574 23.6432 124.883 23.8883C125.197 24.1333 125.464 24.4529 125.682 24.8471C125.906 25.2359 126.076 25.7073 126.193 26.2613C126.311 26.8099 126.369 27.4492 126.369 28.1789ZM124.444 30.3522V27.8913C124.444 27.4278 124.417 27.0204 124.364 26.6688C124.31 26.3119 124.231 26.0109 124.124 25.7659C124.023 25.5156 123.895 25.3131 123.741 25.1587C123.586 24.9989 123.41 24.8843 123.213 24.8151C123.016 24.7405 122.795 24.7032 122.55 24.7032C122.252 24.7032 121.985 24.7618 121.751 24.879C121.517 24.9909 121.32 25.172 121.16 25.4223C121 25.6727 120.877 26.003 120.792 26.4131C120.712 26.8179 120.672 27.3107 120.672 27.8913V30.3522C120.672 30.821 120.699 31.2338 120.752 31.5907C120.805 31.9476 120.885 32.2538 120.992 32.5095C121.098 32.7599 121.226 32.9676 121.375 33.1327C121.53 33.2925 121.706 33.4097 121.903 33.4843C122.105 33.5589 122.326 33.5962 122.566 33.5962C122.87 33.5962 123.139 33.5376 123.373 33.4204C123.607 33.3032 123.804 33.1168 123.964 32.8611C124.124 32.6001 124.244 32.2618 124.324 31.8463C124.404 31.4309 124.444 30.9328 124.444 30.3522ZM128.279 34.0117C128.279 33.7134 128.38 33.463 128.582 33.2606C128.785 33.0528 129.059 32.949 129.405 32.949C129.757 32.949 130.031 33.0528 130.228 33.2606C130.431 33.463 130.532 33.7134 130.532 34.0117C130.532 34.3099 130.431 34.5603 130.228 34.7627C130.031 34.9651 129.757 35.0663 129.405 35.0663C129.059 35.0663 128.785 34.9651 128.582 34.7627C128.38 34.5603 128.279 34.3099 128.279 34.0117ZM134.903 28.2828H136.053C136.501 28.2828 136.871 28.2055 137.164 28.0511C137.462 27.8966 137.683 27.6835 137.827 27.4119C137.971 27.1402 138.043 26.8286 138.043 26.477C138.043 26.1095 137.976 25.7952 137.843 25.5342C137.715 25.2679 137.518 25.0628 137.252 24.919C136.991 24.7751 136.658 24.7032 136.253 24.7032C135.912 24.7032 135.603 24.7725 135.326 24.911C135.054 25.0441 134.839 25.2359 134.679 25.4863C134.519 25.7313 134.439 26.0243 134.439 26.3652H132.506C132.506 25.7473 132.668 25.1986 132.993 24.7192C133.318 24.2398 133.76 23.8643 134.319 23.5926C134.884 23.3156 135.518 23.1771 136.221 23.1771C136.972 23.1771 137.627 23.3023 138.187 23.5527C138.751 23.7977 139.191 24.1652 139.505 24.6553C139.819 25.1454 139.976 25.7526 139.976 26.477C139.976 26.8073 139.899 27.1429 139.745 27.4838C139.59 27.8247 139.361 28.1363 139.057 28.4186C138.754 28.6956 138.376 28.922 137.923 29.0978C137.47 29.2682 136.945 29.3534 136.349 29.3534H134.903V28.2828ZM134.903 29.7849V28.7302H136.349C137.031 28.7302 137.611 28.8101 138.091 28.9699C138.575 29.1297 138.97 29.3508 139.273 29.6331C139.577 29.9101 139.798 30.227 139.936 30.5839C140.08 30.9408 140.152 31.319 140.152 31.7185C140.152 32.2618 140.054 32.7466 139.856 33.1727C139.665 33.5935 139.39 33.9504 139.033 34.2434C138.677 34.5363 138.258 34.7574 137.779 34.9065C137.305 35.0557 136.788 35.1303 136.229 35.1303C135.728 35.1303 135.249 35.061 134.791 34.9225C134.333 34.784 133.922 34.5789 133.56 34.3073C133.198 34.0303 132.91 33.6867 132.697 33.2766C132.49 32.8611 132.386 32.3817 132.386 31.8384H134.311C134.311 32.1846 134.391 32.4909 134.551 32.7572C134.716 33.0182 134.945 33.2233 135.238 33.3724C135.536 33.5216 135.877 33.5962 136.261 33.5962C136.666 33.5962 137.015 33.5243 137.308 33.3804C137.601 33.2366 137.824 33.0235 137.979 32.7412C138.139 32.4589 138.218 32.118 138.218 31.7185C138.218 31.2657 138.131 30.8982 137.955 30.6159C137.779 30.3336 137.529 30.1258 137.204 29.9927C136.879 29.8542 136.495 29.7849 136.053 29.7849H134.903Z" fill="white"/>
<path d="M166.653 13.5866V15.3204H158.679V13.5866H166.653ZM163.601 10.3266V18.7961H161.739V10.3266H163.601ZM172.749 6.46744V8.85647H171.519V6.46744H172.749ZM172.597 19.5152V21.6565H171.375V19.5152H172.597ZM173.804 16.9344C173.804 16.6255 173.74 16.3565 173.612 16.1274C173.49 15.893 173.287 15.6826 173.005 15.4962C172.723 15.3044 172.344 15.126 171.87 14.9609C171.188 14.7212 170.592 14.4522 170.081 14.1539C169.574 13.8503 169.18 13.4774 168.898 13.0353C168.621 12.5878 168.483 12.0312 168.483 11.3653C168.483 10.7102 168.632 10.1429 168.93 9.66346C169.234 9.18406 169.654 8.81385 170.192 8.55285C170.73 8.29184 171.359 8.16133 172.078 8.16133C172.632 8.16133 173.13 8.2439 173.572 8.40902C174.02 8.57415 174.4 8.81652 174.715 9.13612C175.029 9.45572 175.269 9.8499 175.434 10.3186C175.604 10.7821 175.69 11.3147 175.69 11.9167H173.772C173.772 11.5758 173.732 11.2721 173.652 11.0058C173.578 10.7341 173.466 10.5051 173.316 10.3186C173.167 10.1269 172.986 9.9804 172.773 9.87919C172.565 9.77799 172.328 9.72738 172.062 9.72738C171.684 9.72738 171.372 9.79929 171.127 9.94312C170.882 10.0816 170.701 10.2734 170.584 10.5184C170.472 10.7634 170.416 11.0431 170.416 11.3574C170.416 11.661 170.475 11.9273 170.592 12.1564C170.709 12.3854 170.909 12.5932 171.191 12.7796C171.479 12.9607 171.873 13.1445 172.374 13.3309C173.061 13.5759 173.655 13.8503 174.155 14.1539C174.661 14.4522 175.05 14.8224 175.322 15.2645C175.599 15.7013 175.737 16.2526 175.737 16.9184C175.737 17.6056 175.578 18.1889 175.258 18.6683C174.944 19.1477 174.502 19.5125 173.932 19.7629C173.367 20.0079 172.709 20.1304 171.958 20.1304C171.484 20.1304 171.013 20.0692 170.544 19.9467C170.081 19.8188 169.66 19.6111 169.282 19.3234C168.903 19.0358 168.602 18.6549 168.379 18.1809C168.155 17.7015 168.043 17.1155 168.043 16.4231H169.977C169.977 16.8385 170.033 17.1848 170.144 17.4618C170.256 17.7387 170.408 17.9571 170.6 18.1169C170.792 18.2767 171.005 18.3913 171.239 18.4605C171.479 18.5298 171.718 18.5644 171.958 18.5644C172.358 18.5644 172.693 18.4978 172.965 18.3646C173.242 18.2261 173.45 18.0344 173.588 17.7894C173.732 17.539 173.804 17.254 173.804 16.9344ZM185.006 13.1711V15.0727C185.006 15.9836 184.915 16.7613 184.734 17.4058C184.559 18.045 184.303 18.5644 183.967 18.9639C183.632 19.3634 183.229 19.6564 182.761 19.8428C182.297 20.0292 181.778 20.1224 181.203 20.1224C180.745 20.1224 180.318 20.0639 179.924 19.9467C179.535 19.8295 179.184 19.6457 178.87 19.3954C178.555 19.145 178.286 18.8227 178.063 18.4286C177.844 18.0291 177.674 17.5523 177.551 16.9983C177.434 16.4444 177.375 15.8025 177.375 15.0727V13.1711C177.375 12.2549 177.466 11.4825 177.647 10.854C177.828 10.2201 178.087 9.70608 178.422 9.3119C178.758 8.9124 179.157 8.62209 179.621 8.44098C180.089 8.25988 180.611 8.16932 181.187 8.16932C181.65 8.16932 182.076 8.22792 182.465 8.3451C182.859 8.45696 183.211 8.63541 183.52 8.88044C183.834 9.12547 184.1 9.44507 184.319 9.83924C184.543 10.2281 184.713 10.6995 184.83 11.2535C184.947 11.8021 185.006 12.4413 185.006 13.1711ZM183.08 15.3444V12.8835C183.08 12.42 183.054 12.0125 183 11.661C182.947 11.3041 182.867 11.0031 182.761 10.7581C182.66 10.5077 182.532 10.3053 182.377 10.1509C182.223 9.99106 182.047 9.87653 181.85 9.80728C181.653 9.73271 181.432 9.69542 181.187 9.69542C180.888 9.69542 180.622 9.75402 180.388 9.8712C180.153 9.98307 179.956 10.1642 179.796 10.4145C179.637 10.6649 179.514 10.9951 179.429 11.4053C179.349 11.8101 179.309 12.3028 179.309 12.8835V15.3444C179.309 15.8131 179.336 16.226 179.389 16.5829C179.442 16.9397 179.522 17.246 179.629 17.5017C179.735 17.7521 179.863 17.9598 180.012 18.1249C180.167 18.2847 180.342 18.4019 180.54 18.4765C180.742 18.5511 180.963 18.5884 181.203 18.5884C181.506 18.5884 181.775 18.5298 182.01 18.4126C182.244 18.2954 182.441 18.109 182.601 17.8533C182.761 17.5923 182.881 17.254 182.96 16.8385C183.04 16.4231 183.08 15.925 183.08 15.3444ZM186.916 19.0038C186.916 18.7055 187.017 18.4552 187.219 18.2528C187.422 18.045 187.696 17.9412 188.042 17.9412C188.394 17.9412 188.668 18.045 188.865 18.2528C189.068 18.4552 189.169 18.7055 189.169 19.0038C189.169 19.3021 189.068 19.5525 188.865 19.7549C188.668 19.9573 188.394 20.0585 188.042 20.0585C187.696 20.0585 187.422 19.9573 187.219 19.7549C187.017 19.5525 186.916 19.3021 186.916 19.0038ZM196.536 8.28917V19.9626H194.61V10.5743L191.758 11.5411V9.95111L196.304 8.28917H196.536Z" fill="white"/>
</g>
<defs>
<linearGradient id="paint0_linear_22_2832" x1="-94.1211" y1="68.7801" x2="211.334" y2="68.7798" gradientUnits="userSpaceOnUse">
<stop offset="0.296154" stop-color="#E23D83"/>
<stop offset="1" stop-color="#748FDA"/>
</linearGradient>
<linearGradient id="paint1_linear_22_2832" x1="106.333" y1="26.5119" x2="106.333" y2="102.396" gradientUnits="userSpaceOnUse">
<stop stop-color="#25293D" stop-opacity="0"/>
<stop offset="0.720624" stop-color="#25293D" stop-opacity="0.84"/>
<stop offset="1" stop-color="#25293D"/>
</linearGradient>
<linearGradient id="paint2_linear_22_2832" x1="1.356" y1="53.7854" x2="212.383" y2="53.7854" gradientUnits="userSpaceOnUse">
<stop offset="0.249465" stop-color="#C60053"/>
<stop offset="0.465427" stop-color="#747AF8"/>
<stop offset="0.67595" stop-color="#5BE7FE"/>
</linearGradient>
<clipPath id="clip0_22_2832">
<rect width="210" height="120" fill="white" transform="translate(0.333496 0.266357)"/>
</clipPath>
</defs>
</svg>
