<svg width="210" height="121" viewBox="0 0 210 121" fill="none" xmlns="http://www.w3.org/2000/svg">
<path fill-rule="evenodd" clip-rule="evenodd" d="M153.336 70.4656C153.144 70.4885 152.951 70.5018 152.757 70.5052C125.691 70.984 117.111 78.1498 108.303 85.5062C98.7745 93.464 88.979 101.645 55.227 101.826V101.854H53.8634V80.0355H54.0774V80.0111C83.3423 80.0111 92.6312 72.5169 102.128 64.8552C108.118 60.0228 114.19 55.1239 125.409 51.9964C126.232 50.0293 128.176 48.6475 130.442 48.6475L155.239 48.6475C156.812 48.6475 158.309 49.3264 159.344 50.5102L165.689 57.7606C166.588 58.7889 166.588 60.3242 165.689 61.3525L159.344 68.6029C158.309 69.7867 156.812 70.4656 155.239 70.4656H153.336Z" fill="url(#paint0_linear_22_1301)"/>
<path d="M30.6819 48.675L188.676 48.675L202.5 59.5841L188.676 70.4932H30.6819V48.675Z" fill="url(#paint1_linear_22_1301)"/>
<path fill-rule="evenodd" clip-rule="evenodd" d="M153.338 48.6452C153.147 48.6224 152.954 48.6091 152.76 48.6057C125.087 48.1187 115.592 40.6796 106.013 33.1739C96.1166 25.4193 86.1292 17.5936 55.9086 17.2907V17.2815H10.9086V40.4634L54.0771 40.4634C83.1878 40.4634 92.2101 47.5564 101.481 54.8445C110.767 62.1455 120.303 69.6423 150.532 70.4006C150.803 70.4419 151.081 70.4634 151.363 70.4634L204.992 70.4634L209.999 59.5543L204.992 48.6452H153.338Z" fill="url(#paint2_linear_22_1301)"/>
<path d="M18.4093 29.5539C18.4093 29.0717 18.0148 28.6772 17.5327 28.6772H7.01319C6.53105 28.6772 6.13657 29.0717 6.13657 29.5539C6.13657 30.036 6.53105 30.4305 7.01319 30.4305H17.5327C18.0148 30.4305 18.4093 30.036 18.4093 29.5539Z" fill="#EEEFF3"/>
<circle cx="32.0709" cy="60.2682" r="12.9812" fill="#212529"/>
<path d="M23.9949 59.2218H40.3532V61.1463H23.9949V59.2218Z" fill="#EEEFF3"/>
<circle cx="12.9817" cy="28.9038" r="12.9812" fill="#212529"/>
<path d="M4.90656 27.8568H21.2648V29.7813H4.90656V27.8568Z" fill="#EEEFF3"/>
<circle cx="56.6183" cy="91.6286" r="12.9812" fill="#212529"/>
<path d="M48.5434 90.5823H64.9017V92.5068H48.5434V90.5823Z" fill="#EEEFF3"/>
<defs>
<linearGradient id="paint0_linear_22_1301" x1="-133.664" y1="28.0958" x2="212.046" y2="29.5681" gradientUnits="userSpaceOnUse">
<stop offset="0.0692192" stop-color="#426AD1"/>
<stop offset="0.822917" stop-color="#62E4E4"/>
</linearGradient>
<linearGradient id="paint1_linear_22_1301" x1="-161.701" y1="40.2167" x2="304.09" y2="48.6909" gradientUnits="userSpaceOnUse">
<stop offset="0.106286" stop-color="#426AD1"/>
<stop offset="0.802522" stop-color="#62E4E4"/>
</linearGradient>
<linearGradient id="paint2_linear_22_1301" x1="-149.049" y1="91.0158" x2="520.27" y2="90.9911" gradientUnits="userSpaceOnUse">
<stop offset="0.223958" stop-color="#426AD1"/>
<stop offset="0.822917" stop-color="#62E4E4"/>
</linearGradient>
</defs>
</svg>
