<svg width="210" height="121" viewBox="0 0 210 121" fill="none" xmlns="http://www.w3.org/2000/svg">
<rect x="5.3283" y="22.0563" width="199.343" height="77.4854" rx="7.5" stroke="#5E6D9A" stroke-width="1.36364" stroke-dasharray="2.73 2.73"/>
<mask id="mask0_22_3014" style="mask-type:alpha" maskUnits="userSpaceOnUse" x="27" y="39" width="43" height="44">
<path d="M67.8536 60.4469C62.4648 74.978 60.182 85.6998 46.884 82.0168C33.586 78.3339 33.6974 71.143 28.4714 60.4469C23.2455 49.7507 34.6089 41.5059 48.4182 39.4014C62.2276 37.2968 73.2424 45.9157 67.8536 60.4469Z" fill="#D9D9D9"/>
</mask>
<g mask="url(#mask0_22_3014)">
<circle cx="48.6967" cy="60.242" r="12.9545" fill="white"/>
<path fill-rule="evenodd" clip-rule="evenodd" d="M51.9077 65.7139L56.9997 60.6219L55.6389 59.2611L55.6347 59.2653L51.8585 55.489L50.4976 56.8499L53.3537 59.7059L40.6155 59.7059L40.6155 61.6304L53.2696 61.6304L50.5469 64.3531L51.9077 65.7139ZM54.2465 60.6535L54.2739 60.6261L54.2465 60.5987L54.2465 60.6535Z" fill="#E23D83"/>
<path fill-rule="evenodd" clip-rule="evenodd" d="M49.3773 44.5575V28.1938H48.0137V44.5575H49.3773ZM16.6494 59.5573H33.0131V60.9209H16.6494V59.5573ZM64.377 59.5573H80.7407V60.9209H64.377V59.5573ZM49.3773 75.9224V92.286H48.0137V75.9224H49.3773ZM17.9191 51.286L33.7252 55.5212L33.3722 56.8384L17.5662 52.6031L17.9191 51.286ZM56.3325 29.1092L52.0973 44.9152L53.4145 45.2682L57.6497 29.4621L56.3325 29.1092ZM43.9793 75.2135L39.7441 91.0195L41.0613 91.3724L45.2965 75.5664L43.9793 75.2135ZM79.8268 67.8734L64.0207 63.6381L63.6678 64.9553L79.4739 69.1905L79.8268 67.8734ZM45.2954 44.9175L41.0602 29.1115L39.743 29.4644L43.9782 45.2705L45.2954 44.9175ZM17.5665 67.8769L33.3725 63.6417L33.7255 64.9588L17.9194 69.194L17.5665 67.8769ZM63.6671 55.5248L79.4731 51.2896L79.8261 52.6068L64.02 56.842L63.6671 55.5248ZM53.4137 75.2121L57.6489 91.0181L56.3317 91.3711L52.0965 75.565L53.4137 75.2121ZM41.4452 46.3129L33.2634 32.1416L32.0825 32.8234L40.2643 46.9947L41.4452 46.3129ZM61.9365 51.803L76.1079 43.6212L76.7897 44.8021L62.6184 52.984L61.9365 51.803ZM20.604 75.6673L34.7753 67.4855L35.4572 68.6664L21.2858 76.8482L20.604 75.6673ZM57.1267 73.4781L65.3085 87.6494L64.1276 88.3313L55.9458 74.1599L57.1267 73.4781ZM26.5192 37.1026L38.09 48.6735L37.1258 49.6377L25.5549 38.0669L26.5192 37.1026ZM37.1263 70.8459L25.5554 82.4167L26.5197 83.381L38.0905 71.8101L37.1263 70.8459ZM70.8733 37.1017L59.3025 48.6726L60.2667 49.6368L71.8376 38.066L70.8733 37.1017ZM71.8377 82.4182L60.2668 70.8473L59.3026 71.8116L70.8734 83.3824L71.8377 82.4182ZM35.4574 51.8096L21.286 43.6278L20.6042 44.8087L34.7755 52.9906L35.4574 51.8096ZM55.9479 46.3208L64.1297 32.1495L65.3107 32.8313L57.1289 47.0026L55.9479 46.3208ZM32.0833 87.657L40.2651 73.4857L41.446 74.1675L33.2642 88.3388L32.0833 87.657ZM62.6186 67.4921L76.7899 75.6739L76.1081 76.8548L61.9367 68.673L62.6186 67.4921Z" fill="#ACBDD7"/>
</g>
<mask id="mask1_22_3014" style="mask-type:alpha" maskUnits="userSpaceOnUse" x="139" y="41" width="43" height="42">
<path d="M160.998 41.8248C176.429 43.269 181.297 48.03 181.181 61.828C181.066 75.6261 174.545 80.0788 162.672 82.3178C150.799 84.5568 148.224 78.4227 141.704 64.6407C135.183 50.8587 145.567 40.3805 160.998 41.8248Z" fill="#D9D9D9"/>
</mask>
<g mask="url(#mask1_22_3014)">
<circle cx="161.34" cy="59.8538" r="12.9545" fill="white"/>
<path fill-rule="evenodd" clip-rule="evenodd" d="M164.549 65.326L169.641 60.234L168.28 58.8732L168.276 58.8773L164.5 55.1011L163.139 56.4619L165.995 59.318L153.257 59.318L153.257 61.2425L165.911 61.2425L163.188 63.9652L164.549 65.326ZM166.888 60.2654L166.915 60.2382L166.888 60.211L166.888 60.2654Z" fill="#E23D83"/>
<path fill-rule="evenodd" clip-rule="evenodd" d="M162.02 44.1776V27.814H160.657V44.1776H162.02ZM129.292 59.1775H145.656V60.5411H129.292V59.1775ZM177.02 59.1775H193.384V60.5411H177.02V59.1775ZM162.02 75.5423V91.9059H160.657V75.5423H162.02ZM130.562 50.9024L146.368 55.1376L146.015 56.4548L130.209 52.2196L130.562 50.9024ZM168.976 28.7249L164.74 44.531L166.058 44.8839L170.293 29.0779L168.976 28.7249ZM156.622 74.83L152.387 90.6361L153.704 90.989L157.94 75.1829L156.622 74.83ZM192.47 67.4895L176.664 63.2542L176.311 64.5714L192.117 68.8066L192.47 67.4895ZM157.939 44.5337L153.704 28.7277L152.387 29.0806L156.622 44.8867L157.939 44.5337ZM130.21 67.4936L146.016 63.2584L146.369 64.5756L130.562 68.8108L130.21 67.4936ZM176.311 55.141L192.117 50.9058L192.47 52.223L176.664 56.4582L176.311 55.141ZM166.056 74.8283L170.291 90.6344L168.974 90.9873L164.739 75.1812L166.056 74.8283ZM154.088 45.9331L145.906 31.7617L144.725 32.4436L152.907 46.6149L154.088 45.9331ZM174.579 51.4231L188.751 43.2413L189.432 44.4222L175.261 52.604L174.579 51.4231ZM133.247 75.2872L147.418 67.1054L148.1 68.2863L133.929 76.4681L133.247 75.2872ZM169.77 73.0983L177.951 87.2696L176.77 87.9514L168.589 73.7801L169.77 73.0983ZM139.16 36.7193L150.731 48.2901L149.767 49.2543L138.196 37.6835L139.16 36.7193ZM149.767 70.4625L138.196 82.0333L139.16 82.9975L150.731 71.4267L149.767 70.4625ZM183.514 36.7177L171.943 48.2885L172.907 49.2528L184.478 37.6819L183.514 36.7177ZM184.478 82.0347L172.907 70.4639L171.943 71.4281L183.514 82.999L184.478 82.0347ZM148.098 51.4253L133.927 43.2435L133.245 44.4245L147.416 52.6063L148.098 51.4253ZM168.588 45.9364L176.77 31.7651L177.951 32.4469L169.769 46.6182L168.588 45.9364ZM144.724 87.2734L152.906 73.1021L154.087 73.7839L145.905 87.9552L144.724 87.2734ZM175.259 67.1082L189.43 75.29L188.749 76.471L174.577 68.2892L175.259 67.1082Z" fill="#ACBDD7"/>
</g>
<mask id="mask2_22_3014" style="mask-type:alpha" maskUnits="userSpaceOnUse" x="84" y="41" width="42" height="39">
<path d="M124.441 60.2085C121.716 74.525 115.578 76.5721 106.714 78.6176C97.8505 80.663 84.8969 78.6178 84.2152 64.9834C83.5334 51.349 89.6702 38.7655 105.352 42.4835C121.034 46.2016 127.167 45.892 124.441 60.2085Z" fill="#D9D9D9"/>
</mask>
<g mask="url(#mask2_22_3014)">
<circle cx="103.304" cy="60.5898" r="12.9545" fill="white"/>
<path fill-rule="evenodd" clip-rule="evenodd" d="M106.515 66.0661L111.607 60.9741L110.246 59.6133L110.241 59.6177L106.465 55.8416L105.104 57.2024L107.96 60.0581L95.2224 60.0581L95.2224 61.9826L107.877 61.9826L105.154 64.7053L106.515 66.0661ZM108.853 61.0056L108.881 60.9785L108.853 60.9514L108.853 61.0056Z" fill="#E23D83"/>
<path fill-rule="evenodd" clip-rule="evenodd" d="M103.988 44.9136V28.5499H102.624V44.9136H103.988ZM71.2598 59.9134H87.6234V61.2771H71.2598V59.9134ZM118.987 59.9134H135.351V61.2771H118.987V59.9134ZM103.988 76.2782V92.6419H102.624V76.2782H103.988ZM72.5275 51.6421L88.3335 55.8773L87.9806 57.1945L72.1745 52.9593L72.5275 51.6421ZM110.941 29.4653L106.706 45.2713L108.023 45.6243L112.258 29.8182L110.941 29.4653ZM98.5877 75.5696L94.3525 91.3756L95.6696 91.7286L99.9048 75.9225L98.5877 75.5696ZM134.435 68.2299L118.629 63.9947L118.276 65.3119L134.082 69.5471L134.435 68.2299ZM99.9049 45.2735L95.6696 29.4674L94.3525 29.8204L98.5877 45.6264L99.9049 45.2735ZM72.1746 68.233L87.9807 63.9977L88.3336 65.3149L72.5276 69.5501L72.1746 68.233ZM118.277 55.8809L134.083 51.6457L134.436 52.9629L118.629 57.1981L118.277 55.8809ZM108.022 75.568L112.257 91.3741L110.94 91.727L106.705 75.921L108.022 75.568ZM96.0539 46.669L87.8721 32.4977L86.6912 33.1795L94.873 47.3508L96.0539 46.669ZM116.545 52.1589L130.717 43.9771L131.398 45.158L117.227 53.3399L116.545 52.1589ZM75.2123 76.0229L89.3836 67.8411L90.0655 69.022L75.8941 77.2039L75.2123 76.0229ZM111.735 73.834L119.917 88.0054L118.736 88.6872L110.554 74.5159L111.735 73.834ZM81.1278 37.4587L92.6986 49.0295L91.7344 49.9937L80.1635 38.4229L81.1278 37.4587ZM91.7346 71.2018L80.1637 82.7726L81.128 83.7369L92.6988 72.166L91.7346 71.2018ZM125.482 37.4577L113.911 49.0285L114.875 49.9928L126.446 38.4219L125.482 37.4577ZM126.446 82.7739L114.875 71.2031L113.911 72.1673L125.482 83.7382L126.446 82.7739ZM90.0654 52.1616L75.8941 43.9798L75.2123 45.1607L89.3836 53.3425L90.0654 52.1616ZM110.556 46.6728L118.738 32.5014L119.919 33.1833L111.737 47.3546L110.556 46.6728ZM86.6917 88.0089L94.8735 73.8376L96.0544 74.5194L87.8726 88.6908L86.6917 88.0089ZM117.227 67.8438L131.398 76.0256L130.716 77.2066L116.545 69.0248L117.227 67.8438Z" fill="#ACBDD7"/>
</g>
</svg>
