<svg width="211" height="121" viewBox="0 0 211 121" fill="none" xmlns="http://www.w3.org/2000/svg">
<g clip-path="url(#clip0_22_1367)">
<path d="M90.9925 63.5865H-8.66663V105.177H221.333V31.541H147.583H92.697L90.9925 63.5865Z" fill="url(#paint0_linear_22_1367)"/>
<path d="M90.9925 63.5865H-8.66663V105.177H221.333V31.541H147.583H92.697L90.9925 63.5865Z" fill="url(#paint1_linear_22_1367)"/>
<path d="M0.5 62.9108H36.1064H90.9928L92.6973 32.229H147.584H149.288H211.334" stroke="url(#paint2_linear_22_1367)" stroke-width="1.36364"/>
<path d="M140.744 19.6288V21.3627H132.77V19.6288H140.744ZM137.692 16.3689V24.8383H135.831V16.3689H137.692ZM144.476 19.3172H145.626C146.074 19.3172 146.444 19.24 146.737 19.0855C147.035 18.931 147.256 18.718 147.4 18.4463C147.544 18.1746 147.616 17.863 147.616 17.5115C147.616 17.1439 147.549 16.8296 147.416 16.5686C147.288 16.3023 147.091 16.0972 146.825 15.9534C146.564 15.8096 146.231 15.7377 145.826 15.7377C145.485 15.7377 145.176 15.8069 144.899 15.9454C144.628 16.0786 144.412 16.2703 144.252 16.5207C144.092 16.7657 144.012 17.0587 144.012 17.3996H142.079C142.079 16.7817 142.241 16.233 142.566 15.7536C142.891 15.2742 143.333 14.8987 143.893 14.627C144.457 14.3501 145.091 14.2116 145.794 14.2116C146.545 14.2116 147.2 14.3367 147.76 14.5871C148.324 14.8321 148.764 15.1997 149.078 15.6897C149.392 16.1798 149.55 16.787 149.55 17.5115C149.55 17.8417 149.472 18.1773 149.318 18.5182C149.163 18.8591 148.934 19.1707 148.631 19.453C148.327 19.73 147.949 19.9564 147.496 20.1322C147.043 20.3026 146.519 20.3879 145.922 20.3879H144.476V19.3172ZM144.476 20.8193V19.7646H145.922C146.604 19.7646 147.184 19.8445 147.664 20.0043C148.149 20.1642 148.543 20.3852 148.846 20.6675C149.15 20.9445 149.371 21.2615 149.51 21.6183C149.653 21.9752 149.725 22.3534 149.725 22.7529C149.725 23.2963 149.627 23.781 149.43 24.2071C149.238 24.6279 148.964 24.9848 148.607 25.2778C148.25 25.5708 147.832 25.7918 147.352 25.941C146.878 26.0901 146.361 26.1647 145.802 26.1647C145.301 26.1647 144.822 26.0954 144.364 25.9569C143.906 25.8184 143.496 25.6134 143.133 25.3417C142.771 25.0647 142.484 24.7211 142.271 24.311C142.063 23.8955 141.959 23.4161 141.959 22.8728H143.885C143.885 23.219 143.964 23.5253 144.124 23.7916C144.289 24.0526 144.518 24.2577 144.811 24.4069C145.11 24.556 145.451 24.6306 145.834 24.6306C146.239 24.6306 146.588 24.5587 146.881 24.4149C147.174 24.271 147.398 24.058 147.552 23.7757C147.712 23.4933 147.792 23.1524 147.792 22.7529C147.792 22.3002 147.704 21.9326 147.528 21.6503C147.352 21.368 147.102 21.1602 146.777 21.0271C146.452 20.8886 146.069 20.8193 145.626 20.8193H144.476ZM153.537 20.5956L152.002 20.2201L152.634 14.3714H158.906V16.0013H154.232L153.912 18.8538C154.093 18.7472 154.344 18.6434 154.663 18.5422C154.983 18.4356 155.348 18.3824 155.758 18.3824C156.306 18.3824 156.796 18.4729 157.228 18.654C157.665 18.8298 158.035 19.0882 158.339 19.4291C158.642 19.7646 158.874 20.1748 159.034 20.6595C159.194 21.1389 159.273 21.6796 159.273 22.2815C159.273 22.8195 159.194 23.3229 159.034 23.7916C158.879 24.2604 158.645 24.6732 158.331 25.0301C158.016 25.387 157.619 25.6666 157.14 25.8691C156.666 26.0661 156.104 26.1647 155.454 26.1647C154.969 26.1647 154.503 26.0954 154.056 25.9569C153.614 25.8131 153.217 25.6027 152.865 25.3257C152.514 25.0434 152.232 24.6972 152.018 24.287C151.805 23.8715 151.683 23.3948 151.651 22.8568H153.537C153.584 23.235 153.688 23.5573 153.848 23.8236C154.013 24.0846 154.232 24.2844 154.503 24.4229C154.775 24.5613 155.089 24.6306 155.446 24.6306C155.771 24.6306 156.051 24.5747 156.285 24.4628C156.519 24.3456 156.714 24.1805 156.868 23.9674C157.028 23.749 157.145 23.4933 157.22 23.2004C157.3 22.9074 157.34 22.5825 157.34 22.2256C157.34 21.8847 157.295 21.5731 157.204 21.2907C157.119 21.0084 156.988 20.7634 156.812 20.5557C156.642 20.3479 156.426 20.1881 156.165 20.0763C155.904 19.9591 155.603 19.9005 155.262 19.9005C154.804 19.9005 154.453 19.9671 154.208 20.1002C153.968 20.2334 153.744 20.3985 153.537 20.5956ZM160.736 17.2238V16.6086C160.736 16.1665 160.831 15.7643 161.023 15.4021C161.215 15.0399 161.495 14.7496 161.862 14.5312C162.23 14.3128 162.672 14.2036 163.189 14.2036C163.721 14.2036 164.169 14.3128 164.531 14.5312C164.898 14.7496 165.178 15.0399 165.37 15.4021C165.562 15.7643 165.657 16.1665 165.657 16.6086V17.2238C165.657 17.6553 165.562 18.0521 165.37 18.4143C165.183 18.7765 164.906 19.0668 164.539 19.2852C164.177 19.5036 163.732 19.6128 163.205 19.6128C162.682 19.6128 162.235 19.5036 161.862 19.2852C161.495 19.0668 161.215 18.7765 161.023 18.4143C160.831 18.0521 160.736 17.6553 160.736 17.2238ZM162.07 16.6086V17.2238C162.07 17.4369 162.11 17.6393 162.19 17.8311C162.275 18.0228 162.403 18.1773 162.573 18.2945C162.744 18.4117 162.954 18.4703 163.205 18.4703C163.46 18.4703 163.668 18.4117 163.828 18.2945C163.993 18.1773 164.115 18.0228 164.195 17.8311C164.275 17.6393 164.315 17.4369 164.315 17.2238V16.6086C164.315 16.3902 164.273 16.1851 164.187 15.9933C164.107 15.7963 163.985 15.6391 163.82 15.5219C163.655 15.4047 163.444 15.3461 163.189 15.3461C162.944 15.3461 162.736 15.4047 162.565 15.5219C162.4 15.6391 162.275 15.7963 162.19 15.9933C162.11 16.1851 162.07 16.3902 162.07 16.6086ZM166.345 23.7757V23.1524C166.345 22.7156 166.44 22.3161 166.632 21.9539C166.829 21.5917 167.112 21.3014 167.479 21.083C167.847 20.8646 168.289 20.7554 168.806 20.7554C169.338 20.7554 169.786 20.8646 170.148 21.083C170.515 21.3014 170.792 21.5917 170.979 21.9539C171.171 22.3161 171.266 22.7156 171.266 23.1524V23.7757C171.266 24.2124 171.171 24.6119 170.979 24.9742C170.792 25.3364 170.518 25.6267 170.156 25.8451C169.794 26.0635 169.352 26.1727 168.83 26.1727C168.302 26.1727 167.852 26.0635 167.479 25.8451C167.112 25.6267 166.829 25.3364 166.632 24.9742C166.44 24.6119 166.345 24.2124 166.345 23.7757ZM167.687 23.1524V23.7757C167.687 23.9887 167.73 24.1911 167.815 24.3829C167.905 24.5747 168.036 24.7318 168.206 24.8543C168.377 24.9715 168.582 25.0301 168.822 25.0301C169.093 25.0301 169.312 24.9715 169.477 24.8543C169.642 24.7318 169.759 24.5773 169.828 24.3909C169.903 24.1991 169.94 23.9941 169.94 23.7757V23.1524C169.94 22.934 169.898 22.729 169.812 22.5372C169.732 22.3454 169.607 22.191 169.437 22.0738C169.272 21.9566 169.061 21.898 168.806 21.898C168.555 21.898 168.347 21.9566 168.182 22.0738C168.017 22.191 167.892 22.3454 167.807 22.5372C167.727 22.729 167.687 22.934 167.687 23.1524ZM169.285 16.0333L163.604 25.126L162.621 24.5587L168.302 15.466L169.285 16.0333Z" fill="#212529"/>
<rect x="-1" y="96" width="214" height="20" fill="#F4F5F9"/>
</g>
<defs>
<linearGradient id="paint0_linear_22_1367" x1="-94.1212" y1="62.8846" x2="211.333" y2="62.8843" gradientUnits="userSpaceOnUse">
<stop offset="0.296154" stop-color="#E23D83"/>
<stop offset="1" stop-color="#748FDA"/>
</linearGradient>
<linearGradient id="paint1_linear_22_1367" x1="106.333" y1="20.6319" x2="106.333" y2="95.9659" gradientUnits="userSpaceOnUse">
<stop stop-color="#EEEFF3" stop-opacity="0"/>
<stop offset="0.720624" stop-color="#F4F5F9" stop-opacity="0.64"/>
<stop offset="1" stop-color="#F4F5F9"/>
</linearGradient>
<linearGradient id="paint2_linear_22_1367" x1="1.35619" y1="60.1811" x2="212.384" y2="60.1811" gradientUnits="userSpaceOnUse">
<stop offset="0.296154" stop-color="#C60053"/>
<stop offset="0.484376" stop-color="#7400A3"/>
<stop offset="1" stop-color="#008DC7"/>
</linearGradient>
<clipPath id="clip0_22_1367">
<rect width="210" height="120" fill="white" transform="translate(0.333374 0.532715)"/>
</clipPath>
</defs>
</svg>
