<svg width="715" height="139" viewBox="0 0 715 139" fill="none" xmlns="http://www.w3.org/2000/svg">
<line x1="304.5" y1="102" x2="304.5" y2="38" stroke="#3C6CC3"/>
<path d="M487.354 102.354C487.549 102.158 487.549 101.842 487.354 101.646L484.172 98.4645C483.976 98.2692 483.66 98.2692 483.464 98.4645C483.269 98.6597 483.269 98.9763 483.464 99.1716L486.293 102L483.464 104.828C483.269 105.024 483.269 105.34 483.464 105.536C483.66 105.731 483.976 105.731 484.172 105.536L487.354 102.354ZM304 102.5L487 102.5L487 101.5L304 101.5L304 102.5Z" fill="#3C6CC3"/>
<path d="M487.354 38.3535C487.549 38.1583 487.549 37.8417 487.354 37.6464L484.172 34.4645C483.976 34.2692 483.66 34.2692 483.464 34.4645C483.269 34.6597 483.269 34.9763 483.464 35.1716L486.293 38L483.464 40.8284C483.269 41.0237 483.269 41.3403 483.464 41.5355C483.66 41.7308 483.976 41.7308 484.172 41.5355L487.354 38.3535ZM304 38.5L487 38.5L487 37.5L304 37.5L304 38.5Z" fill="#3C6CC3"/>
<path d="M247 70L304 70" stroke="#3C6CC3"/>
<rect x="137.5" y="40.5" width="109" height="59" rx="3.5" fill="white"/>
<rect x="137.5" y="40.5" width="109" height="59" rx="3.5" stroke="#6AAA3F"/>
<path d="M160.64 59.974C160.994 60.03 161.316 60.1747 161.606 60.408C161.904 60.6413 162.138 60.9307 162.306 61.276C162.483 61.6213 162.572 61.99 162.572 62.382C162.572 62.8767 162.446 63.3247 162.194 63.726C161.942 64.118 161.573 64.4307 161.088 64.664C160.612 64.888 160.047 65 159.394 65H155.754V55.242H159.254C159.916 55.242 160.481 55.354 160.948 55.578C161.414 55.7927 161.764 56.0867 161.998 56.46C162.231 56.8333 162.348 57.2533 162.348 57.72C162.348 58.2987 162.189 58.7793 161.872 59.162C161.564 59.5353 161.153 59.806 160.64 59.974ZM157.028 59.456H159.17C159.767 59.456 160.229 59.316 160.556 59.036C160.882 58.756 161.046 58.3687 161.046 57.874C161.046 57.3793 160.882 56.992 160.556 56.712C160.229 56.432 159.758 56.292 159.142 56.292H157.028V59.456ZM159.282 63.95C159.916 63.95 160.411 63.8007 160.766 63.502C161.12 63.2033 161.298 62.788 161.298 62.256C161.298 61.7147 161.111 61.29 160.738 60.982C160.364 60.6647 159.865 60.506 159.24 60.506H157.028V63.95H159.282ZM165.614 54.64V65H164.34V54.64H165.614ZM167.309 61.136C167.309 60.352 167.468 59.666 167.785 59.078C168.102 58.4807 168.536 58.0187 169.087 57.692C169.647 57.3653 170.268 57.202 170.949 57.202C171.621 57.202 172.204 57.3467 172.699 57.636C173.194 57.9253 173.562 58.2893 173.805 58.728V57.328H175.093V65H173.805V63.572C173.553 64.02 173.175 64.3933 172.671 64.692C172.176 64.9813 171.598 65.126 170.935 65.126C170.254 65.126 169.638 64.958 169.087 64.622C168.536 64.286 168.102 63.8147 167.785 63.208C167.468 62.6013 167.309 61.9107 167.309 61.136ZM173.805 61.15C173.805 60.5713 173.688 60.0673 173.455 59.638C173.222 59.2087 172.904 58.882 172.503 58.658C172.111 58.4247 171.677 58.308 171.201 58.308C170.725 58.308 170.291 58.42 169.899 58.644C169.507 58.868 169.194 59.1947 168.961 59.624C168.728 60.0533 168.611 60.5573 168.611 61.136C168.611 61.724 168.728 62.2373 168.961 62.676C169.194 63.1053 169.507 63.4367 169.899 63.67C170.291 63.894 170.725 64.006 171.201 64.006C171.677 64.006 172.111 63.894 172.503 63.67C172.904 63.4367 173.222 63.1053 173.455 62.676C173.688 62.2373 173.805 61.7287 173.805 61.15ZM176.77 61.15C176.77 60.3567 176.929 59.666 177.246 59.078C177.563 58.4807 178.002 58.0187 178.562 57.692C179.131 57.3653 179.78 57.202 180.508 57.202C181.451 57.202 182.225 57.4307 182.832 57.888C183.448 58.3453 183.854 58.98 184.05 59.792H182.678C182.547 59.3253 182.291 58.9567 181.908 58.686C181.535 58.4153 181.068 58.28 180.508 58.28C179.78 58.28 179.192 58.532 178.744 59.036C178.296 59.5307 178.072 60.2353 178.072 61.15C178.072 62.074 178.296 62.788 178.744 63.292C179.192 63.796 179.78 64.048 180.508 64.048C181.068 64.048 181.535 63.9173 181.908 63.656C182.281 63.3947 182.538 63.0213 182.678 62.536H184.05C183.845 63.32 183.434 63.95 182.818 64.426C182.202 64.8927 181.432 65.126 180.508 65.126C179.78 65.126 179.131 64.9627 178.562 64.636C178.002 64.3093 177.563 63.8473 177.246 63.25C176.929 62.6527 176.77 61.9527 176.77 61.15ZM190.034 65L187.024 61.612V65H185.75V54.64H187.024V60.73L189.978 57.328H191.756L188.144 61.15L191.77 65H190.034ZM194.229 54.64V65H192.955V54.64H194.229ZM197.058 56.082C196.816 56.082 196.61 55.998 196.442 55.83C196.274 55.662 196.19 55.4567 196.19 55.214C196.19 54.9713 196.274 54.766 196.442 54.598C196.61 54.43 196.816 54.346 197.058 54.346C197.292 54.346 197.488 54.43 197.646 54.598C197.814 54.766 197.898 54.9713 197.898 55.214C197.898 55.4567 197.814 55.662 197.646 55.83C197.488 55.998 197.292 56.082 197.058 56.082ZM197.674 57.328V65H196.4V57.328H197.674ZM202.562 65.126C201.974 65.126 201.446 65.028 200.98 64.832C200.513 64.6267 200.144 64.3467 199.874 63.992C199.603 63.628 199.454 63.2127 199.426 62.746H200.742C200.779 63.1287 200.956 63.4413 201.274 63.684C201.6 63.9267 202.025 64.048 202.548 64.048C203.033 64.048 203.416 63.9407 203.696 63.726C203.976 63.5113 204.116 63.2407 204.116 62.914C204.116 62.578 203.966 62.3307 203.668 62.172C203.369 62.004 202.907 61.8407 202.282 61.682C201.712 61.5327 201.246 61.3833 200.882 61.234C200.527 61.0753 200.219 60.8467 199.958 60.548C199.706 60.24 199.58 59.8387 199.58 59.344C199.58 58.952 199.696 58.5927 199.93 58.266C200.163 57.9393 200.494 57.6827 200.924 57.496C201.353 57.3 201.843 57.202 202.394 57.202C203.243 57.202 203.929 57.4167 204.452 57.846C204.974 58.2753 205.254 58.8633 205.292 59.61H204.018C203.99 59.2087 203.826 58.8867 203.528 58.644C203.238 58.4013 202.846 58.28 202.352 58.28C201.894 58.28 201.53 58.378 201.26 58.574C200.989 58.77 200.854 59.0267 200.854 59.344C200.854 59.596 200.933 59.806 201.092 59.974C201.26 60.1327 201.465 60.2633 201.708 60.366C201.96 60.4593 202.305 60.5667 202.744 60.688C203.294 60.8373 203.742 60.9867 204.088 61.136C204.433 61.276 204.727 61.4907 204.97 61.78C205.222 62.0693 205.352 62.4473 205.362 62.914C205.362 63.334 205.245 63.712 205.012 64.048C204.778 64.384 204.447 64.65 204.018 64.846C203.598 65.0327 203.112 65.126 202.562 65.126ZM208.714 58.378V62.9C208.714 63.2733 208.793 63.5393 208.952 63.698C209.111 63.8473 209.386 63.922 209.778 63.922H210.716V65H209.568C208.859 65 208.327 64.8367 207.972 64.51C207.617 64.1833 207.44 63.6467 207.44 62.9V58.378H206.446V57.328H207.44V55.396H208.714V57.328H210.716V58.378H208.714ZM219.26 60.87C219.26 61.1127 219.246 61.3693 219.218 61.64H213.086C213.132 62.396 213.389 62.9887 213.856 63.418C214.332 63.838 214.906 64.048 215.578 64.048C216.128 64.048 216.586 63.922 216.95 63.67C217.323 63.4087 217.584 63.0633 217.734 62.634H219.106C218.9 63.3713 218.49 63.9733 217.874 64.44C217.258 64.8973 216.492 65.126 215.578 65.126C214.85 65.126 214.196 64.9627 213.618 64.636C213.048 64.3093 212.6 63.8473 212.274 63.25C211.947 62.6433 211.784 61.9433 211.784 61.15C211.784 60.3567 211.942 59.6613 212.26 59.064C212.577 58.4667 213.02 58.0093 213.59 57.692C214.168 57.3653 214.831 57.202 215.578 57.202C216.306 57.202 216.95 57.3607 217.51 57.678C218.07 57.9953 218.499 58.434 218.798 58.994C219.106 59.5447 219.26 60.17 219.26 60.87ZM217.944 60.604C217.944 60.1187 217.836 59.7033 217.622 59.358C217.407 59.0033 217.113 58.7373 216.74 58.56C216.376 58.3733 215.97 58.28 215.522 58.28C214.878 58.28 214.327 58.4853 213.87 58.896C213.422 59.3067 213.165 59.876 213.1 60.604H217.944ZM220.465 61.136C220.465 60.352 220.624 59.666 220.941 59.078C221.259 58.4807 221.693 58.0187 222.243 57.692C222.803 57.3653 223.429 57.202 224.119 57.202C224.717 57.202 225.272 57.342 225.785 57.622C226.299 57.8927 226.691 58.252 226.961 58.7V54.64H228.249V65H226.961V63.558C226.709 64.0153 226.336 64.3933 225.841 64.692C225.347 64.9813 224.768 65.126 224.105 65.126C223.424 65.126 222.803 64.958 222.243 64.622C221.693 64.286 221.259 63.8147 220.941 63.208C220.624 62.6013 220.465 61.9107 220.465 61.136ZM226.961 61.15C226.961 60.5713 226.845 60.0673 226.611 59.638C226.378 59.2087 226.061 58.882 225.659 58.658C225.267 58.4247 224.833 58.308 224.357 58.308C223.881 58.308 223.447 58.42 223.055 58.644C222.663 58.868 222.351 59.1947 222.117 59.624C221.884 60.0533 221.767 60.5573 221.767 61.136C221.767 61.724 221.884 62.2373 222.117 62.676C222.351 63.1053 222.663 63.4367 223.055 63.67C223.447 63.894 223.881 64.006 224.357 64.006C224.833 64.006 225.267 63.894 225.659 63.67C226.061 63.4367 226.378 63.1053 226.611 62.676C226.845 62.2373 226.961 61.7287 226.961 61.15ZM164.256 85L161.246 81.612V85H159.972V74.64H161.246V80.73L164.2 77.328H165.978L162.366 81.15L165.992 85H164.256ZM174.177 80.87C174.177 81.1127 174.163 81.3693 174.135 81.64H168.003C168.049 82.396 168.306 82.9887 168.773 83.418C169.249 83.838 169.823 84.048 170.495 84.048C171.045 84.048 171.503 83.922 171.867 83.67C172.24 83.4087 172.501 83.0633 172.651 82.634H174.023C173.817 83.3713 173.407 83.9733 172.791 84.44C172.175 84.8973 171.409 85.126 170.495 85.126C169.767 85.126 169.113 84.9627 168.535 84.636C167.965 84.3093 167.517 83.8473 167.191 83.25C166.864 82.6433 166.701 81.9433 166.701 81.15C166.701 80.3567 166.859 79.6613 167.177 79.064C167.494 78.4667 167.937 78.0093 168.507 77.692C169.085 77.3653 169.748 77.202 170.495 77.202C171.223 77.202 171.867 77.3607 172.427 77.678C172.987 77.9953 173.416 78.434 173.715 78.994C174.023 79.5447 174.177 80.17 174.177 80.87ZM172.861 80.604C172.861 80.1187 172.753 79.7033 172.539 79.358C172.324 79.0033 172.03 78.7373 171.657 78.56C171.293 78.3733 170.887 78.28 170.439 78.28C169.795 78.28 169.244 78.4853 168.787 78.896C168.339 79.3067 168.082 79.876 168.017 80.604H172.861ZM182.466 77.328L177.846 88.612H176.53L178.042 84.916L174.948 77.328H176.362L178.77 83.544L181.15 77.328H182.466ZM193.967 77.328L191.573 85H190.257L188.409 78.91L186.561 85H185.245L182.837 77.328H184.139L185.903 83.768L187.807 77.328H189.109L190.971 83.782L192.707 77.328H193.967ZM198.577 85.126C197.859 85.126 197.205 84.9627 196.617 84.636C196.039 84.3093 195.581 83.8473 195.245 83.25C194.919 82.6433 194.755 81.9433 194.755 81.15C194.755 80.366 194.923 79.6753 195.259 79.078C195.605 78.4713 196.071 78.0093 196.659 77.692C197.247 77.3653 197.905 77.202 198.633 77.202C199.361 77.202 200.019 77.3653 200.607 77.692C201.195 78.0093 201.657 78.4667 201.993 79.064C202.339 79.6613 202.511 80.3567 202.511 81.15C202.511 81.9433 202.334 82.6433 201.979 83.25C201.634 83.8473 201.163 84.3093 200.565 84.636C199.968 84.9627 199.305 85.126 198.577 85.126ZM198.577 84.006C199.035 84.006 199.464 83.8987 199.865 83.684C200.267 83.4693 200.589 83.1473 200.831 82.718C201.083 82.2887 201.209 81.766 201.209 81.15C201.209 80.534 201.088 80.0113 200.845 79.582C200.603 79.1527 200.285 78.8353 199.893 78.63C199.501 78.4153 199.077 78.308 198.619 78.308C198.153 78.308 197.723 78.4153 197.331 78.63C196.949 78.8353 196.641 79.1527 196.407 79.582C196.174 80.0113 196.057 80.534 196.057 81.15C196.057 81.7753 196.169 82.3027 196.393 82.732C196.627 83.1613 196.935 83.4833 197.317 83.698C197.7 83.9033 198.12 84.006 198.577 84.006ZM205.46 78.574C205.684 78.1353 206.002 77.7947 206.412 77.552C206.832 77.3093 207.341 77.188 207.938 77.188V78.504H207.602C206.174 78.504 205.46 79.2787 205.46 80.828V85H204.186V77.328H205.46V78.574ZM208.933 81.136C208.933 80.352 209.092 79.666 209.409 79.078C209.726 78.4807 210.16 78.0187 210.711 77.692C211.271 77.3653 211.896 77.202 212.587 77.202C213.184 77.202 213.74 77.342 214.253 77.622C214.766 77.8927 215.158 78.252 215.429 78.7V74.64H216.717V85H215.429V83.558C215.177 84.0153 214.804 84.3933 214.309 84.692C213.814 84.9813 213.236 85.126 212.573 85.126C211.892 85.126 211.271 84.958 210.711 84.622C210.16 84.286 209.726 83.8147 209.409 83.208C209.092 82.6013 208.933 81.9107 208.933 81.136ZM215.429 81.15C215.429 80.5713 215.312 80.0673 215.079 79.638C214.846 79.2087 214.528 78.882 214.127 78.658C213.735 78.4247 213.301 78.308 212.825 78.308C212.349 78.308 211.915 78.42 211.523 78.644C211.131 78.868 210.818 79.1947 210.585 79.624C210.352 80.0533 210.235 80.5573 210.235 81.136C210.235 81.724 210.352 82.2373 210.585 82.676C210.818 83.1053 211.131 83.4367 211.523 83.67C211.915 83.894 212.349 84.006 212.825 84.006C213.301 84.006 213.735 83.894 214.127 83.67C214.528 83.4367 214.846 83.1053 215.079 82.676C215.312 82.2373 215.429 81.7287 215.429 81.15ZM221.586 85.126C220.998 85.126 220.471 85.028 220.004 84.832C219.537 84.6267 219.169 84.3467 218.898 83.992C218.627 83.628 218.478 83.2127 218.45 82.746H219.766C219.803 83.1287 219.981 83.4413 220.298 83.684C220.625 83.9267 221.049 84.048 221.572 84.048C222.057 84.048 222.44 83.9407 222.72 83.726C223 83.5113 223.14 83.2407 223.14 82.914C223.14 82.578 222.991 82.3307 222.692 82.172C222.393 82.004 221.931 81.8407 221.306 81.682C220.737 81.5327 220.27 81.3833 219.906 81.234C219.551 81.0753 219.243 80.8467 218.982 80.548C218.73 80.24 218.604 79.8387 218.604 79.344C218.604 78.952 218.721 78.5927 218.954 78.266C219.187 77.9393 219.519 77.6827 219.948 77.496C220.377 77.3 220.867 77.202 221.418 77.202C222.267 77.202 222.953 77.4167 223.476 77.846C223.999 78.2753 224.279 78.8633 224.316 79.61H223.042C223.014 79.2087 222.851 78.8867 222.552 78.644C222.263 78.4013 221.871 78.28 221.376 78.28C220.919 78.28 220.555 78.378 220.284 78.574C220.013 78.77 219.878 79.0267 219.878 79.344C219.878 79.596 219.957 79.806 220.116 79.974C220.284 80.1327 220.489 80.2633 220.732 80.366C220.984 80.4593 221.329 80.5667 221.768 80.688C222.319 80.8373 222.767 80.9867 223.112 81.136C223.457 81.276 223.751 81.4907 223.994 81.78C224.246 82.0693 224.377 82.4473 224.386 82.914C224.386 83.334 224.269 83.712 224.036 84.048C223.803 84.384 223.471 84.65 223.042 84.846C222.622 85.0327 222.137 85.126 221.586 85.126Z" fill="black"/>
<path d="M355.4 28H354.126L349.002 20.23V28H347.728V18.228H349.002L354.126 25.984V18.228H355.4V28ZM364.572 23.87C364.572 24.1127 364.558 24.3693 364.53 24.64H358.398C358.445 25.396 358.701 25.9887 359.168 26.418C359.644 26.838 360.218 27.048 360.89 27.048C361.441 27.048 361.898 26.922 362.262 26.67C362.635 26.4087 362.897 26.0633 363.046 25.634H364.418C364.213 26.3713 363.802 26.9733 363.186 27.44C362.57 27.8973 361.805 28.126 360.89 28.126C360.162 28.126 359.509 27.9627 358.93 27.636C358.361 27.3093 357.913 26.8473 357.586 26.25C357.259 25.6433 357.096 24.9433 357.096 24.15C357.096 23.3567 357.255 22.6613 357.572 22.064C357.889 21.4667 358.333 21.0093 358.902 20.692C359.481 20.3653 360.143 20.202 360.89 20.202C361.618 20.202 362.262 20.3607 362.822 20.678C363.382 20.9953 363.811 21.434 364.11 21.994C364.418 22.5447 364.572 23.17 364.572 23.87ZM363.256 23.604C363.256 23.1187 363.149 22.7033 362.934 22.358C362.719 22.0033 362.425 21.7373 362.052 21.56C361.688 21.3733 361.282 21.28 360.834 21.28C360.19 21.28 359.639 21.4853 359.182 21.896C358.734 22.3067 358.477 22.876 358.412 23.604H363.256ZM369.418 20.202C370.08 20.202 370.659 20.3467 371.154 20.636C371.658 20.9253 372.031 21.2893 372.274 21.728V20.328H373.562V28.168C373.562 28.868 373.412 29.4887 373.114 30.03C372.815 30.5807 372.386 31.01 371.826 31.318C371.275 31.626 370.631 31.78 369.894 31.78C368.886 31.78 368.046 31.542 367.374 31.066C366.702 30.59 366.305 29.9413 366.184 29.12H367.444C367.584 29.5867 367.873 29.96 368.312 30.24C368.75 30.5293 369.278 30.674 369.894 30.674C370.594 30.674 371.163 30.4547 371.602 30.016C372.05 29.5773 372.274 28.9613 372.274 28.168V26.558C372.022 27.006 371.648 27.3793 371.154 27.678C370.659 27.9767 370.08 28.126 369.418 28.126C368.736 28.126 368.116 27.958 367.556 27.622C367.005 27.286 366.571 26.8147 366.254 26.208C365.936 25.6013 365.778 24.9107 365.778 24.136C365.778 23.352 365.936 22.666 366.254 22.078C366.571 21.4807 367.005 21.0187 367.556 20.692C368.116 20.3653 368.736 20.202 369.418 20.202ZM372.274 24.15C372.274 23.5713 372.157 23.0673 371.924 22.638C371.69 22.2087 371.373 21.882 370.972 21.658C370.58 21.4247 370.146 21.308 369.67 21.308C369.194 21.308 368.76 21.42 368.368 21.644C367.976 21.868 367.663 22.1947 367.43 22.624C367.196 23.0533 367.08 23.5573 367.08 24.136C367.08 24.724 367.196 25.2373 367.43 25.676C367.663 26.1053 367.976 26.4367 368.368 26.67C368.76 26.894 369.194 27.006 369.67 27.006C370.146 27.006 370.58 26.894 370.972 26.67C371.373 26.4367 371.69 26.1053 371.924 25.676C372.157 25.2373 372.274 24.7287 372.274 24.15ZM375.239 24.136C375.239 23.352 375.397 22.666 375.715 22.078C376.032 21.4807 376.466 21.0187 377.017 20.692C377.577 20.3653 378.197 20.202 378.879 20.202C379.551 20.202 380.134 20.3467 380.629 20.636C381.123 20.9253 381.492 21.2893 381.735 21.728V20.328H383.023V28H381.735V26.572C381.483 27.02 381.105 27.3933 380.601 27.692C380.106 27.9813 379.527 28.126 378.865 28.126C378.183 28.126 377.567 27.958 377.017 27.622C376.466 27.286 376.032 26.8147 375.715 26.208C375.397 25.6013 375.239 24.9107 375.239 24.136ZM381.735 24.15C381.735 23.5713 381.618 23.0673 381.385 22.638C381.151 22.2087 380.834 21.882 380.433 21.658C380.041 21.4247 379.607 21.308 379.131 21.308C378.655 21.308 378.221 21.42 377.829 21.644C377.437 21.868 377.124 22.1947 376.891 22.624C376.657 23.0533 376.541 23.5573 376.541 24.136C376.541 24.724 376.657 25.2373 376.891 25.676C377.124 26.1053 377.437 26.4367 377.829 26.67C378.221 26.894 378.655 27.006 379.131 27.006C379.607 27.006 380.041 26.894 380.433 26.67C380.834 26.4367 381.151 26.1053 381.385 25.676C381.618 25.2373 381.735 24.7287 381.735 24.15ZM386.73 21.378V25.9C386.73 26.2733 386.809 26.5393 386.968 26.698C387.126 26.8473 387.402 26.922 387.794 26.922H388.732V28H387.584C386.874 28 386.342 27.8367 385.988 27.51C385.633 27.1833 385.456 26.6467 385.456 25.9V21.378H384.462V20.328H385.456V18.396H386.73V20.328H388.732V21.378H386.73ZM390.933 19.082C390.691 19.082 390.485 18.998 390.317 18.83C390.149 18.662 390.065 18.4567 390.065 18.214C390.065 17.9713 390.149 17.766 390.317 17.598C390.485 17.43 390.691 17.346 390.933 17.346C391.167 17.346 391.363 17.43 391.521 17.598C391.689 17.766 391.773 17.9713 391.773 18.214C391.773 18.4567 391.689 18.662 391.521 18.83C391.363 18.998 391.167 19.082 390.933 19.082ZM391.549 20.328V28H390.275V20.328H391.549ZM396.577 26.824L398.957 20.328H400.315L397.305 28H395.821L392.811 20.328H394.183L396.577 26.824ZM408.568 23.87C408.568 24.1127 408.554 24.3693 408.526 24.64H402.394C402.441 25.396 402.698 25.9887 403.164 26.418C403.64 26.838 404.214 27.048 404.886 27.048C405.437 27.048 405.894 26.922 406.258 26.67C406.632 26.4087 406.893 26.0633 407.042 25.634H408.414C408.209 26.3713 407.798 26.9733 407.182 27.44C406.566 27.8973 405.801 28.126 404.886 28.126C404.158 28.126 403.505 27.9627 402.926 27.636C402.357 27.3093 401.909 26.8473 401.582 26.25C401.256 25.6433 401.092 24.9433 401.092 24.15C401.092 23.3567 401.251 22.6613 401.568 22.064C401.886 21.4667 402.329 21.0093 402.898 20.692C403.477 20.3653 404.14 20.202 404.886 20.202C405.614 20.202 406.258 20.3607 406.818 20.678C407.378 20.9953 407.808 21.434 408.106 21.994C408.414 22.5447 408.568 23.17 408.568 23.87ZM407.252 23.604C407.252 23.1187 407.145 22.7033 406.93 22.358C406.716 22.0033 406.422 21.7373 406.048 21.56C405.684 21.3733 405.278 21.28 404.83 21.28C404.186 21.28 403.636 21.4853 403.178 21.896C402.73 22.3067 402.474 22.876 402.408 23.604H407.252ZM420.982 23.87C420.982 24.1127 420.968 24.3693 420.94 24.64H414.808C414.855 25.396 415.112 25.9887 415.578 26.418C416.054 26.838 416.628 27.048 417.3 27.048C417.851 27.048 418.308 26.922 418.672 26.67C419.046 26.4087 419.307 26.0633 419.456 25.634H420.828C420.623 26.3713 420.212 26.9733 419.596 27.44C418.98 27.8973 418.215 28.126 417.3 28.126C416.572 28.126 415.919 27.9627 415.34 27.636C414.771 27.3093 414.323 26.8473 413.996 26.25C413.67 25.6433 413.506 24.9433 413.506 24.15C413.506 23.3567 413.665 22.6613 413.982 22.064C414.3 21.4667 414.743 21.0093 415.312 20.692C415.891 20.3653 416.554 20.202 417.3 20.202C418.028 20.202 418.672 20.3607 419.232 20.678C419.792 20.9953 420.222 21.434 420.52 21.994C420.828 22.5447 420.982 23.17 420.982 23.87ZM419.666 23.604C419.666 23.1187 419.559 22.7033 419.344 22.358C419.13 22.0033 418.836 21.7373 418.462 21.56C418.098 21.3733 417.692 21.28 417.244 21.28C416.6 21.28 416.05 21.4853 415.592 21.896C415.144 22.3067 414.888 22.876 414.822 23.604H419.666ZM426.668 28L424.848 25.144L423.098 28H421.768L424.246 24.192L421.768 20.328H423.21L425.03 23.17L426.766 20.328H428.096L425.632 24.122L428.11 28H426.668ZM428.887 24.136C428.887 23.352 429.046 22.666 429.363 22.078C429.68 21.4807 430.114 21.0187 430.665 20.692C431.225 20.3653 431.846 20.202 432.527 20.202C433.199 20.202 433.782 20.3467 434.277 20.636C434.772 20.9253 435.14 21.2893 435.383 21.728V20.328H436.671V28H435.383V26.572C435.131 27.02 434.753 27.3933 434.249 27.692C433.754 27.9813 433.176 28.126 432.513 28.126C431.832 28.126 431.216 27.958 430.665 27.622C430.114 27.286 429.68 26.8147 429.363 26.208C429.046 25.6013 428.887 24.9107 428.887 24.136ZM435.383 24.15C435.383 23.5713 435.266 23.0673 435.033 22.638C434.8 22.2087 434.482 21.882 434.081 21.658C433.689 21.4247 433.255 21.308 432.779 21.308C432.303 21.308 431.869 21.42 431.477 21.644C431.085 21.868 430.772 22.1947 430.539 22.624C430.306 23.0533 430.189 23.5573 430.189 24.136C430.189 24.724 430.306 25.2373 430.539 25.676C430.772 26.1053 431.085 26.4367 431.477 26.67C431.869 26.894 432.303 27.006 432.779 27.006C433.255 27.006 433.689 26.894 434.081 26.67C434.482 26.4367 434.8 26.1053 435.033 25.676C435.266 25.2373 435.383 24.7287 435.383 24.15ZM438.348 24.15C438.348 23.3567 438.507 22.666 438.824 22.078C439.141 21.4807 439.58 21.0187 440.14 20.692C440.709 20.3653 441.358 20.202 442.086 20.202C443.029 20.202 443.803 20.4307 444.41 20.888C445.026 21.3453 445.432 21.98 445.628 22.792H444.256C444.125 22.3253 443.869 21.9567 443.486 21.686C443.113 21.4153 442.646 21.28 442.086 21.28C441.358 21.28 440.77 21.532 440.322 22.036C439.874 22.5307 439.65 23.2353 439.65 24.15C439.65 25.074 439.874 25.788 440.322 26.292C440.77 26.796 441.358 27.048 442.086 27.048C442.646 27.048 443.113 26.9173 443.486 26.656C443.859 26.3947 444.116 26.0213 444.256 25.536H445.628C445.423 26.32 445.012 26.95 444.396 27.426C443.78 27.8927 443.01 28.126 442.086 28.126C441.358 28.126 440.709 27.9627 440.14 27.636C439.58 27.3093 439.141 26.8473 438.824 26.25C438.507 25.6527 438.348 24.9527 438.348 24.15ZM448.882 21.378V25.9C448.882 26.2733 448.961 26.5393 449.12 26.698C449.279 26.8473 449.554 26.922 449.946 26.922H450.884V28H449.736C449.027 28 448.495 27.8367 448.14 27.51C447.785 27.1833 447.608 26.6467 447.608 25.9V21.378H446.614V20.328H447.608V18.396H448.882V20.328H450.884V21.378H448.882Z" fill="black"/>
<path d="M355.4 95H354.126L349.002 87.23V95H347.728V85.228H349.002L354.126 92.984V85.228H355.4V95ZM364.572 90.87C364.572 91.1127 364.558 91.3693 364.53 91.64H358.398C358.445 92.396 358.701 92.9887 359.168 93.418C359.644 93.838 360.218 94.048 360.89 94.048C361.441 94.048 361.898 93.922 362.262 93.67C362.635 93.4087 362.897 93.0633 363.046 92.634H364.418C364.213 93.3713 363.802 93.9733 363.186 94.44C362.57 94.8973 361.805 95.126 360.89 95.126C360.162 95.126 359.509 94.9627 358.93 94.636C358.361 94.3093 357.913 93.8473 357.586 93.25C357.259 92.6433 357.096 91.9433 357.096 91.15C357.096 90.3567 357.255 89.6613 357.572 89.064C357.889 88.4667 358.333 88.0093 358.902 87.692C359.481 87.3653 360.143 87.202 360.89 87.202C361.618 87.202 362.262 87.3607 362.822 87.678C363.382 87.9953 363.811 88.434 364.11 88.994C364.418 89.5447 364.572 90.17 364.572 90.87ZM363.256 90.604C363.256 90.1187 363.149 89.7033 362.934 89.358C362.719 89.0033 362.425 88.7373 362.052 88.56C361.688 88.3733 361.282 88.28 360.834 88.28C360.19 88.28 359.639 88.4853 359.182 88.896C358.734 89.3067 358.477 89.876 358.412 90.604H363.256ZM369.418 87.202C370.08 87.202 370.659 87.3467 371.154 87.636C371.658 87.9253 372.031 88.2893 372.274 88.728V87.328H373.562V95.168C373.562 95.868 373.412 96.4887 373.114 97.03C372.815 97.5807 372.386 98.01 371.826 98.318C371.275 98.626 370.631 98.78 369.894 98.78C368.886 98.78 368.046 98.542 367.374 98.066C366.702 97.59 366.305 96.9413 366.184 96.12H367.444C367.584 96.5867 367.873 96.96 368.312 97.24C368.75 97.5293 369.278 97.674 369.894 97.674C370.594 97.674 371.163 97.4547 371.602 97.016C372.05 96.5773 372.274 95.9613 372.274 95.168V93.558C372.022 94.006 371.648 94.3793 371.154 94.678C370.659 94.9767 370.08 95.126 369.418 95.126C368.736 95.126 368.116 94.958 367.556 94.622C367.005 94.286 366.571 93.8147 366.254 93.208C365.936 92.6013 365.778 91.9107 365.778 91.136C365.778 90.352 365.936 89.666 366.254 89.078C366.571 88.4807 367.005 88.0187 367.556 87.692C368.116 87.3653 368.736 87.202 369.418 87.202ZM372.274 91.15C372.274 90.5713 372.157 90.0673 371.924 89.638C371.69 89.2087 371.373 88.882 370.972 88.658C370.58 88.4247 370.146 88.308 369.67 88.308C369.194 88.308 368.76 88.42 368.368 88.644C367.976 88.868 367.663 89.1947 367.43 89.624C367.196 90.0533 367.08 90.5573 367.08 91.136C367.08 91.724 367.196 92.2373 367.43 92.676C367.663 93.1053 367.976 93.4367 368.368 93.67C368.76 93.894 369.194 94.006 369.67 94.006C370.146 94.006 370.58 93.894 370.972 93.67C371.373 93.4367 371.69 93.1053 371.924 92.676C372.157 92.2373 372.274 91.7287 372.274 91.15ZM375.239 91.136C375.239 90.352 375.397 89.666 375.715 89.078C376.032 88.4807 376.466 88.0187 377.017 87.692C377.577 87.3653 378.197 87.202 378.879 87.202C379.551 87.202 380.134 87.3467 380.629 87.636C381.123 87.9253 381.492 88.2893 381.735 88.728V87.328H383.023V95H381.735V93.572C381.483 94.02 381.105 94.3933 380.601 94.692C380.106 94.9813 379.527 95.126 378.865 95.126C378.183 95.126 377.567 94.958 377.017 94.622C376.466 94.286 376.032 93.8147 375.715 93.208C375.397 92.6013 375.239 91.9107 375.239 91.136ZM381.735 91.15C381.735 90.5713 381.618 90.0673 381.385 89.638C381.151 89.2087 380.834 88.882 380.433 88.658C380.041 88.4247 379.607 88.308 379.131 88.308C378.655 88.308 378.221 88.42 377.829 88.644C377.437 88.868 377.124 89.1947 376.891 89.624C376.657 90.0533 376.541 90.5573 376.541 91.136C376.541 91.724 376.657 92.2373 376.891 92.676C377.124 93.1053 377.437 93.4367 377.829 93.67C378.221 93.894 378.655 94.006 379.131 94.006C379.607 94.006 380.041 93.894 380.433 93.67C380.834 93.4367 381.151 93.1053 381.385 92.676C381.618 92.2373 381.735 91.7287 381.735 91.15ZM386.73 88.378V92.9C386.73 93.2733 386.809 93.5393 386.968 93.698C387.126 93.8473 387.402 93.922 387.794 93.922H388.732V95H387.584C386.874 95 386.342 94.8367 385.988 94.51C385.633 94.1833 385.456 93.6467 385.456 92.9V88.378H384.462V87.328H385.456V85.396H386.73V87.328H388.732V88.378H386.73ZM390.933 86.082C390.691 86.082 390.485 85.998 390.317 85.83C390.149 85.662 390.065 85.4567 390.065 85.214C390.065 84.9713 390.149 84.766 390.317 84.598C390.485 84.43 390.691 84.346 390.933 84.346C391.167 84.346 391.363 84.43 391.521 84.598C391.689 84.766 391.773 84.9713 391.773 85.214C391.773 85.4567 391.689 85.662 391.521 85.83C391.363 85.998 391.167 86.082 390.933 86.082ZM391.549 87.328V95H390.275V87.328H391.549ZM396.577 93.824L398.957 87.328H400.315L397.305 95H395.821L392.811 87.328H394.183L396.577 93.824ZM408.568 90.87C408.568 91.1127 408.554 91.3693 408.526 91.64H402.394C402.441 92.396 402.698 92.9887 403.164 93.418C403.64 93.838 404.214 94.048 404.886 94.048C405.437 94.048 405.894 93.922 406.258 93.67C406.632 93.4087 406.893 93.0633 407.042 92.634H408.414C408.209 93.3713 407.798 93.9733 407.182 94.44C406.566 94.8973 405.801 95.126 404.886 95.126C404.158 95.126 403.505 94.9627 402.926 94.636C402.357 94.3093 401.909 93.8473 401.582 93.25C401.256 92.6433 401.092 91.9433 401.092 91.15C401.092 90.3567 401.251 89.6613 401.568 89.064C401.886 88.4667 402.329 88.0093 402.898 87.692C403.477 87.3653 404.14 87.202 404.886 87.202C405.614 87.202 406.258 87.3607 406.818 87.678C407.378 87.9953 407.808 88.434 408.106 88.994C408.414 89.5447 408.568 90.17 408.568 90.87ZM407.252 90.604C407.252 90.1187 407.145 89.7033 406.93 89.358C406.716 89.0033 406.422 88.7373 406.048 88.56C405.684 88.3733 405.278 88.28 404.83 88.28C404.186 88.28 403.636 88.4853 403.178 88.896C402.73 89.3067 402.474 89.876 402.408 90.604H407.252ZM420.982 90.87C420.982 91.1127 420.968 91.3693 420.94 91.64H414.808C414.855 92.396 415.112 92.9887 415.578 93.418C416.054 93.838 416.628 94.048 417.3 94.048C417.851 94.048 418.308 93.922 418.672 93.67C419.046 93.4087 419.307 93.0633 419.456 92.634H420.828C420.623 93.3713 420.212 93.9733 419.596 94.44C418.98 94.8973 418.215 95.126 417.3 95.126C416.572 95.126 415.919 94.9627 415.34 94.636C414.771 94.3093 414.323 93.8473 413.996 93.25C413.67 92.6433 413.506 91.9433 413.506 91.15C413.506 90.3567 413.665 89.6613 413.982 89.064C414.3 88.4667 414.743 88.0093 415.312 87.692C415.891 87.3653 416.554 87.202 417.3 87.202C418.028 87.202 418.672 87.3607 419.232 87.678C419.792 87.9953 420.222 88.434 420.52 88.994C420.828 89.5447 420.982 90.17 420.982 90.87ZM419.666 90.604C419.666 90.1187 419.559 89.7033 419.344 89.358C419.13 89.0033 418.836 88.7373 418.462 88.56C418.098 88.3733 417.692 88.28 417.244 88.28C416.6 88.28 416.05 88.4853 415.592 88.896C415.144 89.3067 414.888 89.876 414.822 90.604H419.666ZM426.668 95L424.848 92.144L423.098 95H421.768L424.246 91.192L421.768 87.328H423.21L425.03 90.17L426.766 87.328H428.096L425.632 91.122L428.11 95H426.668ZM428.887 91.136C428.887 90.352 429.046 89.666 429.363 89.078C429.68 88.4807 430.114 88.0187 430.665 87.692C431.225 87.3653 431.846 87.202 432.527 87.202C433.199 87.202 433.782 87.3467 434.277 87.636C434.772 87.9253 435.14 88.2893 435.383 88.728V87.328H436.671V95H435.383V93.572C435.131 94.02 434.753 94.3933 434.249 94.692C433.754 94.9813 433.176 95.126 432.513 95.126C431.832 95.126 431.216 94.958 430.665 94.622C430.114 94.286 429.68 93.8147 429.363 93.208C429.046 92.6013 428.887 91.9107 428.887 91.136ZM435.383 91.15C435.383 90.5713 435.266 90.0673 435.033 89.638C434.8 89.2087 434.482 88.882 434.081 88.658C433.689 88.4247 433.255 88.308 432.779 88.308C432.303 88.308 431.869 88.42 431.477 88.644C431.085 88.868 430.772 89.1947 430.539 89.624C430.306 90.0533 430.189 90.5573 430.189 91.136C430.189 91.724 430.306 92.2373 430.539 92.676C430.772 93.1053 431.085 93.4367 431.477 93.67C431.869 93.894 432.303 94.006 432.779 94.006C433.255 94.006 433.689 93.894 434.081 93.67C434.482 93.4367 434.8 93.1053 435.033 92.676C435.266 92.2373 435.383 91.7287 435.383 91.15ZM438.348 91.15C438.348 90.3567 438.507 89.666 438.824 89.078C439.141 88.4807 439.58 88.0187 440.14 87.692C440.709 87.3653 441.358 87.202 442.086 87.202C443.029 87.202 443.803 87.4307 444.41 87.888C445.026 88.3453 445.432 88.98 445.628 89.792H444.256C444.125 89.3253 443.869 88.9567 443.486 88.686C443.113 88.4153 442.646 88.28 442.086 88.28C441.358 88.28 440.77 88.532 440.322 89.036C439.874 89.5307 439.65 90.2353 439.65 91.15C439.65 92.074 439.874 92.788 440.322 93.292C440.77 93.796 441.358 94.048 442.086 94.048C442.646 94.048 443.113 93.9173 443.486 93.656C443.859 93.3947 444.116 93.0213 444.256 92.536H445.628C445.423 93.32 445.012 93.95 444.396 94.426C443.78 94.8927 443.01 95.126 442.086 95.126C441.358 95.126 440.709 94.9627 440.14 94.636C439.58 94.3093 439.141 93.8473 438.824 93.25C438.507 92.6527 438.348 91.9527 438.348 91.15ZM448.882 88.378V92.9C448.882 93.2733 448.961 93.5393 449.12 93.698C449.279 93.8473 449.554 93.922 449.946 93.922H450.884V95H449.736C449.027 95 448.495 94.8367 448.14 94.51C447.785 94.1833 447.608 93.6467 447.608 92.9V88.378H446.614V87.328H447.608V85.396H448.882V87.328H450.884V88.378H448.882Z" fill="black"/>
<rect x="487.5" y="20.5" width="123" height="36" rx="3.5" fill="white"/>
<rect x="487.5" y="20.5" width="123" height="36" rx="3.5" stroke="#3C6CC3"/>
<path d="M519.397 40.83H515.141L514.357 43H513.013L516.541 33.298H518.011L521.525 43H520.181L519.397 40.83ZM519.033 39.794L517.269 34.866L515.505 39.794H519.033ZM522.586 39.136C522.586 38.352 522.745 37.666 523.062 37.078C523.38 36.4807 523.814 36.0187 524.364 35.692C524.924 35.3653 525.55 35.202 526.24 35.202C526.838 35.202 527.393 35.342 527.906 35.622C528.42 35.8927 528.812 36.252 529.082 36.7V32.64H530.37V43H529.082V41.558C528.83 42.0153 528.457 42.3933 527.962 42.692C527.468 42.9813 526.889 43.126 526.226 43.126C525.545 43.126 524.924 42.958 524.364 42.622C523.814 42.286 523.38 41.8147 523.062 41.208C522.745 40.6013 522.586 39.9107 522.586 39.136ZM529.082 39.15C529.082 38.5713 528.966 38.0673 528.732 37.638C528.499 37.2087 528.182 36.882 527.78 36.658C527.388 36.4247 526.954 36.308 526.478 36.308C526.002 36.308 525.568 36.42 525.176 36.644C524.784 36.868 524.472 37.1947 524.238 37.624C524.005 38.0533 523.888 38.5573 523.888 39.136C523.888 39.724 524.005 40.2373 524.238 40.676C524.472 41.1053 524.784 41.4367 525.176 41.67C525.568 41.894 526.002 42.006 526.478 42.006C526.954 42.006 527.388 41.894 527.78 41.67C528.182 41.4367 528.499 41.1053 528.732 40.676C528.966 40.2373 529.082 39.7287 529.082 39.15ZM539.42 35.202C540.082 35.202 540.661 35.3467 541.156 35.636C541.66 35.9253 542.033 36.2893 542.276 36.728V35.328H543.564V43.168C543.564 43.868 543.414 44.4887 543.116 45.03C542.817 45.5807 542.388 46.01 541.828 46.318C541.277 46.626 540.633 46.78 539.896 46.78C538.888 46.78 538.048 46.542 537.376 46.066C536.704 45.59 536.307 44.9413 536.186 44.12H537.446C537.586 44.5867 537.875 44.96 538.314 45.24C538.752 45.5293 539.28 45.674 539.896 45.674C540.596 45.674 541.165 45.4547 541.604 45.016C542.052 44.5773 542.276 43.9613 542.276 43.168V41.558C542.024 42.006 541.65 42.3793 541.156 42.678C540.661 42.9767 540.082 43.126 539.42 43.126C538.738 43.126 538.118 42.958 537.558 42.622C537.007 42.286 536.573 41.8147 536.256 41.208C535.938 40.6013 535.78 39.9107 535.78 39.136C535.78 38.352 535.938 37.666 536.256 37.078C536.573 36.4807 537.007 36.0187 537.558 35.692C538.118 35.3653 538.738 35.202 539.42 35.202ZM542.276 39.15C542.276 38.5713 542.159 38.0673 541.926 37.638C541.692 37.2087 541.375 36.882 540.974 36.658C540.582 36.4247 540.148 36.308 539.672 36.308C539.196 36.308 538.762 36.42 538.37 36.644C537.978 36.868 537.665 37.1947 537.432 37.624C537.198 38.0533 537.082 38.5573 537.082 39.136C537.082 39.724 537.198 40.2373 537.432 40.676C537.665 41.1053 537.978 41.4367 538.37 41.67C538.762 41.894 539.196 42.006 539.672 42.006C540.148 42.006 540.582 41.894 540.974 41.67C541.375 41.4367 541.692 41.1053 541.926 40.676C542.159 40.2373 542.276 39.7287 542.276 39.15ZM546.991 36.574C547.215 36.1353 547.532 35.7947 547.943 35.552C548.363 35.3093 548.871 35.188 549.469 35.188V36.504H549.133C547.705 36.504 546.991 37.2787 546.991 38.828V43H545.717V35.328H546.991V36.574ZM554.285 43.126C553.567 43.126 552.913 42.9627 552.325 42.636C551.747 42.3093 551.289 41.8473 550.953 41.25C550.627 40.6433 550.463 39.9433 550.463 39.15C550.463 38.366 550.631 37.6753 550.967 37.078C551.313 36.4713 551.779 36.0093 552.367 35.692C552.955 35.3653 553.613 35.202 554.341 35.202C555.069 35.202 555.727 35.3653 556.315 35.692C556.903 36.0093 557.365 36.4667 557.701 37.064C558.047 37.6613 558.219 38.3567 558.219 39.15C558.219 39.9433 558.042 40.6433 557.687 41.25C557.342 41.8473 556.871 42.3093 556.273 42.636C555.676 42.9627 555.013 43.126 554.285 43.126ZM554.285 42.006C554.743 42.006 555.172 41.8987 555.573 41.684C555.975 41.4693 556.297 41.1473 556.539 40.718C556.791 40.2887 556.917 39.766 556.917 39.15C556.917 38.534 556.796 38.0113 556.553 37.582C556.311 37.1527 555.993 36.8353 555.601 36.63C555.209 36.4153 554.785 36.308 554.327 36.308C553.861 36.308 553.431 36.4153 553.039 36.63C552.657 36.8353 552.349 37.1527 552.115 37.582C551.882 38.0113 551.765 38.534 551.765 39.15C551.765 39.7753 551.877 40.3027 552.101 40.732C552.335 41.1613 552.643 41.4833 553.025 41.698C553.408 41.9033 553.828 42.006 554.285 42.006ZM566.698 35.328V43H565.424V41.866C565.182 42.258 564.841 42.566 564.402 42.79C563.973 43.0047 563.497 43.112 562.974 43.112C562.377 43.112 561.84 42.9907 561.364 42.748C560.888 42.496 560.51 42.1227 560.23 41.628C559.96 41.1333 559.824 40.5313 559.824 39.822V35.328H561.084V39.654C561.084 40.41 561.276 40.9933 561.658 41.404C562.041 41.8053 562.564 42.006 563.226 42.006C563.908 42.006 564.444 41.796 564.836 41.376C565.228 40.956 565.424 40.3447 565.424 39.542V35.328H566.698ZM570.123 36.742C570.375 36.3033 570.749 35.9393 571.243 35.65C571.747 35.3513 572.331 35.202 572.993 35.202C573.675 35.202 574.291 35.3653 574.841 35.692C575.401 36.0187 575.84 36.4807 576.157 37.078C576.475 37.666 576.633 38.352 576.633 39.136C576.633 39.9107 576.475 40.6013 576.157 41.208C575.84 41.8147 575.401 42.286 574.841 42.622C574.291 42.958 573.675 43.126 572.993 43.126C572.34 43.126 571.761 42.9813 571.257 42.692C570.763 42.3933 570.385 42.0247 570.123 41.586V46.64H568.849V35.328H570.123V36.742ZM575.331 39.136C575.331 38.5573 575.215 38.0533 574.981 37.624C574.748 37.1947 574.431 36.868 574.029 36.644C573.637 36.42 573.203 36.308 572.727 36.308C572.261 36.308 571.827 36.4247 571.425 36.658C571.033 36.882 570.716 37.2133 570.473 37.652C570.24 38.0813 570.123 38.5807 570.123 39.15C570.123 39.7287 570.24 40.2373 570.473 40.676C570.716 41.1053 571.033 41.4367 571.425 41.67C571.827 41.894 572.261 42.006 572.727 42.006C573.203 42.006 573.637 41.894 574.029 41.67C574.431 41.4367 574.748 41.1053 574.981 40.676C575.215 40.2373 575.331 39.724 575.331 39.136ZM581.497 34.04V32.878H584.129V43H582.841V34.04H581.497Z" fill="black"/>
<rect x="487.5" y="84.5" width="123" height="36" rx="3.5" fill="white"/>
<rect x="487.5" y="84.5" width="123" height="36" rx="3.5" stroke="#3C6CC3"/>
<path d="M517.613 104.83H513.357L512.573 107H511.229L514.757 97.298H516.227L519.741 107H518.397L517.613 104.83ZM517.249 103.794L515.485 98.866L513.721 103.794H517.249ZM520.802 103.136C520.802 102.352 520.961 101.666 521.278 101.078C521.596 100.481 522.03 100.019 522.58 99.692C523.14 99.3653 523.766 99.202 524.456 99.202C525.054 99.202 525.609 99.342 526.122 99.622C526.636 99.8927 527.028 100.252 527.298 100.7V96.64H528.586V107H527.298V105.558C527.046 106.015 526.673 106.393 526.178 106.692C525.684 106.981 525.105 107.126 524.442 107.126C523.761 107.126 523.14 106.958 522.58 106.622C522.03 106.286 521.596 105.815 521.278 105.208C520.961 104.601 520.802 103.911 520.802 103.136ZM527.298 103.15C527.298 102.571 527.182 102.067 526.948 101.638C526.715 101.209 526.398 100.882 525.996 100.658C525.604 100.425 525.17 100.308 524.694 100.308C524.218 100.308 523.784 100.42 523.392 100.644C523 100.868 522.688 101.195 522.454 101.624C522.221 102.053 522.104 102.557 522.104 103.136C522.104 103.724 522.221 104.237 522.454 104.676C522.688 105.105 523 105.437 523.392 105.67C523.784 105.894 524.218 106.006 524.694 106.006C525.17 106.006 525.604 105.894 525.996 105.67C526.398 105.437 526.715 105.105 526.948 104.676C527.182 104.237 527.298 103.729 527.298 103.15ZM537.636 99.202C538.298 99.202 538.877 99.3467 539.372 99.636C539.876 99.9253 540.249 100.289 540.492 100.728V99.328H541.78V107.168C541.78 107.868 541.63 108.489 541.332 109.03C541.033 109.581 540.604 110.01 540.044 110.318C539.493 110.626 538.849 110.78 538.112 110.78C537.104 110.78 536.264 110.542 535.592 110.066C534.92 109.59 534.523 108.941 534.402 108.12H535.662C535.802 108.587 536.091 108.96 536.53 109.24C536.968 109.529 537.496 109.674 538.112 109.674C538.812 109.674 539.381 109.455 539.82 109.016C540.268 108.577 540.492 107.961 540.492 107.168V105.558C540.24 106.006 539.866 106.379 539.372 106.678C538.877 106.977 538.298 107.126 537.636 107.126C536.954 107.126 536.334 106.958 535.774 106.622C535.223 106.286 534.789 105.815 534.472 105.208C534.154 104.601 533.996 103.911 533.996 103.136C533.996 102.352 534.154 101.666 534.472 101.078C534.789 100.481 535.223 100.019 535.774 99.692C536.334 99.3653 536.954 99.202 537.636 99.202ZM540.492 103.15C540.492 102.571 540.375 102.067 540.142 101.638C539.908 101.209 539.591 100.882 539.19 100.658C538.798 100.425 538.364 100.308 537.888 100.308C537.412 100.308 536.978 100.42 536.586 100.644C536.194 100.868 535.881 101.195 535.648 101.624C535.414 102.053 535.298 102.557 535.298 103.136C535.298 103.724 535.414 104.237 535.648 104.676C535.881 105.105 536.194 105.437 536.586 105.67C536.978 105.894 537.412 106.006 537.888 106.006C538.364 106.006 538.798 105.894 539.19 105.67C539.591 105.437 539.908 105.105 540.142 104.676C540.375 104.237 540.492 103.729 540.492 103.15ZM545.206 100.574C545.43 100.135 545.748 99.7947 546.158 99.552C546.578 99.3093 547.087 99.188 547.684 99.188V100.504H547.348C545.92 100.504 545.206 101.279 545.206 102.828V107H543.932V99.328H545.206V100.574ZM552.501 107.126C551.782 107.126 551.129 106.963 550.541 106.636C549.962 106.309 549.505 105.847 549.169 105.25C548.842 104.643 548.679 103.943 548.679 103.15C548.679 102.366 548.847 101.675 549.183 101.078C549.528 100.471 549.995 100.009 550.583 99.692C551.171 99.3653 551.829 99.202 552.557 99.202C553.285 99.202 553.943 99.3653 554.531 99.692C555.119 100.009 555.581 100.467 555.917 101.064C556.262 101.661 556.435 102.357 556.435 103.15C556.435 103.943 556.258 104.643 555.903 105.25C555.558 105.847 555.086 106.309 554.489 106.636C553.892 106.963 553.229 107.126 552.501 107.126ZM552.501 106.006C552.958 106.006 553.388 105.899 553.789 105.684C554.19 105.469 554.512 105.147 554.755 104.718C555.007 104.289 555.133 103.766 555.133 103.15C555.133 102.534 555.012 102.011 554.769 101.582C554.526 101.153 554.209 100.835 553.817 100.63C553.425 100.415 553 100.308 552.543 100.308C552.076 100.308 551.647 100.415 551.255 100.63C550.872 100.835 550.564 101.153 550.331 101.582C550.098 102.011 549.981 102.534 549.981 103.15C549.981 103.775 550.093 104.303 550.317 104.732C550.55 105.161 550.858 105.483 551.241 105.698C551.624 105.903 552.044 106.006 552.501 106.006ZM564.914 99.328V107H563.64V105.866C563.398 106.258 563.057 106.566 562.618 106.79C562.189 107.005 561.713 107.112 561.19 107.112C560.593 107.112 560.056 106.991 559.58 106.748C559.104 106.496 558.726 106.123 558.446 105.628C558.176 105.133 558.04 104.531 558.04 103.822V99.328H559.3V103.654C559.3 104.41 559.492 104.993 559.874 105.404C560.257 105.805 560.78 106.006 561.442 106.006C562.124 106.006 562.66 105.796 563.052 105.376C563.444 104.956 563.64 104.345 563.64 103.542V99.328H564.914ZM568.339 100.742C568.591 100.303 568.965 99.9393 569.459 99.65C569.963 99.3513 570.547 99.202 571.209 99.202C571.891 99.202 572.507 99.3653 573.057 99.692C573.617 100.019 574.056 100.481 574.373 101.078C574.691 101.666 574.849 102.352 574.849 103.136C574.849 103.911 574.691 104.601 574.373 105.208C574.056 105.815 573.617 106.286 573.057 106.622C572.507 106.958 571.891 107.126 571.209 107.126C570.556 107.126 569.977 106.981 569.473 106.692C568.979 106.393 568.601 106.025 568.339 105.586V110.64H567.065V99.328H568.339V100.742ZM573.547 103.136C573.547 102.557 573.431 102.053 573.197 101.624C572.964 101.195 572.647 100.868 572.245 100.644C571.853 100.42 571.419 100.308 570.943 100.308C570.477 100.308 570.043 100.425 569.641 100.658C569.249 100.882 568.932 101.213 568.689 101.652C568.456 102.081 568.339 102.581 568.339 103.15C568.339 103.729 568.456 104.237 568.689 104.676C568.932 105.105 569.249 105.437 569.641 105.67C570.043 105.894 570.477 106.006 570.943 106.006C571.419 106.006 571.853 105.894 572.245 105.67C572.647 105.437 572.964 105.105 573.197 104.676C573.431 104.237 573.547 103.724 573.547 103.136ZM579.895 105.978C581.08 105.026 582.009 104.247 582.681 103.64C583.353 103.024 583.917 102.385 584.375 101.722C584.841 101.05 585.075 100.392 585.075 99.748C585.075 99.1413 584.925 98.6653 584.627 98.32C584.337 97.9653 583.866 97.788 583.213 97.788C582.578 97.788 582.083 97.9887 581.729 98.39C581.383 98.782 581.197 99.3093 581.169 99.972H579.937C579.974 98.9267 580.291 98.1193 580.889 97.55C581.486 96.9807 582.256 96.696 583.199 96.696C584.16 96.696 584.921 96.962 585.481 97.494C586.05 98.026 586.335 98.7587 586.335 99.692C586.335 100.467 586.101 101.223 585.635 101.96C585.177 102.688 584.655 103.332 584.067 103.892C583.479 104.443 582.727 105.087 581.813 105.824H586.629V106.888H579.895V105.978Z" fill="black"/>
</svg>
