<svg width="211" height="121" viewBox="0 0 211 121" fill="none" xmlns="http://www.w3.org/2000/svg">
<g clip-path="url(#clip0_22_1254)">
<path d="M90.9925 83.7846H36.1061L34.4016 71.5119H1.33337V111.057H211.333V30.6028H185.083H149.288L147.583 45.6028H92.697L90.9925 83.7846Z" fill="url(#paint0_linear_22_1254)"/>
<path d="M90.9925 83.7846H36.1061L34.4016 71.5119H1.33337V111.057H211.333V30.6028H185.083H149.288L147.583 45.6028H92.697L90.9925 83.7846Z" fill="url(#paint1_linear_22_1254)"/>
<path d="M1.33337 71.5119H34.4016L36.1061 83.7846H90.9925L92.697 45.6028H147.583L149.288 30.6028H185.083H211.333" stroke="url(#paint2_linear_22_1254)" stroke-width="1.36364"/>
<path d="M48.4718 68.0505V69.5846H44.245V68.0505H48.4718ZM54.6721 60.2921V62.6812H53.4416V60.2921H54.6721ZM54.5203 73.3399V75.4812H53.2978V73.3399H54.5203ZM55.7268 70.7591C55.7268 70.4502 55.6628 70.1812 55.535 69.9521C55.4125 69.7178 55.2101 69.5073 54.9277 69.3209C54.6454 69.1292 54.2672 68.9507 53.7932 68.7856C53.1113 68.5459 52.5147 68.2769 52.0034 67.9786C51.4973 67.675 51.1032 67.3021 50.8209 66.86C50.5439 66.4125 50.4054 65.8559 50.4054 65.1901C50.4054 64.5349 50.5545 63.9676 50.8528 63.4882C51.1564 63.0088 51.5772 62.6386 52.1152 62.3776C52.6532 62.1165 53.2818 61.986 54.0009 61.986C54.5549 61.986 55.0529 62.0686 55.495 62.2337C55.9425 62.3989 56.3233 62.6412 56.6376 62.9608C56.9519 63.2804 57.1916 63.6746 57.3567 64.1434C57.5272 64.6068 57.6124 65.1394 57.6124 65.7414H55.6948C55.6948 65.4005 55.6548 65.0968 55.5749 64.8305C55.5004 64.5588 55.3885 64.3298 55.2394 64.1434C55.0902 63.9516 54.9091 63.8051 54.696 63.7039C54.4883 63.6027 54.2513 63.5521 53.9849 63.5521C53.6067 63.5521 53.2951 63.624 53.0501 63.7678C52.8051 63.9063 52.6239 64.0981 52.5068 64.3431C52.3949 64.5881 52.339 64.8678 52.339 65.1821C52.339 65.4857 52.3976 65.752 52.5147 65.9811C52.6319 66.2101 52.8317 66.4179 53.114 66.6043C53.4016 66.7854 53.7958 66.9692 54.2965 67.1556C54.9837 67.4006 55.5776 67.675 56.0783 67.9786C56.5844 68.2769 56.9732 68.6471 57.2449 69.0892C57.5219 69.526 57.6603 70.0773 57.6603 70.7431C57.6603 71.4303 57.5005 72.0136 57.1809 72.493C56.8667 72.9724 56.4245 73.3372 55.8546 73.5876C55.29 73.8326 54.6321 73.9551 53.881 73.9551C53.407 73.9551 52.9356 73.8939 52.4668 73.7714C52.0034 73.6435 51.5826 73.4358 51.2044 73.1481C50.8262 72.8605 50.5252 72.4796 50.3015 72.0056C50.0778 71.5262 49.9659 70.9402 49.9659 70.2478H51.8995C51.8995 70.6632 51.9554 71.0095 52.0673 71.2865C52.1792 71.5635 52.331 71.7818 52.5227 71.9417C52.7145 72.1015 52.9276 72.216 53.1619 72.2852C53.4016 72.3545 53.6413 72.3891 53.881 72.3891C54.2806 72.3891 54.6161 72.3225 54.8878 72.1893C55.1648 72.0508 55.3725 71.8591 55.511 71.6141C55.6548 71.3637 55.7268 71.0787 55.7268 70.7591ZM66.9288 66.9958V68.8974C66.9288 69.8083 66.8383 70.586 66.6571 71.2305C66.4814 71.8697 66.2257 72.3891 65.8901 72.7886C65.5545 73.1881 65.1524 73.4811 64.6836 73.6675C64.2202 73.8539 63.7008 73.9472 63.1255 73.9472C62.6674 73.9472 62.2413 73.8886 61.8471 73.7714C61.4583 73.6542 61.1067 73.4704 60.7924 73.2201C60.4782 72.9697 60.2092 72.6474 59.9855 72.2533C59.7671 71.8538 59.5966 71.377 59.4741 70.823C59.3569 70.2691 59.2983 69.6272 59.2983 68.8974V66.9958C59.2983 66.0796 59.3889 65.3072 59.57 64.6787C59.7511 64.0448 60.0094 63.5308 60.345 63.1366C60.6806 62.7371 61.0801 62.4468 61.5435 62.2657C62.0123 62.0846 62.5343 61.994 63.1096 61.994C63.573 61.994 63.9991 62.0526 64.388 62.1698C64.7821 62.2817 65.1337 62.4601 65.4427 62.7051C65.7569 62.9502 66.0233 63.2698 66.2417 63.664C66.4654 64.0528 66.6358 64.5242 66.753 65.0782C66.8702 65.6268 66.9288 66.266 66.9288 66.9958ZM65.0032 69.1691V66.7082C65.0032 66.2447 64.9766 65.8372 64.9233 65.4857C64.87 65.1288 64.7901 64.8278 64.6836 64.5828C64.5824 64.3325 64.4546 64.13 64.3001 63.9756C64.1456 63.8158 63.9698 63.7012 63.7727 63.632C63.5757 63.5574 63.3546 63.5201 63.1096 63.5201C62.8113 63.5201 62.5449 63.5787 62.3106 63.6959C62.0762 63.8078 61.8791 63.9889 61.7193 64.2392C61.5595 64.4896 61.437 64.8198 61.3518 65.23C61.2719 65.6348 61.2319 66.1276 61.2319 66.7082V69.1691C61.2319 69.6379 61.2585 70.0507 61.3118 70.4076C61.3651 70.7644 61.445 71.0707 61.5515 71.3264C61.658 71.5768 61.7859 71.7845 61.935 71.9496C62.0895 72.1094 62.2653 72.2266 62.4624 72.3012C62.6648 72.3758 62.8858 72.4131 63.1255 72.4131C63.4292 72.4131 63.6982 72.3545 63.9325 72.2373C64.1669 72.1201 64.364 71.9337 64.5238 71.678C64.6836 71.417 64.8035 71.0787 64.8834 70.6632C64.9633 70.2478 65.0032 69.7497 65.0032 69.1691ZM68.8384 72.8285C68.8384 72.5303 68.9396 72.2799 69.1421 72.0775C69.3445 71.8697 69.6188 71.7659 69.965 71.7659C70.3166 71.7659 70.5909 71.8697 70.788 72.0775C70.9904 72.2799 71.0916 72.5303 71.0916 72.8285C71.0916 73.1268 70.9904 73.3772 70.788 73.5796C70.5909 73.782 70.3166 73.8832 69.965 73.8832C69.6188 73.8832 69.3445 73.782 69.1421 73.5796C68.9396 73.3772 68.8384 73.1268 68.8384 72.8285ZM78.4585 62.1139V73.7874H76.5329V64.399L73.6804 65.3658V63.7758L78.2267 62.1139H78.4585Z" fill="#212529"/>
<path d="M108.016 30.5944V32.3282H100.042V30.5944H108.016ZM104.964 27.3345V35.8039H103.102V27.3345H104.964ZM114.113 23.4753V25.8643H112.882V23.4753H114.113ZM113.961 36.523V38.6644H112.738V36.523H113.961ZM115.167 33.9422C115.167 33.6333 115.103 33.3643 114.976 33.1352C114.853 32.9009 114.651 32.6905 114.368 32.504C114.086 32.3123 113.708 32.1338 113.234 31.9687C112.552 31.729 111.955 31.46 111.444 31.1617C110.938 30.8581 110.544 30.4852 110.261 30.0431C109.984 29.5956 109.846 29.039 109.846 28.3732C109.846 27.718 109.995 27.1507 110.293 26.6713C110.597 26.1919 111.018 25.8217 111.556 25.5607C112.094 25.2996 112.722 25.1691 113.441 25.1691C113.995 25.1691 114.493 25.2517 114.936 25.4168C115.383 25.582 115.764 25.8243 116.078 26.1439C116.392 26.4635 116.632 26.8577 116.797 27.3265C116.968 27.7899 117.053 28.3226 117.053 28.9245H115.135C115.135 28.5836 115.095 28.2799 115.015 28.0136C114.941 27.7419 114.829 27.5129 114.68 27.3265C114.531 27.1347 114.35 26.9882 114.137 26.887C113.929 26.7858 113.692 26.7352 113.425 26.7352C113.047 26.7352 112.736 26.8071 112.491 26.9509C112.246 27.0894 112.064 27.2812 111.947 27.5262C111.835 27.7712 111.78 28.0509 111.78 28.3652C111.78 28.6688 111.838 28.9351 111.955 29.1642C112.072 29.3932 112.272 29.601 112.555 29.7874C112.842 29.9685 113.236 30.1523 113.737 30.3387C114.424 30.5837 115.018 30.8581 115.519 31.1617C116.025 31.46 116.414 31.8302 116.685 32.2723C116.962 32.7091 117.101 33.2604 117.101 33.9262C117.101 34.6134 116.941 35.1967 116.621 35.6761C116.307 36.1555 115.865 36.5204 115.295 36.7707C114.731 37.0157 114.073 37.1383 113.322 37.1383C112.848 37.1383 112.376 37.077 111.907 36.9545C111.444 36.8266 111.023 36.6189 110.645 36.3313C110.267 36.0436 109.966 35.6628 109.742 35.1887C109.518 34.7093 109.406 34.1233 109.406 33.4309H111.34C111.34 33.8463 111.396 34.1926 111.508 34.4696C111.62 34.7466 111.772 34.965 111.963 35.1248C112.155 35.2846 112.368 35.3991 112.602 35.4683C112.842 35.5376 113.082 35.5722 113.322 35.5722C113.721 35.5722 114.057 35.5056 114.328 35.3724C114.605 35.234 114.813 35.0422 114.952 34.7972C115.095 34.5468 115.167 34.2618 115.167 33.9422ZM126.369 30.1789V32.0805C126.369 32.9914 126.279 33.7691 126.098 34.4136C125.922 35.0528 125.666 35.5722 125.331 35.9717C124.995 36.3712 124.593 36.6642 124.124 36.8506C123.661 37.037 123.141 37.1303 122.566 37.1303C122.108 37.1303 121.682 37.0717 121.288 36.9545C120.899 36.8373 120.547 36.6535 120.233 36.4032C119.919 36.1528 119.65 35.8305 119.426 35.4364C119.208 35.0369 119.037 34.5601 118.915 34.0061C118.797 33.4522 118.739 32.8103 118.739 32.0805V30.1789C118.739 29.2627 118.829 28.4903 119.011 27.8618C119.192 27.2279 119.45 26.7139 119.786 26.3197C120.121 25.9202 120.521 25.6299 120.984 25.4488C121.453 25.2677 121.975 25.1771 122.55 25.1771C123.014 25.1771 123.44 25.2357 123.829 25.3529C124.223 25.4648 124.574 25.6432 124.883 25.8883C125.197 26.1333 125.464 26.4529 125.682 26.8471C125.906 27.2359 126.076 27.7073 126.194 28.2613C126.311 28.8099 126.369 29.4492 126.369 30.1789ZM124.444 32.3522V29.8913C124.444 29.4278 124.417 29.0204 124.364 28.6688C124.311 28.3119 124.231 28.0109 124.124 27.7659C124.023 27.5156 123.895 27.3131 123.741 27.1587C123.586 26.9989 123.41 26.8843 123.213 26.8151C123.016 26.7405 122.795 26.7032 122.55 26.7032C122.252 26.7032 121.985 26.7618 121.751 26.879C121.517 26.9909 121.32 27.172 121.16 27.4223C121 27.6727 120.878 28.003 120.792 28.4131C120.712 28.8179 120.672 29.3107 120.672 29.8913V32.3522C120.672 32.821 120.699 33.2338 120.752 33.5907C120.806 33.9476 120.886 34.2538 120.992 34.5095C121.099 34.7599 121.226 34.9676 121.376 35.1327C121.53 35.2925 121.706 35.4097 121.903 35.4843C122.105 35.5589 122.326 35.5962 122.566 35.5962C122.87 35.5962 123.139 35.5376 123.373 35.4204C123.607 35.3032 123.805 35.1168 123.964 34.8611C124.124 34.6001 124.244 34.2618 124.324 33.8463C124.404 33.4309 124.444 32.9328 124.444 32.3522ZM128.279 36.0117C128.279 35.7134 128.38 35.463 128.583 35.2606C128.785 35.0528 129.059 34.949 129.406 34.949C129.757 34.949 130.031 35.0528 130.229 35.2606C130.431 35.463 130.532 35.7134 130.532 36.0117C130.532 36.3099 130.431 36.5603 130.229 36.7627C130.031 36.9651 129.757 37.0663 129.406 37.0663C129.059 37.0663 128.785 36.9651 128.583 36.7627C128.38 36.5603 128.279 36.3099 128.279 36.0117ZM134.903 30.2828H136.053C136.501 30.2828 136.871 30.2055 137.164 30.0511C137.462 29.8966 137.683 29.6835 137.827 29.4119C137.971 29.1402 138.043 28.8286 138.043 28.477C138.043 28.1095 137.976 27.7952 137.843 27.5342C137.715 27.2679 137.518 27.0628 137.252 26.919C136.991 26.7751 136.658 26.7032 136.253 26.7032C135.912 26.7032 135.603 26.7725 135.326 26.911C135.055 27.0441 134.839 27.2359 134.679 27.4863C134.519 27.7313 134.439 28.0243 134.439 28.3652H132.506C132.506 27.7473 132.668 27.1986 132.993 26.7192C133.318 26.2398 133.76 25.8643 134.319 25.5926C134.884 25.3156 135.518 25.1771 136.221 25.1771C136.972 25.1771 137.627 25.3023 138.187 25.5527C138.751 25.7977 139.191 26.1652 139.505 26.6553C139.819 27.1454 139.976 27.7526 139.976 28.477C139.976 28.8073 139.899 29.1429 139.745 29.4838C139.59 29.8247 139.361 30.1363 139.058 30.4186C138.754 30.6956 138.376 30.922 137.923 31.0978C137.47 31.2682 136.946 31.3534 136.349 31.3534H134.903V30.2828ZM134.903 31.7849V30.7302H136.349C137.031 30.7302 137.611 30.8101 138.091 30.9699C138.575 31.1297 138.97 31.3508 139.273 31.6331C139.577 31.9101 139.798 32.227 139.936 32.5839C140.08 32.9408 140.152 33.319 140.152 33.7185C140.152 34.2618 140.054 34.7466 139.857 35.1727C139.665 35.5935 139.39 35.9504 139.034 36.2434C138.677 36.5363 138.259 36.7574 137.779 36.9065C137.305 37.0557 136.788 37.1303 136.229 37.1303C135.728 37.1303 135.249 37.061 134.791 36.9225C134.333 36.784 133.923 36.5789 133.56 36.3073C133.198 36.0303 132.911 35.6867 132.697 35.2766C132.49 34.8611 132.386 34.3817 132.386 33.8384H134.311C134.311 34.1846 134.391 34.4909 134.551 34.7572C134.716 35.0182 134.945 35.2233 135.238 35.3724C135.537 35.5216 135.878 35.5962 136.261 35.5962C136.666 35.5962 137.015 35.5243 137.308 35.3804C137.601 35.2366 137.824 35.0235 137.979 34.7412C138.139 34.4589 138.219 34.118 138.219 33.7185C138.219 33.2657 138.131 32.8982 137.955 32.6159C137.779 32.3336 137.529 32.1258 137.204 31.9927C136.879 31.8542 136.495 31.7849 136.053 31.7849H134.903Z" fill="#212529"/>
<path d="M166.653 15.5866V17.3204H158.679V15.5866H166.653ZM163.601 12.3266V20.7961H161.739V12.3266H163.601ZM172.749 8.46744V10.8565H171.519V8.46744H172.749ZM172.598 21.5152V23.6565H171.375V21.5152H172.598ZM173.804 18.9344C173.804 18.6255 173.74 18.3565 173.612 18.1274C173.49 17.893 173.287 17.6826 173.005 17.4962C172.723 17.3044 172.344 17.126 171.87 16.9609C171.189 16.7212 170.592 16.4522 170.081 16.1539C169.575 15.8503 169.18 15.4774 168.898 15.0353C168.621 14.5878 168.483 14.0312 168.483 13.3653C168.483 12.7102 168.632 12.1429 168.93 11.6635C169.234 11.1841 169.655 10.8139 170.193 10.5528C170.731 10.2918 171.359 10.1613 172.078 10.1613C172.632 10.1613 173.13 10.2439 173.572 10.409C174.02 10.5742 174.401 10.8165 174.715 11.1361C175.029 11.4557 175.269 11.8499 175.434 12.3186C175.604 12.7821 175.69 13.3147 175.69 13.9167H173.772C173.772 13.5758 173.732 13.2721 173.652 13.0058C173.578 12.7341 173.466 12.5051 173.317 12.3186C173.167 12.1269 172.986 11.9804 172.773 11.8792C172.566 11.778 172.329 11.7274 172.062 11.7274C171.684 11.7274 171.372 11.7993 171.127 11.9431C170.882 12.0816 170.701 12.2734 170.584 12.5184C170.472 12.7634 170.416 13.0431 170.416 13.3574C170.416 13.661 170.475 13.9273 170.592 14.1564C170.709 14.3854 170.909 14.5932 171.191 14.7796C171.479 14.9607 171.873 15.1445 172.374 15.3309C173.061 15.5759 173.655 15.8503 174.156 16.1539C174.662 16.4522 175.05 16.8224 175.322 17.2645C175.599 17.7013 175.738 18.2526 175.738 18.9184C175.738 19.6056 175.578 20.1889 175.258 20.6683C174.944 21.1477 174.502 21.5125 173.932 21.7629C173.367 22.0079 172.709 22.1304 171.958 22.1304C171.484 22.1304 171.013 22.0692 170.544 21.9467C170.081 21.8188 169.66 21.6111 169.282 21.3234C168.903 21.0358 168.602 20.6549 168.379 20.1809C168.155 19.7015 168.043 19.1155 168.043 18.4231H169.977C169.977 18.8385 170.033 19.1848 170.145 19.4618C170.256 19.7387 170.408 19.9571 170.6 20.1169C170.792 20.2767 171.005 20.3913 171.239 20.4605C171.479 20.5298 171.719 20.5644 171.958 20.5644C172.358 20.5644 172.693 20.4978 172.965 20.3646C173.242 20.2261 173.45 20.0344 173.588 19.7894C173.732 19.539 173.804 19.254 173.804 18.9344ZM185.006 15.1711V17.0727C185.006 17.9836 184.916 18.7613 184.734 19.4058C184.559 20.045 184.303 20.5644 183.967 20.9639C183.632 21.3634 183.23 21.6564 182.761 21.8428C182.297 22.0292 181.778 22.1224 181.203 22.1224C180.745 22.1224 180.319 22.0639 179.924 21.9467C179.536 21.8295 179.184 21.6457 178.87 21.3954C178.555 21.145 178.286 20.8227 178.063 20.4286C177.844 20.0291 177.674 19.5523 177.551 18.9983C177.434 18.4444 177.376 17.8025 177.376 17.0727V15.1711C177.376 14.2549 177.466 13.4825 177.647 12.854C177.828 12.2201 178.087 11.7061 178.422 11.3119C178.758 10.9124 179.157 10.6221 179.621 10.441C180.09 10.2599 180.612 10.1693 181.187 10.1693C181.65 10.1693 182.076 10.2279 182.465 10.3451C182.859 10.457 183.211 10.6354 183.52 10.8804C183.834 11.1255 184.101 11.4451 184.319 11.8392C184.543 12.2281 184.713 12.6995 184.83 13.2535C184.947 13.8021 185.006 14.4413 185.006 15.1711ZM183.08 17.3444V14.8835C183.08 14.42 183.054 14.0125 183.001 13.661C182.947 13.3041 182.867 13.0031 182.761 12.7581C182.66 12.5077 182.532 12.3053 182.377 12.1509C182.223 11.9911 182.047 11.8765 181.85 11.8073C181.653 11.7327 181.432 11.6954 181.187 11.6954C180.889 11.6954 180.622 11.754 180.388 11.8712C180.153 11.9831 179.956 12.1642 179.797 12.4145C179.637 12.6649 179.514 12.9951 179.429 13.4053C179.349 13.8101 179.309 14.3028 179.309 14.8835V17.3444C179.309 17.8131 179.336 18.226 179.389 18.5829C179.442 18.9397 179.522 19.246 179.629 19.5017C179.735 19.7521 179.863 19.9598 180.012 20.1249C180.167 20.2847 180.343 20.4019 180.54 20.4765C180.742 20.5511 180.963 20.5884 181.203 20.5884C181.506 20.5884 181.775 20.5298 182.01 20.4126C182.244 20.2954 182.441 20.109 182.601 19.8533C182.761 19.5923 182.881 19.254 182.961 18.8385C183.041 18.4231 183.08 17.925 183.08 17.3444ZM186.916 21.0038C186.916 20.7055 187.017 20.4552 187.219 20.2528C187.422 20.045 187.696 19.9412 188.042 19.9412C188.394 19.9412 188.668 20.045 188.865 20.2528C189.068 20.4552 189.169 20.7055 189.169 21.0038C189.169 21.3021 189.068 21.5525 188.865 21.7549C188.668 21.9573 188.394 22.0585 188.042 22.0585C187.696 22.0585 187.422 21.9573 187.219 21.7549C187.017 21.5525 186.916 21.3021 186.916 21.0038ZM196.536 10.2892V21.9626H194.61V12.5743L191.758 13.5411V11.9511L196.304 10.2892H196.536Z" fill="#212529"/>
</g>
<defs>
<linearGradient id="paint0_linear_22_1254" x1="-94.1212" y1="68.7801" x2="211.333" y2="68.7798" gradientUnits="userSpaceOnUse">
<stop offset="0.296154" stop-color="#E23D83"/>
<stop offset="1" stop-color="#748FDA"/>
</linearGradient>
<linearGradient id="paint1_linear_22_1254" x1="106.333" y1="26.5119" x2="106.333" y2="102.396" gradientUnits="userSpaceOnUse">
<stop stop-color="#EEEFF3" stop-opacity="0"/>
<stop offset="0.720624" stop-color="#F4F5F9" stop-opacity="0.84"/>
<stop offset="1" stop-color="#F4F5F9"/>
</linearGradient>
<linearGradient id="paint2_linear_22_1254" x1="1.35588" y1="53.7854" x2="212.383" y2="53.7854" gradientUnits="userSpaceOnUse">
<stop offset="0.296154" stop-color="#C60053"/>
<stop offset="0.484376" stop-color="#7400A3"/>
<stop offset="1" stop-color="#008DC7"/>
</linearGradient>
<clipPath id="clip0_22_1254">
<rect width="210" height="120" fill="white" transform="translate(0.333374 0.266357)"/>
</clipPath>
</defs>
</svg>
