<svg width="211" height="121" viewBox="0 0 211 121" fill="none" xmlns="http://www.w3.org/2000/svg">
<path fill-rule="evenodd" clip-rule="evenodd" d="M154.004 71.282C153.813 71.3049 153.619 71.3182 153.425 71.3216C126.359 71.8004 117.779 78.9662 108.971 86.3226C99.5071 94.2266 89.7795 102.351 56.5759 102.638V102.646H53.8486V80.8283H54.7456V80.8275C84.0105 80.8275 93.2995 73.3333 102.796 65.6716C108.786 60.8394 114.858 55.9406 126.076 52.8131C126.9 50.8459 128.843 49.4639 131.109 49.4639L155.907 49.4639C157.48 49.4639 158.976 50.1429 160.012 51.3266L166.356 58.577C167.256 59.6053 167.256 61.1406 166.356 62.1689L160.012 69.4193C158.976 70.6031 157.48 71.282 155.907 71.282H154.004Z" fill="url(#paint0_linear_22_2843)"/>
<path d="M36.8042 49.4639H186.695L202.933 60.373L186.695 71.282H36.8042V49.4639Z" fill="url(#paint1_linear_22_2843)"/>
<path fill-rule="evenodd" clip-rule="evenodd" d="M154.005 49.4662C153.814 49.4434 153.621 49.4302 153.427 49.4268C125.753 48.9398 116.259 41.5006 106.68 33.9949C96.7834 26.2403 86.796 18.4146 56.5752 18.1117V18.1019H11.5752V41.2838H54.7439V41.2844C83.8546 41.2844 92.8769 48.3774 102.147 55.6656C111.434 62.9666 120.97 70.4633 151.199 71.2216C151.47 71.263 151.747 71.2844 152.03 71.2844L205.659 71.2844L210.666 60.3753L205.659 49.4662H154.005Z" fill="url(#paint2_linear_22_2843)"/>
<circle cx="13.6215" cy="28.9018" r="12.9545" fill="white"/>
<path fill-rule="evenodd" clip-rule="evenodd" d="M16.8319 34.3725L21.924 29.2805L20.5631 27.9197L20.5585 27.9243L16.7817 24.1476L15.4209 25.5084L18.277 28.3645L5.53992 28.3645L5.53992 30.289L18.1938 30.289L15.4711 33.0117L16.8319 34.3725ZM19.1709 29.3119L19.1976 29.2852L19.1709 29.2585L19.1709 29.3119Z" fill="#E23D83"/>
<circle cx="34.0756" cy="60.2668" r="12.9545" fill="white"/>
<path fill-rule="evenodd" clip-rule="evenodd" d="M37.2867 65.7332L42.3787 60.6412L41.0178 59.2804L41.0113 59.2869L37.2364 55.512L35.8755 56.8728L38.7279 59.7252L25.9944 59.7252L25.9944 61.6497L38.6485 61.6497L35.9258 64.3724L37.2867 65.7332ZM39.6254 60.6728L39.6505 60.6478L39.6254 60.6227L39.6254 60.6728Z" fill="#E23D83"/>
<circle cx="54.5312" cy="91.6311" r="12.9545" fill="white"/>
<path fill-rule="evenodd" clip-rule="evenodd" d="M57.7432 97.1052L62.8352 92.0132L61.4743 90.6523L61.4695 90.6572L57.693 86.8807L56.3322 88.2415L59.1878 91.0971L46.451 91.0971L46.451 93.0216L59.105 93.0216L56.3823 95.7443L57.7432 97.1052ZM60.082 92.0447L60.1087 92.018L60.082 91.9913L60.082 92.0447Z" fill="#E23D83"/>
<defs>
<linearGradient id="paint0_linear_22_2843" x1="-17.2876" y1="25.2785" x2="284.507" y2="25.2843" gradientUnits="userSpaceOnUse">
<stop offset="0.0924647" stop-color="#EF3885"/>
<stop offset="0.348963" stop-color="#D14280"/>
<stop offset="0.692129" stop-color="#456FDC"/>
</linearGradient>
<linearGradient id="paint1_linear_22_2843" x1="-23.7258" y1="40.5815" x2="280.023" y2="38.7633" gradientUnits="userSpaceOnUse">
<stop offset="0.210918" stop-color="#EF3885"/>
<stop offset="0.367246" stop-color="#D14280"/>
<stop offset="0.90625" stop-color="#456FDC"/>
</linearGradient>
<linearGradient id="paint2_linear_22_2843" x1="-148.382" y1="91.8371" x2="401.981" y2="91.8168" gradientUnits="userSpaceOnUse">
<stop offset="0.210918" stop-color="#EF3885"/>
<stop offset="0.472761" stop-color="#D14280"/>
<stop offset="0.90625" stop-color="#456FDC"/>
</linearGradient>
</defs>
</svg>
