<svg width="211" height="121" viewBox="0 0 211 121" fill="none" xmlns="http://www.w3.org/2000/svg">
<path d="M1.68311 36.04L203.537 36.04L210.319 46.9491L203.537 57.8582H1.68311V36.04Z" fill="url(#paint0_linear_22_2813)"/>
<rect x="50.0913" y="36.0397" width="43.6364" height="21.8182" fill="#25293D" fill-opacity="0.8"/>
<path d="M71.3136 41.5841C71.3136 41.256 71.5821 40.9875 71.9102 40.9875C72.2383 40.9875 72.5068 41.256 72.5068 41.5841V46.6327L75.8216 48.8439C76.0938 49.0266 76.1684 49.3957 75.9857 49.6716C75.803 49.9438 75.4338 50.0184 75.1579 49.8357L71.5783 47.4493C71.4143 47.3375 71.2801 47.151 71.2801 46.9534L71.3136 41.5841ZM71.9102 37.408C77.1826 37.408 81.4557 41.681 81.4557 46.9534C81.4557 52.2258 77.1826 56.4989 71.9102 56.4989C66.6378 56.4989 62.3647 52.2258 62.3647 46.9534C62.3647 41.681 66.6378 37.408 71.9102 37.408ZM63.5579 46.9534C63.5579 51.5658 67.2978 55.3057 71.9102 55.3057C76.5226 55.3057 80.2625 51.5658 80.2625 46.9534C80.2625 42.341 76.5226 38.6011 71.9102 38.6011C67.2978 38.6011 63.5579 42.341 63.5579 46.9534Z" fill="#F5F6FA"/>
<rect x="115.546" y="36.0397" width="43.6364" height="21.8182" fill="#25293D" fill-opacity="0.8"/>
<path d="M136.767 41.5841C136.767 41.256 137.036 40.9875 137.364 40.9875C137.692 40.9875 137.96 41.256 137.96 41.5841V46.6327L141.275 48.8439C141.547 49.0266 141.622 49.3957 141.439 49.6716C141.257 49.9438 140.887 50.0184 140.612 49.8357L137.032 47.4493C136.868 47.3375 136.734 47.151 136.734 46.9534L136.767 41.5841ZM137.364 37.408C142.636 37.408 146.909 41.681 146.909 46.9534C146.909 52.2258 142.636 56.4989 137.364 56.4989C132.091 56.4989 127.818 52.2258 127.818 46.9534C127.818 41.681 132.091 37.408 137.364 37.408ZM129.012 46.9534C129.012 51.5658 132.751 55.3057 137.364 55.3057C141.976 55.3057 145.716 51.5658 145.716 46.9534C145.716 42.341 141.976 38.6011 137.364 38.6011C132.751 38.6011 129.012 42.341 129.012 46.9534Z" fill="#F5F6FA"/>
<path d="M1.68311 71.3411L203.537 71.3411L210.319 82.2502L203.537 93.1592H1.68311V71.3411Z" fill="url(#paint1_linear_22_2813)"/>
<rect x="66.6357" y="71.3406" width="77.825" height="22.5283" fill="#25293D" fill-opacity="0.8"/>
<path d="M105.281 76.8843C105.281 76.5561 105.549 76.2877 105.877 76.2877C106.206 76.2877 106.474 76.5561 106.474 76.8843V81.9329L109.789 84.144C110.061 84.3267 110.136 84.6959 109.953 84.9718C109.77 85.244 109.401 85.3186 109.125 85.1359L105.546 82.7495C105.382 82.6376 105.247 82.4512 105.247 82.2536L105.281 76.8843ZM105.877 72.7081C111.15 72.7081 115.423 76.9812 115.423 82.2536C115.423 87.526 111.15 91.799 105.877 91.799C100.605 91.799 96.332 87.526 96.332 82.2536C96.332 76.9812 100.605 72.7081 105.877 72.7081ZM97.5252 82.2536C97.5252 86.866 101.265 90.6059 105.877 90.6059C110.49 90.6059 114.23 86.866 114.23 82.2536C114.23 77.6412 110.49 73.9013 105.877 73.9013C101.265 73.9013 97.5252 77.6412 97.5252 82.2536Z" fill="#F5F6FA"/>
<defs>
<linearGradient id="paint0_linear_22_2813" x1="-125.817" y1="46.9488" x2="316.683" y2="46.9486" gradientUnits="userSpaceOnUse">
<stop offset="0.296154" stop-color="#EF3885"/>
<stop offset="0.484376" stop-color="#9F56BD"/>
<stop offset="1" stop-color="#4BC4F5"/>
</linearGradient>
<linearGradient id="paint1_linear_22_2813" x1="-125.817" y1="82.2498" x2="316.683" y2="82.2496" gradientUnits="userSpaceOnUse">
<stop offset="0.296154" stop-color="#EF3885"/>
<stop offset="0.484376" stop-color="#9F56BD"/>
<stop offset="1" stop-color="#4BC4F5"/>
</linearGradient>
</defs>
</svg>
