<svg width="211" height="121" viewBox="0 0 211 121" fill="none" xmlns="http://www.w3.org/2000/svg">
<g clip-path="url(#clip0_22_3200)">
<path d="M103.827 25.9224L102.114 88.253H49.0504L46.9924 57.8207H1.73047V130.046H212.749V56.0521H161.209L158.979 25.9224H103.827Z" fill="url(#paint0_linear_22_3200)"/>
<path d="M103.827 25.9224L102.114 88.253H49.0504L46.9924 57.8207H1.73047V130.046H212.749V56.0521H161.209L158.979 25.9224H103.827Z" fill="url(#paint1_linear_22_3200)"/>
<path d="M2.41602 57.8207H46.962L49.0506 87.57H102.114L103.827 25.8701H158.98L160.693 56.2772H212.749" stroke="url(#paint2_linear_22_3200)" stroke-width="1.37025"/>
<path d="M70.2802 72.8085C70.2802 72.5677 70.2427 72.3536 70.1678 72.1662C70.0982 71.9789 69.9724 71.8076 69.7905 71.6524C69.6085 71.4972 69.3515 71.3473 69.0197 71.2028C68.6932 71.0529 68.2757 70.9004 67.7672 70.7451C67.2105 70.5739 66.6967 70.3838 66.2257 70.1751C65.76 69.961 65.3532 69.7148 65.0053 69.4364C64.6574 69.1528 64.3871 68.8289 64.1944 68.465C64.0017 68.0956 63.9053 67.6701 63.9053 67.1884C63.9053 66.712 64.0044 66.2785 64.2024 65.8877C64.4058 65.497 64.6922 65.1598 65.0615 64.8761C65.4362 64.5871 65.8778 64.3649 66.3862 64.2097C66.8947 64.0491 67.4568 63.9688 68.0723 63.9688C68.9394 63.9688 69.6861 64.1294 70.3123 64.4506C70.9439 64.7717 71.4283 65.2026 71.7655 65.7432C72.1081 66.2838 72.2794 66.8806 72.2794 67.5336H70.2802C70.2802 67.1482 70.1972 66.8084 70.0313 66.514C69.8707 66.2142 69.6245 65.9787 69.2927 65.8074C68.9662 65.6361 68.5513 65.5505 68.0482 65.5505C67.5718 65.5505 67.1757 65.6228 66.8599 65.7673C66.5441 65.9118 66.3086 66.1072 66.1534 66.3534C65.9982 66.5996 65.9206 66.8779 65.9206 67.1884C65.9206 67.4078 65.9714 67.6086 66.0731 67.7905C66.1748 67.9672 66.33 68.1331 66.5388 68.2883C66.7475 68.4382 67.0098 68.58 67.3256 68.7139C67.6414 68.8477 68.0134 68.9761 68.4416 69.0992C69.0893 69.2919 69.654 69.506 70.1357 69.7415C70.6174 69.9717 71.0189 70.234 71.34 70.5284C71.6612 70.8227 71.902 71.1573 72.0626 71.532C72.2232 71.9013 72.3035 72.3215 72.3035 72.7925C72.3035 73.2849 72.2044 73.7292 72.0064 74.1253C71.8084 74.516 71.5247 74.8505 71.1554 75.1289C70.7914 75.4018 70.3525 75.6133 69.8386 75.7631C69.3301 75.9077 68.7628 75.9799 68.1365 75.9799C67.5745 75.9799 67.0205 75.905 66.4746 75.7551C65.934 75.6052 65.4415 75.3778 64.9973 75.0727C64.553 74.7622 64.1997 74.3768 63.9375 73.9165C63.6752 73.4508 63.5441 72.9076 63.5441 72.2867H65.5593C65.5593 72.6667 65.6235 72.9905 65.752 73.2582C65.8858 73.5258 66.0704 73.7452 66.306 73.9165C66.5415 74.0824 66.8144 74.2055 67.1249 74.2858C67.4407 74.3661 67.7779 74.4063 68.1365 74.4063C68.6075 74.4063 69.001 74.3394 69.3168 74.2055C69.6379 74.0717 69.8788 73.8844 70.0393 73.6435C70.1999 73.4027 70.2802 73.1243 70.2802 72.8085ZM78.7907 74.0771V69.9342C78.7907 69.6238 78.7345 69.3562 78.6221 69.1313C78.5097 68.9065 78.3384 68.7326 78.1083 68.6095C77.8835 68.4864 77.5998 68.4248 77.2572 68.4248C76.9414 68.4248 76.6685 68.4783 76.4383 68.5854C76.2081 68.6924 76.0288 68.837 75.9004 69.0189C75.7719 69.2009 75.7077 69.407 75.7077 69.6372H73.7808C73.7808 69.2946 73.8637 68.9627 74.0297 68.6416C74.1956 68.3204 74.4365 68.0341 74.7523 67.7825C75.0681 67.5309 75.4454 67.3329 75.8843 67.1884C76.3232 67.0439 76.8157 66.9716 77.3616 66.9716C78.0146 66.9716 78.5927 67.0813 79.0958 67.3008C79.6043 67.5202 80.0031 67.8521 80.2921 68.2964C80.5865 68.7353 80.7337 69.2866 80.7337 69.9503V73.8121C80.7337 74.2082 80.7605 74.5642 80.814 74.88C80.8729 75.1904 80.9558 75.4607 81.0629 75.6909V75.8193H79.0798C78.9888 75.6106 78.9165 75.3456 78.863 75.0245C78.8148 74.698 78.7907 74.3822 78.7907 74.0771ZM79.0717 70.5364L79.0878 71.7327H77.6988C77.3402 71.7327 77.0244 71.7675 76.7514 71.8371C76.4784 71.9013 76.251 71.9976 76.069 72.1261C75.887 72.2546 75.7505 72.4098 75.6595 72.5918C75.5685 72.7737 75.523 72.9798 75.523 73.21C75.523 73.4401 75.5765 73.6516 75.6836 73.8443C75.7906 74.0316 75.9459 74.1788 76.1493 74.2858C76.358 74.3929 76.6096 74.4464 76.904 74.4464C77.3001 74.4464 77.6453 74.3661 77.9397 74.2055C78.2394 74.0396 78.4749 73.8389 78.6462 73.6034C78.8175 73.3625 78.9085 73.135 78.9192 72.9209L79.5454 73.78C79.4812 73.9995 79.3715 74.235 79.2163 74.4866C79.061 74.7381 78.8576 74.979 78.6061 75.2091C78.3599 75.434 78.0628 75.6186 77.7149 75.7631C77.3723 75.9077 76.9762 75.9799 76.5266 75.9799C75.9592 75.9799 75.4534 75.8675 75.0092 75.6427C74.5649 75.4125 74.217 75.1048 73.9654 74.7194C73.7139 74.3287 73.5881 73.8871 73.5881 73.3946C73.5881 72.9343 73.6737 72.5275 73.845 72.1743C74.0216 71.8156 74.2786 71.5159 74.6158 71.275C74.9583 71.0342 75.3758 70.8522 75.8683 70.7291C76.3607 70.6006 76.9227 70.5364 77.5543 70.5364H79.0717ZM86.7392 67.1322V68.5452H81.8417V67.1322H86.7392ZM83.2547 65.0045H85.1897V73.4187C85.1897 73.6864 85.2272 73.8924 85.3021 74.0369C85.3824 74.1761 85.4921 74.2698 85.6313 74.318C85.7704 74.3661 85.9337 74.3902 86.121 74.3902C86.2548 74.3902 86.3833 74.3822 86.5064 74.3661C86.6295 74.3501 86.7285 74.334 86.8035 74.318L86.8115 75.7952C86.6509 75.8434 86.4636 75.8862 86.2495 75.9237C86.0407 75.9612 85.7999 75.9799 85.5269 75.9799C85.0826 75.9799 84.6892 75.9023 84.3467 75.7471C84.0041 75.5865 83.7365 75.3269 83.5438 74.9683C83.3511 74.6097 83.2547 74.1333 83.2547 73.5392V65.0045Z" fill="white"/>
<path d="M124.816 12.0991C124.816 11.8582 124.778 11.6441 124.703 11.4568C124.634 11.2694 124.508 11.0981 124.326 10.9429C124.144 10.7877 123.887 10.6378 123.555 10.4933C123.229 10.3434 122.811 10.1909 122.303 10.0357C121.746 9.86438 121.232 9.67437 120.761 9.46562C120.296 9.25152 119.889 9.0053 119.541 8.72697C119.193 8.44329 118.923 8.11946 118.73 7.75549C118.537 7.38616 118.441 6.96064 118.441 6.47891C118.441 6.00253 118.54 5.56898 118.738 5.17824C118.941 4.78751 119.228 4.4503 119.597 4.16662C119.972 3.87758 120.413 3.65545 120.922 3.50023C121.43 3.33965 121.992 3.25936 122.608 3.25936C123.475 3.25936 124.222 3.41994 124.848 3.74109C125.48 4.06224 125.964 4.49312 126.301 5.03373C126.644 5.57433 126.815 6.17114 126.815 6.82415H124.816C124.816 6.43876 124.733 6.09888 124.567 5.80449C124.406 5.50475 124.16 5.26924 123.828 5.09796C123.502 4.92667 123.087 4.84103 122.584 4.84103C122.107 4.84103 121.711 4.91329 121.396 5.05781C121.08 5.20233 120.844 5.3977 120.689 5.64391C120.534 5.89013 120.456 6.16846 120.456 6.47891C120.456 6.69836 120.507 6.89908 120.609 7.08107C120.71 7.2577 120.866 7.42363 121.074 7.57885C121.283 7.72872 121.545 7.87057 121.861 8.00438C122.177 8.13819 122.549 8.26665 122.977 8.38976C123.625 8.58245 124.19 8.79655 124.671 9.03207C125.153 9.26222 125.555 9.5245 125.876 9.81889C126.197 10.1133 126.438 10.4478 126.598 10.8225C126.759 11.1918 126.839 11.612 126.839 12.083C126.839 12.5754 126.74 13.0197 126.542 13.4158C126.344 13.8065 126.06 14.1411 125.691 14.4194C125.327 14.6924 124.888 14.9038 124.374 15.0537C123.866 15.1982 123.298 15.2704 122.672 15.2704C122.11 15.2704 121.556 15.1955 121.01 15.0456C120.47 14.8958 119.977 14.6683 119.533 14.3632C119.089 14.0527 118.735 13.6674 118.473 13.207C118.211 12.7414 118.08 12.1981 118.08 11.5772H120.095C120.095 11.9572 120.159 12.2811 120.288 12.5487C120.421 12.8163 120.606 13.0358 120.842 13.207C121.077 13.373 121.35 13.4961 121.661 13.5764C121.976 13.6567 122.314 13.6968 122.672 13.6968C123.143 13.6968 123.537 13.6299 123.852 13.4961C124.174 13.3623 124.414 13.1749 124.575 12.9341C124.736 12.6932 124.816 12.4149 124.816 12.0991ZM133.656 13.0625V6.42271H135.599V15.1099H133.768L133.656 13.0625ZM133.929 11.256L134.579 11.24C134.579 11.8234 134.515 12.3613 134.386 12.8538C134.258 13.3409 134.06 13.7664 133.792 14.1304C133.524 14.489 133.182 14.77 132.764 14.9734C132.347 15.1714 131.846 15.2704 131.263 15.2704C130.84 15.2704 130.452 15.2089 130.099 15.0858C129.746 14.9627 129.44 14.7727 129.184 14.5157C128.932 14.2588 128.737 13.9243 128.597 13.5121C128.458 13.1 128.389 12.6076 128.389 12.0348V6.42271H130.324V12.0509C130.324 12.3667 130.361 12.6316 130.436 12.8457C130.511 13.0545 130.613 13.2231 130.741 13.3516C130.87 13.48 131.019 13.571 131.191 13.6245C131.362 13.6781 131.544 13.7048 131.737 13.7048C132.288 13.7048 132.722 13.5978 133.037 13.3837C133.358 13.1642 133.586 12.8698 133.72 12.5005C133.859 12.1312 133.929 11.7164 133.929 11.256ZM139.501 8.27736V15.1099H137.566V6.42271H139.388L139.501 8.27736ZM139.155 10.4451L138.529 10.4371C138.534 9.82156 138.62 9.25687 138.786 8.74303C138.957 8.22919 139.193 7.7876 139.492 7.41828C139.798 7.04895 140.162 6.76527 140.584 6.56723C141.007 6.36383 141.478 6.26213 141.997 6.26213C142.415 6.26213 142.792 6.32101 143.13 6.43876C143.472 6.55117 143.764 6.73583 144.005 6.99275C144.251 7.24967 144.438 7.58421 144.567 7.99635C144.695 8.40314 144.759 8.9036 144.759 9.49774V15.1099H142.816V9.48971C142.816 9.07221 142.755 8.74303 142.632 8.50216C142.514 8.25595 142.34 8.08199 142.11 7.98029C141.885 7.87324 141.604 7.81972 141.267 7.81972C140.935 7.81972 140.638 7.8893 140.376 8.02847C140.113 8.16763 139.891 8.35765 139.709 8.59851C139.533 8.83937 139.396 9.11771 139.3 9.43351C139.203 9.7493 139.155 10.0865 139.155 10.4451Z" fill="white"/>
<path d="M171.963 32.2315H173.762L177.142 41.2478L180.514 32.2315H182.312L177.848 43.9214H176.419L171.963 32.2315ZM171.144 32.2315H172.854L173.152 40.0354V43.9214H171.144V32.2315ZM181.421 32.2315H183.139V43.9214H181.124V40.0354L181.421 32.2315ZM184.97 39.6742V39.4895C184.97 38.8632 185.061 38.2825 185.243 37.7472C185.425 37.2066 185.687 36.7383 186.03 36.3422C186.378 35.9408 186.8 35.6303 187.298 35.4109C187.801 35.1861 188.369 35.0737 189 35.0737C189.637 35.0737 190.205 35.1861 190.702 35.4109C191.206 35.6303 191.631 35.9408 191.979 36.3422C192.327 36.7383 192.592 37.2066 192.774 37.7472C192.956 38.2825 193.047 38.8632 193.047 39.4895V39.6742C193.047 40.3004 192.956 40.8811 192.774 41.4164C192.592 41.9517 192.327 42.42 191.979 42.8214C191.631 43.2175 191.208 43.528 190.71 43.7528C190.213 43.9722 189.648 44.082 189.016 44.082C188.379 44.082 187.809 43.9722 187.306 43.7528C186.808 43.528 186.386 43.2175 186.038 42.8214C185.69 42.42 185.425 41.9517 185.243 41.4164C185.061 40.8811 184.97 40.3004 184.97 39.6742ZM186.905 39.4895V39.6742C186.905 40.0649 186.945 40.4342 187.025 40.7821C187.106 41.13 187.231 41.4351 187.403 41.6974C187.574 41.9597 187.793 42.1658 188.061 42.3156C188.329 42.4655 188.647 42.5404 189.016 42.5404C189.375 42.5404 189.685 42.4655 189.948 42.3156C190.215 42.1658 190.435 41.9597 190.606 41.6974C190.777 41.4351 190.903 41.13 190.983 40.7821C191.069 40.4342 191.112 40.0649 191.112 39.6742V39.4895C191.112 39.1041 191.069 38.7401 190.983 38.3976C190.903 38.0497 190.775 37.7419 190.598 37.4743C190.427 37.2066 190.207 36.9979 189.94 36.848C189.677 36.6928 189.364 36.6152 189 36.6152C188.636 36.6152 188.321 36.6928 188.053 36.848C187.791 36.9979 187.574 37.2066 187.403 37.4743C187.231 37.7419 187.106 38.0497 187.025 38.3976C186.945 38.7401 186.905 39.1041 186.905 39.4895ZM196.588 37.0889V43.9214H194.653V35.2342H196.475L196.588 37.0889ZM196.242 39.2567L195.616 39.2486C195.621 38.6331 195.707 38.0684 195.873 37.5546C196.044 37.0407 196.28 36.5991 196.58 36.2298C196.885 35.8605 197.249 35.5768 197.671 35.3787C198.094 35.1754 198.565 35.0737 199.085 35.0737C199.502 35.0737 199.879 35.1325 200.217 35.2503C200.559 35.3627 200.851 35.5474 201.092 35.8043C201.338 36.0612 201.525 36.3957 201.654 36.8079C201.782 37.2147 201.846 37.7151 201.846 38.3093V43.9214H199.903V38.3012C199.903 37.8837 199.842 37.5546 199.719 37.3137C199.601 37.0675 199.427 36.8935 199.197 36.7918C198.972 36.6848 198.691 36.6312 198.354 36.6312C198.022 36.6312 197.725 36.7008 197.463 36.84C197.2 36.9792 196.978 37.1692 196.796 37.41C196.62 37.6509 196.483 37.9292 196.387 38.245C196.291 38.5608 196.242 38.898 196.242 39.2567Z" fill="white"/>
<path d="M17.7836 34.2891V45.979H15.7683V34.2891H17.7836ZM22.5527 39.4034V41.0012H17.2697V39.4034H22.5527ZM23.2191 34.2891V35.8948H17.2697V34.2891H23.2191ZM26.3663 38.9458V45.979H24.4314V37.2918H26.278L26.3663 38.9458ZM29.0239 37.2356L29.0078 39.0341C28.8901 39.0127 28.7616 38.9966 28.6224 38.9859C28.4886 38.9752 28.3548 38.9699 28.221 38.9699C27.8891 38.9699 27.5974 39.018 27.3459 39.1144C27.0943 39.2054 26.8829 39.3392 26.7116 39.5158C26.5457 39.6871 26.4172 39.8959 26.3262 40.1421C26.2352 40.3883 26.1817 40.6639 26.1656 40.969L25.724 41.0012C25.724 40.4552 25.7776 39.9494 25.8846 39.4837C25.9917 39.018 26.1522 38.6086 26.3663 38.2553C26.5858 37.902 26.8588 37.6264 27.1853 37.4283C27.5171 37.2303 27.8998 37.1313 28.3334 37.1313C28.4512 37.1313 28.5769 37.142 28.7108 37.1634C28.8499 37.1848 28.9543 37.2089 29.0239 37.2356ZM32.3077 37.2918V45.979H30.3647V37.2918H32.3077ZM30.2362 35.0117C30.2362 34.7173 30.3326 34.4737 30.5253 34.281C30.7233 34.083 30.9963 33.984 31.3442 33.984C31.6868 33.984 31.9571 34.083 32.1551 34.281C32.3532 34.4737 32.4522 34.7173 32.4522 35.0117C32.4522 35.3007 32.3532 35.5416 32.1551 35.7343C31.9571 35.927 31.6868 36.0233 31.3442 36.0233C30.9963 36.0233 30.7233 35.927 30.5253 35.7343C30.3326 35.5416 30.2362 35.3007 30.2362 35.0117Z" fill="white"/>
</g>
<defs>
<linearGradient id="paint0_linear_22_3200" x1="-94.1869" y1="87.5584" x2="212.749" y2="87.5582" gradientUnits="userSpaceOnUse">
<stop offset="0.296154" stop-color="#E23D83"/>
<stop offset="1" stop-color="#748FDA"/>
</linearGradient>
<linearGradient id="paint1_linear_22_3200" x1="107.24" y1="45.0902" x2="107.24" y2="108.755" gradientUnits="userSpaceOnUse">
<stop stop-color="#25293D" stop-opacity="0"/>
<stop offset="0.697534" stop-color="#25293D" stop-opacity="0.84"/>
<stop offset="1" stop-color="#25293D"/>
</linearGradient>
<linearGradient id="paint2_linear_22_3200" x1="1.7535" y1="84.826" x2="213.804" y2="84.826" gradientUnits="userSpaceOnUse">
<stop offset="0.155427" stop-color="#C60053"/>
<stop offset="0.484376" stop-color="#898EFF"/>
<stop offset="0.705427" stop-color="#00B5FF"/>
</linearGradient>
<clipPath id="clip0_22_3200">
<rect width="210" height="120" fill="white" transform="translate(0.666504 0.541992)"/>
</clipPath>
</defs>
</svg>
