<svg width="212" height="121" viewBox="0 0 212 121" fill="none" xmlns="http://www.w3.org/2000/svg">
<path d="M90.9926 63.5865H1.3335V105.177H211.333V31.541H147.583H92.6971L90.9926 63.5865Z" fill="url(#paint0_linear_22_2945)"/>
<path d="M90.9926 63.5865H1.3335V105.177H211.333V31.541H147.583H92.6971L90.9926 63.5865Z" fill="url(#paint1_linear_22_2945)"/>
<path d="M2.01562 62.9108H36.1065H90.9929L92.6974 32.229H147.584H149.288H211.334" stroke="url(#paint2_linear_22_2945)" stroke-width="1.36364"/>
<path d="M140.745 17.6288V19.3627H132.771V17.6288H140.745ZM137.692 14.3689V22.8383H135.831V14.3689H137.692ZM144.476 17.3172H145.627C146.074 17.3172 146.444 17.24 146.737 17.0855C147.035 16.931 147.256 16.718 147.4 16.4463C147.544 16.1746 147.616 15.863 147.616 15.5115C147.616 15.1439 147.549 14.8296 147.416 14.5686C147.288 14.3023 147.091 14.0972 146.825 13.9534C146.564 13.8096 146.231 13.7377 145.826 13.7377C145.485 13.7377 145.176 13.8069 144.899 13.9454C144.628 14.0786 144.412 14.2703 144.252 14.5207C144.092 14.7657 144.013 15.0587 144.013 15.3996H142.079C142.079 14.7817 142.241 14.233 142.566 13.7536C142.891 13.2742 143.333 12.8987 143.893 12.627C144.457 12.3501 145.091 12.2116 145.794 12.2116C146.545 12.2116 147.201 12.3367 147.76 12.5871C148.324 12.8321 148.764 13.1997 149.078 13.6897C149.392 14.1798 149.55 14.787 149.55 15.5115C149.55 15.8417 149.472 16.1773 149.318 16.5182C149.163 16.8591 148.934 17.1707 148.631 17.453C148.327 17.73 147.949 17.9564 147.496 18.1322C147.043 18.3026 146.519 18.3879 145.922 18.3879H144.476V17.3172ZM144.476 18.8193V17.7646H145.922C146.604 17.7646 147.185 17.8445 147.664 18.0043C148.149 18.1642 148.543 18.3852 148.847 18.6675C149.15 18.9445 149.371 19.2615 149.51 19.6183C149.653 19.9752 149.725 20.3534 149.725 20.7529C149.725 21.2963 149.627 21.781 149.43 22.2071C149.238 22.6279 148.964 22.9848 148.607 23.2778C148.25 23.5708 147.832 23.7918 147.352 23.941C146.878 24.0901 146.362 24.1647 145.802 24.1647C145.302 24.1647 144.822 24.0954 144.364 23.9569C143.906 23.8184 143.496 23.6134 143.134 23.3417C142.771 23.0647 142.484 22.7211 142.271 22.311C142.063 21.8955 141.959 21.4161 141.959 20.8728H143.885C143.885 21.219 143.965 21.5253 144.124 21.7916C144.29 22.0526 144.519 22.2577 144.812 22.4069C145.11 22.556 145.451 22.6306 145.834 22.6306C146.239 22.6306 146.588 22.5587 146.881 22.4149C147.174 22.271 147.398 22.058 147.552 21.7757C147.712 21.4933 147.792 21.1524 147.792 20.7529C147.792 20.3002 147.704 19.9326 147.528 19.6503C147.352 19.368 147.102 19.1602 146.777 19.0271C146.452 18.8886 146.069 18.8193 145.627 18.8193H144.476ZM153.537 18.5956L152.003 18.2201L152.634 12.3714H158.906V14.0013H154.232L153.912 16.8538C154.093 16.7472 154.344 16.6434 154.663 16.5422C154.983 16.4356 155.348 16.3824 155.758 16.3824C156.307 16.3824 156.797 16.4729 157.228 16.654C157.665 16.8298 158.035 17.0882 158.339 17.4291C158.642 17.7646 158.874 18.1748 159.034 18.6595C159.194 19.1389 159.274 19.6796 159.274 20.2815C159.274 20.8195 159.194 21.3229 159.034 21.7916C158.879 22.2604 158.645 22.6732 158.331 23.0301C158.016 23.387 157.62 23.6666 157.14 23.8691C156.666 24.0661 156.104 24.1647 155.454 24.1647C154.97 24.1647 154.503 24.0954 154.056 23.9569C153.614 23.8131 153.217 23.6027 152.866 23.3257C152.514 23.0434 152.232 22.6972 152.019 22.287C151.805 21.8715 151.683 21.3948 151.651 20.8568H153.537C153.585 21.235 153.688 21.5573 153.848 21.8236C154.013 22.0846 154.232 22.2844 154.503 22.4229C154.775 22.5613 155.089 22.6306 155.446 22.6306C155.771 22.6306 156.051 22.5747 156.285 22.4628C156.52 22.3456 156.714 22.1805 156.869 21.9674C157.028 21.749 157.146 21.4933 157.22 21.2004C157.3 20.9074 157.34 20.5825 157.34 20.2256C157.34 19.8847 157.295 19.5731 157.204 19.2907C157.119 19.0084 156.988 18.7634 156.813 18.5557C156.642 18.3479 156.426 18.1881 156.165 18.0763C155.904 17.9591 155.603 17.9005 155.263 17.9005C154.804 17.9005 154.453 17.9671 154.208 18.1002C153.968 18.2334 153.744 18.3985 153.537 18.5956ZM160.736 15.2238V14.6086C160.736 14.1665 160.832 13.7643 161.023 13.4021C161.215 13.0399 161.495 12.7496 161.862 12.5312C162.23 12.3128 162.672 12.2036 163.189 12.2036C163.721 12.2036 164.169 12.3128 164.531 12.5312C164.899 12.7496 165.178 13.0399 165.37 13.4021C165.562 13.7643 165.658 14.1665 165.658 14.6086V15.2238C165.658 15.6553 165.562 16.0521 165.37 16.4143C165.184 16.7765 164.907 17.0668 164.539 17.2852C164.177 17.5036 163.732 17.6128 163.205 17.6128C162.683 17.6128 162.235 17.5036 161.862 17.2852C161.495 17.0668 161.215 16.7765 161.023 16.4143C160.832 16.0521 160.736 15.6553 160.736 15.2238ZM162.07 14.6086V15.2238C162.07 15.4369 162.11 15.6393 162.19 15.8311C162.275 16.0228 162.403 16.1773 162.573 16.2945C162.744 16.4117 162.954 16.4703 163.205 16.4703C163.46 16.4703 163.668 16.4117 163.828 16.2945C163.993 16.1773 164.116 16.0228 164.195 15.8311C164.275 15.6393 164.315 15.4369 164.315 15.2238V14.6086C164.315 14.3902 164.273 14.1851 164.187 13.9933C164.108 13.7963 163.985 13.6391 163.82 13.5219C163.655 13.4047 163.444 13.3461 163.189 13.3461C162.944 13.3461 162.736 13.4047 162.565 13.5219C162.4 13.6391 162.275 13.7963 162.19 13.9933C162.11 14.1851 162.07 14.3902 162.07 14.6086ZM166.345 21.7757V21.1524C166.345 20.7156 166.441 20.3161 166.632 19.9539C166.829 19.5917 167.112 19.3014 167.479 19.083C167.847 18.8646 168.289 18.7554 168.806 18.7554C169.338 18.7554 169.786 18.8646 170.148 19.083C170.516 19.3014 170.793 19.5917 170.979 19.9539C171.171 20.3161 171.267 20.7156 171.267 21.1524V21.7757C171.267 22.2124 171.171 22.6119 170.979 22.9742C170.793 23.3364 170.518 23.6267 170.156 23.8451C169.794 24.0635 169.352 24.1727 168.83 24.1727C168.302 24.1727 167.852 24.0635 167.479 23.8451C167.112 23.6267 166.829 23.3364 166.632 22.9742C166.441 22.6119 166.345 22.2124 166.345 21.7757ZM167.687 21.1524V21.7757C167.687 21.9887 167.73 22.1911 167.815 22.3829C167.905 22.5747 168.036 22.7318 168.206 22.8543C168.377 22.9715 168.582 23.0301 168.822 23.0301C169.093 23.0301 169.312 22.9715 169.477 22.8543C169.642 22.7318 169.759 22.5773 169.828 22.3909C169.903 22.1991 169.94 21.9941 169.94 21.7757V21.1524C169.94 20.934 169.898 20.729 169.812 20.5372C169.733 20.3454 169.607 20.191 169.437 20.0738C169.272 19.9566 169.061 19.898 168.806 19.898C168.555 19.898 168.348 19.9566 168.182 20.0738C168.017 20.191 167.892 20.3454 167.807 20.5372C167.727 20.729 167.687 20.934 167.687 21.1524ZM169.285 14.0333L163.604 23.126L162.621 22.5587L168.302 13.466L169.285 14.0333Z" fill="#EAECF5"/>
<defs>
<linearGradient id="paint0_linear_22_2945" x1="-94.1211" y1="62.8846" x2="211.333" y2="62.8843" gradientUnits="userSpaceOnUse">
<stop offset="0.296154" stop-color="#E23D83"/>
<stop offset="1" stop-color="#748FDA"/>
</linearGradient>
<linearGradient id="paint1_linear_22_2945" x1="106.334" y1="20.6319" x2="106.334" y2="95.9659" gradientUnits="userSpaceOnUse">
<stop stop-color="#25293D" stop-opacity="0"/>
<stop offset="0.720624" stop-color="#25293D" stop-opacity="0.79"/>
<stop offset="1" stop-color="#25293D"/>
</linearGradient>
<linearGradient id="paint2_linear_22_2945" x1="1.35631" y1="60.181" x2="212.384" y2="60.1811" gradientUnits="userSpaceOnUse">
<stop offset="0.296154" stop-color="#C60053"/>
<stop offset="0.484376" stop-color="#7400A3"/>
<stop offset="1" stop-color="#008DC7"/>
</linearGradient>
</defs>
</svg>
