<svg width="211" height="121" viewBox="0 0 211 121" fill="none" xmlns="http://www.w3.org/2000/svg">
<path d="M1.68323 36.04L203.537 36.04L210.32 46.9491L203.537 57.8582H1.68323V36.04Z" fill="url(#paint0_linear_22_1235)"/>
<rect x="50.0917" y="36.0397" width="43.6364" height="21.8182" fill="white" fill-opacity="0.8"/>
<path d="M71.3139 41.5841C71.3139 41.256 71.5823 40.9875 71.9104 40.9875C72.2386 40.9875 72.507 41.256 72.507 41.5841V46.6327L75.8218 48.8439C76.094 49.0266 76.1686 49.3957 75.9859 49.6716C75.8032 49.9438 75.4341 50.0184 75.1581 49.8357L71.5786 47.4493C71.4145 47.3375 71.2803 47.151 71.2803 46.9534L71.3139 41.5841ZM71.9104 37.408C77.1828 37.408 81.4559 41.681 81.4559 46.9534C81.4559 52.2258 77.1828 56.4989 71.9104 56.4989C66.6381 56.4989 62.365 52.2258 62.365 46.9534C62.365 41.681 66.6381 37.408 71.9104 37.408ZM63.5582 46.9534C63.5582 51.5658 67.2981 55.3057 71.9104 55.3057C76.5228 55.3057 80.2627 51.5658 80.2627 46.9534C80.2627 42.341 76.5228 38.6011 71.9104 38.6011C67.2981 38.6011 63.5582 42.341 63.5582 46.9534Z" fill="#212529"/>
<rect x="115.547" y="36.0397" width="43.6364" height="21.8182" fill="white" fill-opacity="0.8"/>
<path d="M136.767 41.5841C136.767 41.256 137.036 40.9875 137.364 40.9875C137.692 40.9875 137.961 41.256 137.961 41.5841V46.6327L141.275 48.8439C141.548 49.0266 141.622 49.3957 141.44 49.6716C141.257 49.9438 140.888 50.0184 140.612 49.8357L137.032 47.4493C136.868 47.3375 136.734 47.151 136.734 46.9534L136.767 41.5841ZM137.364 37.408C142.636 37.408 146.91 41.681 146.91 46.9534C146.91 52.2258 142.636 56.4989 137.364 56.4989C132.092 56.4989 127.819 52.2258 127.819 46.9534C127.819 41.681 132.092 37.408 137.364 37.408ZM129.012 46.9534C129.012 51.5658 132.752 55.3057 137.364 55.3057C141.976 55.3057 145.716 51.5658 145.716 46.9534C145.716 42.341 141.976 38.6011 137.364 38.6011C132.752 38.6011 129.012 42.341 129.012 46.9534Z" fill="#212529"/>
<path d="M1.68335 71.3411L203.537 71.3411L210.32 82.2502L203.537 93.1592H1.68335V71.3411Z" fill="url(#paint1_linear_22_1235)"/>
<rect x="66.636" y="71.3406" width="77.825" height="22.5283" fill="white" fill-opacity="0.8"/>
<path d="M105.281 76.8843C105.281 76.5561 105.55 76.2877 105.878 76.2877C106.206 76.2877 106.474 76.5561 106.474 76.8843V81.9329L109.789 84.144C110.061 84.3267 110.136 84.6959 109.953 84.9718C109.77 85.244 109.401 85.3186 109.125 85.1359L105.546 82.7495C105.382 82.6376 105.248 82.4512 105.248 82.2536L105.281 76.8843ZM105.878 72.7081C111.15 72.7081 115.423 76.9812 115.423 82.2536C115.423 87.526 111.15 91.799 105.878 91.799C100.605 91.799 96.3323 87.526 96.3323 82.2536C96.3323 76.9812 100.605 72.7081 105.878 72.7081ZM97.5255 82.2536C97.5255 86.866 101.265 90.6059 105.878 90.6059C110.49 90.6059 114.23 86.866 114.23 82.2536C114.23 77.6412 110.49 73.9013 105.878 73.9013C101.265 73.9013 97.5255 77.6412 97.5255 82.2536Z" fill="#212529"/>
<defs>
<linearGradient id="paint0_linear_22_1235" x1="-125.817" y1="46.9488" x2="316.683" y2="46.9486" gradientUnits="userSpaceOnUse">
<stop offset="0.296154" stop-color="#EF3885"/>
<stop offset="0.484376" stop-color="#9F56BD"/>
<stop offset="1" stop-color="#4BC4F5"/>
</linearGradient>
<linearGradient id="paint1_linear_22_1235" x1="-125.817" y1="82.2498" x2="316.683" y2="82.2496" gradientUnits="userSpaceOnUse">
<stop offset="0.296154" stop-color="#EF3885"/>
<stop offset="0.484376" stop-color="#9F56BD"/>
<stop offset="1" stop-color="#4BC4F5"/>
</linearGradient>
</defs>
</svg>
