<svg width="211" height="121" viewBox="0 0 211 121" fill="none" xmlns="http://www.w3.org/2000/svg">
<path fill-rule="evenodd" clip-rule="evenodd" d="M151.89 71.4654C151.72 71.4826 151.549 71.4922 151.378 71.4939C124.312 71.7645 115.732 75.8133 106.924 79.9698C97.4599 84.4357 87.7325 89.026 54.53 89.1882V89.1962H46.3481V67.378H52.6983V67.3745C81.9632 67.3745 91.2522 63.1387 100.749 58.8081C106.922 55.9932 113.182 53.1383 125.074 51.3807C126.07 50.3141 127.488 49.6472 129.062 49.6472L153.86 49.6472C155.433 49.6472 156.929 50.3262 157.965 51.5099L164.309 58.7604C165.209 59.7886 165.209 61.324 164.309 62.3522L157.965 69.6027C156.929 70.7864 155.433 71.4654 153.86 71.4654H151.89Z" fill="url(#paint0_linear_22_2954)"/>
<rect x="36.8037" y="64.6052" width="25.9091" height="25.9091" rx="2.72727" fill="#4543BB"/>
<path d="M42.2578 76.8337L57.2578 76.8337V78.7582H42.2578V76.8337Z" fill="#EEEFF3"/>
<path fill-rule="evenodd" clip-rule="evenodd" d="M151.894 49.6493C151.725 49.6322 151.554 49.6226 151.382 49.6209C123.709 49.3457 114.215 45.1424 104.636 40.9016C94.7389 36.52 84.7514 32.0983 54.5299 31.9272V31.9195H10.8936V55.1013H52.6995V55.1039C81.8102 55.1039 90.8325 58.9728 100.103 62.9482C109.415 66.9412 118.977 71.0417 149.4 71.4365C149.592 71.457 149.787 71.4675 149.985 71.4675L203.614 71.4675L208.621 60.5584L203.614 49.6493H151.894Z" fill="url(#paint1_linear_22_2954)"/>
<rect x="2.71143" y="30.5118" width="25.9091" height="25.9091" rx="2.72727" fill="#4543BB"/>
<path d="M8.1665 42.7406L23.1665 42.7406V44.6651H8.1665V42.7406Z" fill="#EEEFF3"/>
<defs>
<linearGradient id="paint0_linear_22_2954" x1="-48.9684" y1="24.0801" x2="197.562" y2="24.8287" gradientUnits="userSpaceOnUse">
<stop offset="0.0692192" stop-color="#426AD1"/>
<stop offset="0.822917" stop-color="#62E4E4"/>
</linearGradient>
<linearGradient id="paint1_linear_22_2954" x1="-147.969" y1="97.716" x2="516.768" y2="97.6916" gradientUnits="userSpaceOnUse">
<stop offset="0.223958" stop-color="#426AD1"/>
<stop offset="0.822917" stop-color="#62E4E4"/>
</linearGradient>
</defs>
</svg>
