<svg width="211" height="121" viewBox="0 0 211 121" fill="none" xmlns="http://www.w3.org/2000/svg">
<path d="M4.89746 62.1677L82.5377 62.1677L83.8756 72.4246L82.5377 82.6815H4.89746V62.1677Z" fill="#E0E3EF"/>
<path fill-rule="evenodd" clip-rule="evenodd" d="M141.335 26.4064C138.314 26.4064 135.865 28.8551 135.865 31.8758V41.7341C134.703 42.787 133.582 43.8512 132.465 44.9116C123.44 53.478 114.685 61.7895 86.5415 61.7895V83.658C125.514 83.658 135.793 73.4308 145.294 63.9768C153.129 56.1816 160.435 48.9121 182.862 48.335C184.662 48.2887 186.4 47.4128 187.421 45.9305L191.168 40.4882C192.45 38.627 192.455 36.1693 191.181 34.3029L187.419 28.7921C186.4 27.2992 184.646 26.4001 182.838 26.4308C177.763 26.5168 173.256 26.826 169.228 27.3211C168.34 26.7304 167.288 26.4064 166.2 26.4064L141.335 26.4064Z" fill="url(#paint0_linear_22_1569)"/>
<mask id="mask0_22_1569" style="mask-type:alpha" maskUnits="userSpaceOnUse" x="67" y="51" width="43" height="45">
<path d="M108.152 72.657C102.748 87.2278 100.459 97.9789 87.1248 94.2858C73.7906 90.5928 73.9022 83.3824 68.6621 72.657C63.4219 61.9317 74.8163 53.6644 88.6633 51.5541C102.51 49.4438 113.555 58.0862 108.152 72.657Z" fill="#D9D9D9"/>
</mask>
<g mask="url(#mask0_22_1569)">
<circle cx="88.9436" cy="72.4427" r="12.9899" fill="#4441B3"/>
<path fill-rule="evenodd" clip-rule="evenodd" d="M92.1629 77.9295L97.2688 72.8236L95.9043 71.4591L95.8996 71.4637L92.1134 67.6775L90.7488 69.042L93.612 71.9052L80.8391 71.9052L80.8391 73.8349L93.5284 73.8349L90.7984 76.565L92.1629 77.9295ZM94.5073 72.856L94.5351 72.8283L94.5073 72.8005L94.5073 72.856Z" fill="#EEEFF3"/>
</g>
<path d="M4.14893 26.4061L199.807 26.4061L206.518 37.345L199.807 48.2839H4.14893V26.4061Z" fill="url(#paint1_linear_22_1569)"/>
<defs>
<linearGradient id="paint0_linear_22_1569" x1="-82.5032" y1="0.359997" x2="344.308" y2="0.370845" gradientUnits="userSpaceOnUse">
<stop offset="0.0924647" stop-color="#EF3885"/>
<stop offset="0.348963" stop-color="#D14280"/>
<stop offset="0.692129" stop-color="#456FDC"/>
</linearGradient>
<linearGradient id="paint1_linear_22_1569" x1="-69.5852" y1="17.4995" x2="246.171" y2="17.5212" gradientUnits="userSpaceOnUse">
<stop offset="0.210918" stop-color="#EF3885"/>
<stop offset="0.367246" stop-color="#D14280"/>
<stop offset="0.90625" stop-color="#778EDA"/>
</linearGradient>
</defs>
</svg>
