<svg width="350" height="136" viewBox="0 0 350 136" fill="none" xmlns="http://www.w3.org/2000/svg">
<path fill-rule="evenodd" clip-rule="evenodd" d="M94.0664 72.1291C78.7686 66.273 62.7121 60.1265 34.5728 60.1265V80.1686C61.4836 80.1686 74.9698 85.7967 88.4622 91.4274C101.753 96.9741 115.05 102.523 141.192 102.697C141.952 102.703 142.676 102.271 143.015 101.59L146.918 93.7382C147.268 93.0357 147.268 92.2102 146.918 91.5077L143.015 83.6562C142.676 82.9749 141.96 82.5454 141.2 82.5381C120.741 82.3404 107.705 77.3502 94.0664 72.1291ZM34.5728 60.1265H6.10352e-05V78.1645C6.10352e-05 79.2713 0.897376 80.1687 2.00427 80.1687H34.5728V60.1265Z" fill="url(#paint0_linear_22_6335)"/>
<path fill-rule="evenodd" clip-rule="evenodd" d="M132.06 40.0847C131.966 40.0845 131.872 40.0845 131.777 40.0845V40.0847H6.10352e-05V60.1268H132.06C158.783 60.1661 172.222 65.7745 185.667 71.3854C198.958 76.9321 212.255 82.4813 238.396 82.6555C239.157 82.6605 239.881 82.2289 240.22 81.5477L244.123 73.6962C244.472 72.9937 244.472 72.1682 244.123 71.4657L240.22 63.6142C239.881 62.9329 239.165 62.5034 238.404 62.4961C217.946 62.2985 204.91 57.3082 191.271 52.0871C176.064 46.2658 160.107 40.1576 132.278 40.0851V40.0847H132.06Z" fill="url(#paint1_linear_22_6335)"/>
<path fill-rule="evenodd" clip-rule="evenodd" d="M283.229 31.939C267.45 26.0882 250.889 19.9473 221.967 19.9473V20.0422H6.10352e-05V40.0843H221.967V40.1048C249.626 40.1048 263.541 45.699 277.461 51.2958C291.18 56.8114 304.905 62.3295 331.798 62.4981C332.559 62.5029 333.283 62.0713 333.622 61.39L337.636 53.3155C337.916 52.7535 337.916 52.0931 337.636 51.5311L333.622 43.4565C333.283 42.7753 332.567 42.3457 331.806 42.3388C310.757 42.1465 297.304 37.1582 283.229 31.939Z" fill="url(#paint2_linear_22_6335)"/>
<path d="M0 2.00421C0 0.897316 0.897317 0 2.00421 0H343.987C344.746 0 345.44 0.428907 345.78 1.1079L349.788 9.12476C350.07 9.689 350.07 10.3531 349.788 10.9174L345.78 18.9342C345.44 19.6132 344.746 20.0421 343.987 20.0421H0V2.00421Z" fill="url(#paint3_linear_22_6335)"/>
<path d="M16.5448 42V32.7882H17.9346V37.1872H18.0471L21.9108 32.7882H23.6605L19.9452 36.9353L23.674 42H22.0008L19.0231 37.8844L17.9346 39.1348V42H16.5448ZM27.3184 42.1394C26.6378 42.1394 26.0515 41.994 25.5597 41.7031C25.071 41.4093 24.6931 40.997 24.4263 40.4662C24.1624 39.9324 24.0304 39.3072 24.0304 38.5906C24.0304 37.8829 24.1624 37.2592 24.4263 36.7194C24.6931 36.1797 25.065 35.7584 25.5418 35.4555C26.0215 35.1526 26.5823 35.0012 27.224 35.0012C27.6138 35.0012 27.9916 35.0657 28.3575 35.1946C28.7233 35.3236 29.0517 35.526 29.3425 35.8018C29.6334 36.0777 29.8628 36.436 30.0307 36.8768C30.1986 37.3146 30.2826 37.8469 30.2826 38.4736V38.9504H24.7906V37.9429H28.9647C28.9647 37.589 28.8927 37.2757 28.7488 37.0028C28.6049 36.7269 28.4024 36.5095 28.1416 36.3506C27.8837 36.1917 27.5808 36.1122 27.233 36.1122C26.8552 36.1122 26.5253 36.2052 26.2434 36.3911C25.9646 36.574 25.7487 36.8139 25.5957 37.1107C25.4458 37.4046 25.3708 37.724 25.3708 38.0688V38.8559C25.3708 39.3177 25.4518 39.7105 25.6137 40.0344C25.7786 40.3583 26.008 40.6056 26.3019 40.7766C26.5958 40.9445 26.9391 41.0284 27.3319 41.0284C27.5868 41.0284 27.8192 40.9925 28.0291 40.9205C28.239 40.8455 28.4204 40.7346 28.5734 40.5876C28.7263 40.4407 28.8432 40.2593 28.9242 40.0434L30.1971 40.2728C30.0952 40.6476 29.9123 40.976 29.6484 41.2578C29.3875 41.5367 29.0591 41.7541 28.6633 41.91C28.2705 42.063 27.8222 42.1394 27.3184 42.1394ZM32.427 44.5908C32.2261 44.5908 32.0432 44.5743 31.8782 44.5413C31.7133 44.5114 31.5904 44.4784 31.5094 44.4424L31.8333 43.3404C32.0791 43.4064 32.298 43.4348 32.49 43.4258C32.6819 43.4169 32.8513 43.3449 32.9982 43.2099C33.1482 43.075 33.2801 42.8546 33.394 42.5487L33.5605 42.09L31.0326 35.0912H32.472L34.2217 40.4527H34.2936L36.0433 35.0912H37.4872L34.64 42.9221C34.508 43.2819 34.3401 43.5863 34.1362 43.8352C33.9323 44.087 33.6894 44.276 33.4075 44.4019C33.1257 44.5278 32.7988 44.5908 32.427 44.5908ZM40.2489 42L38.2158 35.0912H39.6057L40.9596 40.1648H41.027L42.3854 35.0912H43.7753L45.1247 40.1424H45.1921L46.537 35.0912H47.9269L45.8983 42H44.5264L43.1231 37.0118H43.0196L41.6163 42H40.2489ZM51.9031 42.1394C51.2554 42.1394 50.6901 41.991 50.2073 41.6941C49.7246 41.3973 49.3497 40.982 49.0829 40.4482C48.816 39.9145 48.6825 39.2907 48.6825 38.5771C48.6825 37.8604 48.816 37.2337 49.0829 36.6969C49.3497 36.1602 49.7246 35.7434 50.2073 35.4465C50.6901 35.1496 51.2554 35.0012 51.9031 35.0012C52.5508 35.0012 53.116 35.1496 53.5988 35.4465C54.0816 35.7434 54.4564 36.1602 54.7233 36.6969C54.9902 37.2337 55.1236 37.8604 55.1236 38.5771C55.1236 39.2907 54.9902 39.9145 54.7233 40.4482C54.4564 40.982 54.0816 41.3973 53.5988 41.6941C53.116 41.991 52.5508 42.1394 51.9031 42.1394ZM51.9076 41.0105C52.3274 41.0105 52.6752 40.8995 52.9511 40.6776C53.227 40.4557 53.4309 40.1603 53.5628 39.7915C53.6977 39.4227 53.7652 39.0164 53.7652 38.5726C53.7652 38.1318 53.6977 37.727 53.5628 37.3581C53.4309 36.9863 53.227 36.6879 52.9511 36.463C52.6752 36.2381 52.3274 36.1257 51.9076 36.1257C51.4848 36.1257 51.1339 36.2381 50.855 36.463C50.5792 36.6879 50.3738 36.9863 50.2388 37.3581C50.1069 37.727 50.0409 38.1318 50.0409 38.5726C50.0409 39.0164 50.1069 39.4227 50.2388 39.7915C50.3738 40.1603 50.5792 40.4557 50.855 40.6776C51.1339 40.8995 51.4848 41.0105 51.9076 41.0105ZM56.6248 42V35.0912H57.9247V36.1887H57.9966C58.1226 35.8168 58.3445 35.5245 58.6623 35.3116C58.9832 35.0957 59.346 34.9877 59.7508 34.9877C59.8348 34.9877 59.9338 34.9907 60.0477 34.9967C60.1647 35.0027 60.2561 35.0102 60.3221 35.0192V36.3056C60.2681 36.2906 60.1722 36.2741 60.0342 36.2561C59.8963 36.2351 59.7583 36.2246 59.6204 36.2246C59.3026 36.2246 59.0192 36.2921 58.7703 36.4271C58.5244 36.559 58.3295 36.7434 58.1856 36.9803C58.0416 37.2142 57.9697 37.4811 57.9697 37.7809V42H56.6248ZM63.8249 42.1349C63.2671 42.1349 62.7693 41.9925 62.3315 41.7076C61.8967 41.4198 61.5549 41.0105 61.306 40.4797C61.0601 39.9459 60.9372 39.3057 60.9372 38.5591C60.9372 37.8124 61.0616 37.1737 61.3105 36.643C61.5624 36.1122 61.9072 35.7059 62.345 35.424C62.7828 35.1421 63.2791 35.0012 63.8339 35.0012C64.2627 35.0012 64.6075 35.0732 64.8684 35.2171C65.1323 35.358 65.3362 35.523 65.4801 35.7119C65.627 35.9008 65.741 36.0672 65.8219 36.2112H65.9029V32.7882H67.2478V42H65.9344V40.925H65.8219C65.741 41.0719 65.624 41.2398 65.4711 41.4288C65.3212 41.6177 65.1143 41.7826 64.8504 41.9235C64.5865 42.0645 64.2447 42.1349 63.8249 42.1349ZM64.1217 40.988C64.5085 40.988 64.8354 40.886 65.1023 40.6821C65.3722 40.4752 65.5761 40.1888 65.714 39.823C65.8549 39.4572 65.9254 39.0314 65.9254 38.5456C65.9254 38.0658 65.8564 37.646 65.7185 37.2862C65.5806 36.9263 65.3781 36.646 65.1113 36.445C64.8444 36.2441 64.5145 36.1437 64.1217 36.1437C63.7169 36.1437 63.3796 36.2486 63.1097 36.4585C62.8398 36.6684 62.6359 36.9548 62.498 37.3176C62.363 37.6805 62.2956 38.0898 62.2956 38.5456C62.2956 39.0074 62.3645 39.4227 62.5025 39.7915C62.6404 40.1603 62.8443 40.4527 63.1142 40.6686C63.3871 40.8815 63.7229 40.988 64.1217 40.988ZM74.3444 36.7779L73.1255 36.9938C73.0745 36.8379 72.9935 36.6894 72.8826 36.5485C72.7746 36.4076 72.6277 36.2921 72.4418 36.2022C72.2559 36.1122 72.0235 36.0672 71.7446 36.0672C71.3638 36.0672 71.0459 36.1527 70.791 36.3236C70.5362 36.4915 70.4087 36.7089 70.4087 36.9758C70.4087 37.2067 70.4942 37.3926 70.6651 37.5335C70.836 37.6745 71.1119 37.7899 71.4927 37.8799L72.5902 38.1318C73.2259 38.2787 73.6997 38.5051 74.0116 38.811C74.3234 39.1168 74.4794 39.5141 74.4794 40.0029C74.4794 40.4167 74.3594 40.7856 74.1195 41.1094C73.8826 41.4303 73.5513 41.6821 73.1255 41.8651C72.7027 42.048 72.2124 42.1394 71.6546 42.1394C70.881 42.1394 70.2498 41.9745 69.761 41.6447C69.2722 41.3118 68.9724 40.8395 68.8614 40.2278L70.1613 40.0299C70.2423 40.3687 70.4087 40.6251 70.6606 40.799C70.9125 40.97 71.2408 41.0554 71.6457 41.0554C72.0864 41.0554 72.4388 40.964 72.7027 40.7811C72.9665 40.5951 73.0985 40.3687 73.0985 40.1019C73.0985 39.886 73.0175 39.7046 72.8556 39.5576C72.6967 39.4107 72.4523 39.2997 72.1224 39.2248L70.953 38.9684C70.3083 38.8215 69.8315 38.5876 69.5226 38.2667C69.2168 37.9459 69.0638 37.5395 69.0638 37.0478C69.0638 36.64 69.1778 36.2831 69.4057 35.9773C69.6336 35.6714 69.9484 35.433 70.3502 35.2621C70.7521 35.0882 71.2123 35.0012 71.7311 35.0012C72.4778 35.0012 73.0655 35.1631 73.4943 35.487C73.9231 35.8078 74.2065 36.2381 74.3444 36.7779ZM85.0495 42.1664L84.2399 41.3658L87.0511 38.5546H79.9893V37.3851H87.0511L84.2399 34.5784L85.0495 33.7733L89.2461 37.9698L85.0495 42.1664Z" fill="white"/>
<circle cx="233" cy="73" r="3" fill="#242734"/>
<line x1="233.5" y1="76" x2="233.5" y2="136" stroke="#A6ADCD"/>
<line x1="1" y1="135.5" x2="348" y2="135.5" stroke="#A6ADCD"/>
<defs>
<linearGradient id="paint0_linear_22_6335" x1="-2.75573" y1="81.4114" x2="145.556" y2="81.4114" gradientUnits="userSpaceOnUse">
<stop offset="0.199972" stop-color="#EF3885"/>
<stop offset="0.474972" stop-color="#B541D1"/>
<stop offset="1" stop-color="#58EBFF"/>
</linearGradient>
<linearGradient id="paint1_linear_22_6335" x1="-7.76627" y1="61.3696" x2="228.481" y2="61.3696" gradientUnits="userSpaceOnUse">
<stop offset="0.199972" stop-color="#EF3885"/>
<stop offset="0.474972" stop-color="#B541D1"/>
<stop offset="1" stop-color="#58EBFF"/>
</linearGradient>
<linearGradient id="paint2_linear_22_6335" x1="-5.76206" y1="41.2224" x2="327.188" y2="41.2223" gradientUnits="userSpaceOnUse">
<stop offset="0.199972" stop-color="#EF3885"/>
<stop offset="0.474972" stop-color="#B541D1"/>
<stop offset="1" stop-color="#58EBFF"/>
</linearGradient>
<linearGradient id="paint3_linear_22_6335" x1="0.0375068" y1="10.0211" x2="367.022" y2="10.021" gradientUnits="userSpaceOnUse">
<stop offset="0.199972" stop-color="#EF3885"/>
<stop offset="0.474972" stop-color="#B541D1"/>
<stop offset="1" stop-color="#58EBFF"/>
</linearGradient>
</defs>
</svg>
