<svg width="350" height="209" viewBox="0 0 350 209" fill="none" xmlns="http://www.w3.org/2000/svg">
<g clip-path="url(#clip0_22_4064)">
<path d="M-5.99996 127.091C-5.99995 124.154 -3.03453 122.146 -0.30716 123.235L28.8506 134.881C29.7585 135.243 30.7652 135.274 31.6935 134.967L73.0931 121.29C73.7465 121.074 74.4433 121.024 75.1209 121.144L111.888 127.665C112.791 127.825 113.722 127.682 114.535 127.257L151.69 107.854C152.207 107.585 152.66 107.21 153.022 106.753L190.126 59.9524C191.075 58.7563 192.603 58.1769 194.105 58.4434L228.627 64.566C230.018 64.8126 231.438 64.3358 232.398 63.3001L268.956 23.8578C269.66 23.0981 270.622 22.629 271.655 22.5426L308.517 19.4553C308.997 19.4151 309.466 19.2918 309.904 19.0908L352.114 -0.296641C354.865 -1.56014 358 0.449723 358 3.4769L358 204.847C358 207.141 356.141 209 353.847 209H-1.84743C-4.14082 209 -6 207.141 -6 204.847L-5.99996 127.091Z" fill="url(#paint0_linear_22_4064)"/>
<path d="M-8 171.299C-8 169.15 -6.36073 167.356 -4.22066 167.163L34.2482 163.692C34.4595 163.673 34.672 163.67 34.8839 163.683L73.5161 166.13C73.7383 166.144 73.9612 166.141 74.1827 166.119L111.963 162.425C112.729 162.35 113.458 162.064 114.071 161.598L151.987 132.789C152.154 132.662 152.311 132.523 152.457 132.372L190.749 92.8501C191.368 92.211 192.176 91.7878 193.054 91.6427L229.909 85.55C230.615 85.4332 231.28 85.1356 231.837 84.6861L268.797 54.8953C269.733 54.1408 270.95 53.8291 272.134 54.0407L308.836 60.6019C309.311 60.6869 309.798 60.6883 310.274 60.6059L355.139 52.8412C357.678 52.4019 360 54.3565 360 56.9329L360 200.847C360 203.141 358.141 205 355.847 205H-3.84744C-6.14082 205 -7.99997 203.141 -7.99997 200.847L-8 171.299Z" fill="url(#paint1_linear_22_4064)"/>
<path d="M-12 186.037C-12 183.743 -10.1408 181.884 -7.84746 181.884H35.4461L74.6758 179.975L112.519 182.643C113.419 182.706 114.315 182.475 115.072 181.984L153.135 157.285L191.27 124.981C191.979 124.38 192.87 124.035 193.798 124L230.622 122.621C231.262 122.597 231.887 122.426 232.449 122.12L269.696 101.89C270.431 101.491 271.269 101.323 272.101 101.408L309.592 105.25C309.899 105.281 310.208 105.278 310.515 105.241L357.348 99.564C359.821 99.2641 362 101.195 362 103.686L362 204.847C362 207.141 360.141 209 357.847 209H-7.84744C-10.1408 209 -12 207.141 -12 204.847V186.037Z" fill="url(#paint2_linear_22_4064)" fill-opacity="0.4"/>
<path d="M-12 186.037C-12 183.743 -10.1408 181.884 -7.84746 181.884H35.4461L74.6758 179.975L112.519 182.643C113.419 182.706 114.315 182.475 115.072 181.984L153.135 157.285L191.27 124.981C191.979 124.38 192.87 124.035 193.798 124L230.622 122.621C231.262 122.597 231.887 122.426 232.449 122.12L269.696 101.89C270.431 101.491 271.269 101.323 272.101 101.408L309.592 105.25C309.899 105.281 310.208 105.278 310.515 105.241L357.348 99.564C359.821 99.2641 362 101.195 362 103.686L362 204.847C362 207.141 360.141 209 357.847 209H-7.84744C-10.1408 209 -12 207.141 -12 204.847V186.037Z" fill="url(#paint3_linear_22_4064)"/>
<rect x="236.244" y="138.5" width="8" height="8" rx="4" fill="#BFFBF4"/>
<path d="M255.099 146.072C254.437 146.072 253.832 145.918 253.286 145.611C252.74 145.297 252.306 144.863 251.985 144.31C251.671 143.75 251.514 143.121 251.514 142.425C251.514 141.728 251.671 141.103 251.985 140.55C252.306 139.99 252.74 139.557 253.286 139.249C253.832 138.935 254.437 138.778 255.099 138.778C255.768 138.778 256.376 138.935 256.922 139.249C257.469 139.557 257.899 139.987 258.213 140.54C258.527 141.093 258.684 141.721 258.684 142.425C258.684 143.128 258.527 143.757 258.213 144.31C257.899 144.863 257.469 145.297 256.922 145.611C256.376 145.918 255.768 146.072 255.099 146.072ZM255.099 145.262C255.598 145.262 256.045 145.146 256.441 144.914C256.844 144.682 257.158 144.351 257.383 143.92C257.616 143.49 257.732 142.992 257.732 142.425C257.732 141.851 257.616 141.353 257.383 140.929C257.158 140.499 256.847 140.168 256.451 139.936C256.055 139.703 255.604 139.587 255.099 139.587C254.594 139.587 254.143 139.703 253.747 139.936C253.351 140.168 253.037 140.499 252.804 140.929C252.579 141.353 252.466 141.851 252.466 142.425C252.466 142.992 252.579 143.49 252.804 143.92C253.037 144.351 253.351 144.682 253.747 144.914C254.15 145.146 254.6 145.262 255.099 145.262ZM260.847 141.298C261.011 140.977 261.243 140.728 261.544 140.55C261.851 140.373 262.223 140.284 262.66 140.284V141.247H262.415C261.37 141.247 260.847 141.814 260.847 142.947V146H259.915V140.386H260.847V141.298ZM266.052 140.294C266.536 140.294 266.96 140.4 267.322 140.612C267.691 140.823 267.964 141.09 268.141 141.411V140.386H269.084V146.123C269.084 146.635 268.975 147.089 268.756 147.485C268.537 147.888 268.223 148.202 267.814 148.428C267.411 148.653 266.939 148.766 266.4 148.766C265.662 148.766 265.048 148.592 264.556 148.243C264.064 147.895 263.774 147.42 263.685 146.82H264.607C264.71 147.161 264.921 147.434 265.242 147.639C265.563 147.851 265.949 147.957 266.4 147.957C266.912 147.957 267.329 147.796 267.65 147.475C267.977 147.154 268.141 146.703 268.141 146.123V144.945C267.957 145.273 267.684 145.546 267.322 145.764C266.96 145.983 266.536 146.092 266.052 146.092C265.553 146.092 265.099 145.969 264.689 145.723C264.286 145.478 263.969 145.133 263.736 144.689C263.504 144.245 263.388 143.74 263.388 143.173C263.388 142.599 263.504 142.097 263.736 141.667C263.969 141.23 264.286 140.892 264.689 140.653C265.099 140.414 265.553 140.294 266.052 140.294ZM268.141 143.183C268.141 142.76 268.056 142.391 267.885 142.077C267.715 141.762 267.482 141.523 267.189 141.36C266.902 141.189 266.584 141.103 266.236 141.103C265.888 141.103 265.57 141.185 265.283 141.349C264.996 141.513 264.768 141.752 264.597 142.066C264.426 142.38 264.341 142.749 264.341 143.173C264.341 143.603 264.426 143.979 264.597 144.3C264.768 144.614 264.996 144.856 265.283 145.027C265.57 145.191 265.888 145.273 266.236 145.273C266.584 145.273 266.902 145.191 267.189 145.027C267.482 144.856 267.715 144.614 267.885 144.3C268.056 143.979 268.141 143.606 268.141 143.183ZM270.311 143.173C270.311 142.599 270.427 142.097 270.659 141.667C270.891 141.23 271.209 140.892 271.612 140.653C272.022 140.414 272.476 140.294 272.974 140.294C273.466 140.294 273.893 140.4 274.255 140.612C274.617 140.823 274.886 141.09 275.064 141.411V140.386H276.006V146H275.064V144.955C274.88 145.283 274.603 145.556 274.234 145.775C273.872 145.986 273.449 146.092 272.964 146.092C272.465 146.092 272.015 145.969 271.612 145.723C271.209 145.478 270.891 145.133 270.659 144.689C270.427 144.245 270.311 143.74 270.311 143.173ZM275.064 143.183C275.064 142.76 274.979 142.391 274.808 142.077C274.637 141.762 274.405 141.523 274.111 141.36C273.824 141.189 273.507 141.103 273.159 141.103C272.81 141.103 272.493 141.185 272.206 141.349C271.919 141.513 271.69 141.752 271.52 142.066C271.349 142.38 271.264 142.749 271.264 143.173C271.264 143.603 271.349 143.979 271.52 144.3C271.69 144.614 271.919 144.856 272.206 145.027C272.493 145.191 272.81 145.273 273.159 145.273C273.507 145.273 273.824 145.191 274.111 145.027C274.405 144.856 274.637 144.614 274.808 144.3C274.979 143.979 275.064 143.606 275.064 143.183ZM280.317 140.284C281 140.284 281.553 140.492 281.976 140.909C282.4 141.319 282.612 141.913 282.612 142.691V146H281.69V142.824C281.69 142.264 281.55 141.838 281.27 141.544C280.99 141.243 280.607 141.093 280.122 141.093C279.631 141.093 279.238 141.247 278.944 141.554C278.657 141.861 278.514 142.309 278.514 142.896V146H277.582V140.386H278.514V141.185C278.698 140.899 278.948 140.677 279.262 140.52C279.583 140.362 279.934 140.284 280.317 140.284ZM284.616 139.475C284.438 139.475 284.288 139.413 284.165 139.29C284.042 139.167 283.981 139.017 283.981 138.84C283.981 138.662 284.042 138.512 284.165 138.389C284.288 138.266 284.438 138.204 284.616 138.204C284.786 138.204 284.93 138.266 285.046 138.389C285.169 138.512 285.23 138.662 285.23 138.84C285.23 139.017 285.169 139.167 285.046 139.29C284.93 139.413 284.786 139.475 284.616 139.475ZM285.066 140.386V146H284.134V140.386H285.066ZM286.307 143.183C286.307 142.602 286.423 142.097 286.655 141.667C286.887 141.23 287.208 140.892 287.618 140.653C288.035 140.414 288.509 140.294 289.042 140.294C289.732 140.294 290.299 140.461 290.743 140.796C291.193 141.131 291.49 141.595 291.634 142.189H290.63C290.534 141.848 290.346 141.578 290.066 141.38C289.793 141.182 289.452 141.083 289.042 141.083C288.509 141.083 288.079 141.267 287.751 141.636C287.424 141.998 287.26 142.514 287.26 143.183C287.26 143.859 287.424 144.381 287.751 144.75C288.079 145.119 288.509 145.303 289.042 145.303C289.452 145.303 289.793 145.208 290.066 145.017C290.34 144.825 290.527 144.552 290.63 144.197H291.634C291.484 144.771 291.183 145.232 290.732 145.58C290.282 145.921 289.718 146.092 289.042 146.092C288.509 146.092 288.035 145.973 287.618 145.734C287.208 145.495 286.887 145.157 286.655 144.72C286.423 144.282 286.307 143.77 286.307 143.183ZM300.587 140.386V146H299.655V145.17C299.477 145.457 299.228 145.682 298.907 145.846C298.593 146.003 298.245 146.082 297.862 146.082C297.425 146.082 297.033 145.993 296.684 145.816C296.336 145.631 296.059 145.358 295.854 144.996C295.656 144.634 295.557 144.194 295.557 143.675V140.386H296.479V143.552C296.479 144.105 296.619 144.532 296.899 144.832C297.179 145.126 297.562 145.273 298.047 145.273C298.545 145.273 298.938 145.119 299.225 144.812C299.512 144.504 299.655 144.057 299.655 143.47V140.386H300.587ZM304.896 140.284C305.579 140.284 306.132 140.492 306.556 140.909C306.979 141.319 307.191 141.913 307.191 142.691V146H306.269V142.824C306.269 142.264 306.129 141.838 305.849 141.544C305.569 141.243 305.186 141.093 304.702 141.093C304.21 141.093 303.817 141.247 303.524 141.554C303.237 141.861 303.093 142.309 303.093 142.896V146H302.161V140.386H303.093V141.185C303.278 140.899 303.527 140.677 303.841 140.52C304.162 140.362 304.514 140.284 304.896 140.284ZM309.195 139.475C309.018 139.475 308.867 139.413 308.744 139.29C308.621 139.167 308.56 139.017 308.56 138.84C308.56 138.662 308.621 138.512 308.744 138.389C308.867 138.266 309.018 138.204 309.195 138.204C309.366 138.204 309.509 138.266 309.625 138.389C309.748 138.512 309.81 138.662 309.81 138.84C309.81 139.017 309.748 139.167 309.625 139.29C309.509 139.413 309.366 139.475 309.195 139.475ZM309.646 140.386V146H308.714V140.386H309.646ZM312.372 141.155V144.463C312.372 144.737 312.43 144.931 312.546 145.047C312.662 145.157 312.863 145.211 313.15 145.211H313.837V146H312.997C312.478 146 312.088 145.88 311.829 145.641C311.569 145.402 311.439 145.01 311.439 144.463V141.155H310.712V140.386H311.439V138.973H312.372V140.386H313.837V141.155H312.372ZM316.953 146.092C316.523 146.092 316.137 146.02 315.796 145.877C315.454 145.727 315.185 145.522 314.986 145.262C314.788 144.996 314.679 144.692 314.659 144.351H315.622C315.649 144.631 315.779 144.86 316.011 145.037C316.25 145.215 316.561 145.303 316.943 145.303C317.298 145.303 317.578 145.225 317.783 145.068C317.988 144.911 318.09 144.713 318.09 144.474C318.09 144.228 317.981 144.047 317.763 143.931C317.544 143.808 317.206 143.688 316.748 143.572C316.332 143.463 315.99 143.354 315.724 143.244C315.465 143.128 315.239 142.961 315.048 142.742C314.864 142.517 314.771 142.223 314.771 141.861C314.771 141.575 314.857 141.312 315.027 141.073C315.198 140.834 315.441 140.646 315.755 140.509C316.069 140.366 316.427 140.294 316.83 140.294C317.452 140.294 317.954 140.451 318.336 140.765C318.719 141.08 318.924 141.51 318.951 142.056H318.019C317.998 141.762 317.879 141.527 317.66 141.349C317.448 141.172 317.162 141.083 316.8 141.083C316.465 141.083 316.199 141.155 316.001 141.298C315.803 141.441 315.704 141.629 315.704 141.861C315.704 142.046 315.762 142.2 315.878 142.322C316.001 142.439 316.151 142.534 316.328 142.609C316.513 142.678 316.766 142.756 317.086 142.845C317.489 142.954 317.817 143.063 318.07 143.173C318.323 143.275 318.538 143.432 318.715 143.644C318.9 143.856 318.995 144.132 319.002 144.474C319.002 144.781 318.917 145.058 318.746 145.303C318.575 145.549 318.333 145.744 318.019 145.887C317.711 146.024 317.356 146.092 316.953 146.092Z" fill="white"/>
<rect x="236.244" y="157.699" width="8" height="8" rx="4" fill="#BB54BC"/>
<path d="M256.636 160.148C256.636 160.743 256.431 161.238 256.021 161.634C255.618 162.023 255 162.218 254.167 162.218H252.794V165.199H251.862V158.059H254.167C254.973 158.059 255.584 158.253 256 158.643C256.424 159.032 256.636 159.534 256.636 160.148ZM254.167 161.449C254.686 161.449 255.068 161.337 255.314 161.111C255.56 160.886 255.683 160.565 255.683 160.148C255.683 159.268 255.178 158.827 254.167 158.827H252.794V161.449H254.167ZM258.726 160.497C258.89 160.176 259.123 159.927 259.423 159.749C259.73 159.571 260.103 159.483 260.54 159.483V160.446H260.294C259.249 160.446 258.726 161.012 258.726 162.146V165.199H257.794V159.585H258.726V160.497ZM264.064 165.291C263.538 165.291 263.06 165.171 262.63 164.932C262.206 164.693 261.872 164.355 261.626 163.918C261.387 163.474 261.267 162.962 261.267 162.382C261.267 161.808 261.39 161.303 261.636 160.866C261.889 160.422 262.23 160.084 262.661 159.851C263.091 159.612 263.572 159.493 264.105 159.493C264.638 159.493 265.119 159.612 265.549 159.851C265.98 160.084 266.318 160.418 266.563 160.855C266.816 161.292 266.943 161.801 266.943 162.382C266.943 162.962 266.813 163.474 266.553 163.918C266.301 164.355 265.956 164.693 265.519 164.932C265.082 165.171 264.597 165.291 264.064 165.291ZM264.064 164.471C264.399 164.471 264.713 164.393 265.006 164.236C265.3 164.079 265.536 163.843 265.713 163.529C265.898 163.215 265.99 162.832 265.99 162.382C265.99 161.931 265.901 161.548 265.723 161.234C265.546 160.92 265.314 160.688 265.027 160.538C264.74 160.381 264.429 160.302 264.095 160.302C263.753 160.302 263.439 160.381 263.152 160.538C262.872 160.688 262.647 160.92 262.476 161.234C262.305 161.548 262.22 161.931 262.22 162.382C262.22 162.839 262.302 163.225 262.466 163.539C262.637 163.853 262.862 164.089 263.142 164.246C263.422 164.396 263.729 164.471 264.064 164.471ZM270.453 160.353H269.275V165.199H268.342V160.353H267.615V159.585H268.342V159.186C268.342 158.557 268.503 158.1 268.824 157.813C269.152 157.519 269.674 157.372 270.391 157.372V158.151C269.981 158.151 269.691 158.233 269.52 158.397C269.356 158.554 269.275 158.817 269.275 159.186V159.585H270.453V160.353ZM272.021 158.673C271.843 158.673 271.693 158.612 271.57 158.489C271.447 158.366 271.386 158.216 271.386 158.038C271.386 157.861 271.447 157.71 271.57 157.588C271.693 157.465 271.843 157.403 272.021 157.403C272.192 157.403 272.335 157.465 272.451 157.588C272.574 157.71 272.636 157.861 272.636 158.038C272.636 158.216 272.574 158.366 272.451 158.489C272.335 158.612 272.192 158.673 272.021 158.673ZM272.472 159.585V165.199H271.539V159.585H272.472ZM275.197 160.353V163.662C275.197 163.935 275.256 164.13 275.372 164.246C275.488 164.355 275.689 164.41 275.976 164.41H276.662V165.199H275.822C275.303 165.199 274.914 165.079 274.655 164.84C274.395 164.601 274.265 164.208 274.265 163.662V160.353H273.538V159.585H274.265V158.171H275.197V159.585H276.662V160.353H275.197ZM279.779 165.291C279.349 165.291 278.963 165.219 278.622 165.076C278.28 164.926 278.01 164.721 277.812 164.461C277.614 164.195 277.505 163.891 277.485 163.549H278.447C278.475 163.829 278.605 164.058 278.837 164.236C279.076 164.413 279.386 164.502 279.769 164.502C280.124 164.502 280.404 164.424 280.609 164.267C280.814 164.109 280.916 163.911 280.916 163.672C280.916 163.427 280.807 163.246 280.588 163.129C280.37 163.007 280.032 162.887 279.574 162.771C279.158 162.662 278.816 162.552 278.55 162.443C278.29 162.327 278.065 162.16 277.874 161.941C277.689 161.716 277.597 161.422 277.597 161.06C277.597 160.773 277.683 160.51 277.853 160.271C278.024 160.032 278.266 159.845 278.581 159.708C278.895 159.565 279.253 159.493 279.656 159.493C280.278 159.493 280.78 159.65 281.162 159.964C281.545 160.278 281.749 160.708 281.777 161.255H280.845C280.824 160.961 280.705 160.726 280.486 160.548C280.274 160.37 279.987 160.282 279.625 160.282C279.291 160.282 279.025 160.353 278.826 160.497C278.628 160.64 278.529 160.828 278.529 161.06C278.529 161.245 278.587 161.398 278.704 161.521C278.826 161.637 278.977 161.733 279.154 161.808C279.339 161.876 279.591 161.955 279.912 162.044C280.315 162.153 280.643 162.262 280.896 162.371C281.148 162.474 281.364 162.631 281.541 162.843C281.725 163.054 281.821 163.331 281.828 163.672C281.828 163.98 281.743 164.256 281.572 164.502C281.401 164.748 281.159 164.943 280.845 165.086C280.537 165.223 280.182 165.291 279.779 165.291Z" fill="white"/>
<rect x="236.244" y="176.898" width="8" height="8" rx="4" fill="#6478BB"/>
<path d="M256.636 179.347C256.636 179.942 256.431 180.437 256.021 180.833C255.618 181.222 255 181.417 254.167 181.417H252.794V184.398H251.862V177.258H254.167C254.973 177.258 255.584 177.452 256 177.842C256.424 178.231 256.636 178.733 256.636 179.347ZM254.167 180.648C254.686 180.648 255.068 180.536 255.314 180.31C255.56 180.085 255.683 179.764 255.683 179.347C255.683 178.466 255.178 178.026 254.167 178.026H252.794V180.648H254.167ZM262.568 179.347C262.568 179.942 262.363 180.437 261.953 180.833C261.55 181.222 260.932 181.417 260.099 181.417H258.726V184.398H257.794V177.258H260.099C260.905 177.258 261.516 177.452 261.933 177.842C262.356 178.231 262.568 178.733 262.568 179.347ZM260.099 180.648C260.618 180.648 261.001 180.536 261.246 180.31C261.492 180.085 261.615 179.764 261.615 179.347C261.615 178.466 261.11 178.026 260.099 178.026H258.726V180.648H260.099ZM263.378 180.823C263.378 180.126 263.535 179.501 263.849 178.948C264.164 178.388 264.59 177.951 265.13 177.637C265.676 177.323 266.281 177.166 266.943 177.166C267.722 177.166 268.401 177.353 268.982 177.729C269.562 178.105 269.986 178.637 270.252 179.327H269.135C268.937 178.897 268.65 178.566 268.275 178.333C267.906 178.101 267.462 177.985 266.943 177.985C266.445 177.985 265.997 178.101 265.601 178.333C265.205 178.566 264.894 178.897 264.669 179.327C264.444 179.75 264.331 180.249 264.331 180.823C264.331 181.389 264.444 181.888 264.669 182.318C264.894 182.742 265.205 183.069 265.601 183.302C265.997 183.534 266.445 183.65 266.943 183.65C267.462 183.65 267.906 183.537 268.275 183.312C268.65 183.08 268.937 182.748 269.135 182.318H270.252C269.986 183.001 269.562 183.53 268.982 183.906C268.401 184.275 267.722 184.459 266.943 184.459C266.281 184.459 265.676 184.306 265.13 183.998C264.59 183.684 264.164 183.25 263.849 182.697C263.535 182.144 263.378 181.519 263.378 180.823ZM274.022 181.581C274.022 181 274.138 180.495 274.371 180.065C274.603 179.627 274.924 179.289 275.333 179.05C275.75 178.811 276.225 178.692 276.757 178.692C277.447 178.692 278.014 178.859 278.458 179.194C278.909 179.528 279.206 179.993 279.349 180.587H278.345C278.25 180.246 278.062 179.976 277.782 179.778C277.509 179.58 277.167 179.481 276.757 179.481C276.225 179.481 275.794 179.665 275.467 180.034C275.139 180.396 274.975 180.911 274.975 181.581C274.975 182.257 275.139 182.779 275.467 183.148C275.794 183.517 276.225 183.701 276.757 183.701C277.167 183.701 277.509 183.606 277.782 183.414C278.055 183.223 278.243 182.95 278.345 182.595H279.349C279.199 183.168 278.898 183.629 278.448 183.978C277.997 184.319 277.433 184.49 276.757 184.49C276.225 184.49 275.75 184.37 275.333 184.131C274.924 183.892 274.603 183.554 274.371 183.117C274.138 182.68 274.022 182.168 274.022 181.581ZM283.041 184.49C282.515 184.49 282.037 184.37 281.607 184.131C281.184 183.892 280.849 183.554 280.603 183.117C280.364 182.673 280.245 182.161 280.245 181.581C280.245 181.007 280.368 180.502 280.613 180.065C280.866 179.621 281.208 179.283 281.638 179.05C282.068 178.811 282.549 178.692 283.082 178.692C283.615 178.692 284.096 178.811 284.527 179.05C284.957 179.283 285.295 179.617 285.541 180.054C285.793 180.491 285.92 181 285.92 181.581C285.92 182.161 285.79 182.673 285.53 183.117C285.278 183.554 284.933 183.892 284.496 184.131C284.059 184.37 283.574 184.49 283.041 184.49ZM283.041 183.67C283.376 183.67 283.69 183.592 283.984 183.435C284.277 183.278 284.513 183.042 284.69 182.728C284.875 182.414 284.967 182.031 284.967 181.581C284.967 181.13 284.878 180.747 284.701 180.433C284.523 180.119 284.291 179.887 284.004 179.737C283.717 179.58 283.407 179.501 283.072 179.501C282.73 179.501 282.416 179.58 282.129 179.737C281.849 179.887 281.624 180.119 281.453 180.433C281.283 180.747 281.197 181.13 281.197 181.581C281.197 182.038 281.279 182.424 281.443 182.738C281.614 183.052 281.839 183.288 282.119 183.445C282.399 183.595 282.707 183.67 283.041 183.67ZM289.881 178.682C290.563 178.682 291.117 178.89 291.54 179.306C291.963 179.716 292.175 180.31 292.175 181.089V184.398H291.253V181.222C291.253 180.662 291.113 180.235 290.833 179.942C290.553 179.641 290.171 179.491 289.686 179.491C289.194 179.491 288.801 179.645 288.508 179.952C288.221 180.259 288.078 180.706 288.078 181.294V184.398H287.145V178.784H288.078V179.583C288.262 179.296 288.511 179.074 288.825 178.917C289.146 178.76 289.498 178.682 289.881 178.682ZM295.788 183.537L297.529 178.784H298.523L296.32 184.398H295.234L293.032 178.784H294.036L295.788 183.537ZM304.562 181.376C304.562 181.553 304.552 181.741 304.531 181.939H300.044C300.079 182.492 300.266 182.926 300.608 183.24C300.956 183.547 301.376 183.701 301.868 183.701C302.271 183.701 302.605 183.609 302.872 183.425C303.145 183.233 303.336 182.981 303.445 182.666H304.449C304.299 183.206 303.999 183.646 303.548 183.988C303.097 184.323 302.537 184.49 301.868 184.49C301.335 184.49 300.857 184.37 300.434 184.131C300.017 183.892 299.689 183.554 299.45 183.117C299.211 182.673 299.092 182.161 299.092 181.581C299.092 181 299.208 180.491 299.44 180.054C299.672 179.617 299.997 179.283 300.413 179.05C300.837 178.811 301.322 178.692 301.868 178.692C302.401 178.692 302.872 178.808 303.282 179.04C303.691 179.272 304.005 179.593 304.224 180.003C304.449 180.406 304.562 180.864 304.562 181.376ZM303.599 181.181C303.599 180.826 303.521 180.522 303.364 180.269C303.206 180.01 302.991 179.815 302.718 179.686C302.452 179.549 302.155 179.481 301.827 179.481C301.356 179.481 300.953 179.631 300.618 179.931C300.29 180.232 300.103 180.648 300.055 181.181H303.599ZM306.725 179.696C306.889 179.375 307.121 179.126 307.421 178.948C307.729 178.77 308.101 178.682 308.538 178.682V179.645H308.292C307.247 179.645 306.725 180.211 306.725 181.345V184.398H305.793V178.784H306.725V179.696ZM311.601 184.49C311.171 184.49 310.785 184.418 310.444 184.275C310.102 184.125 309.832 183.92 309.634 183.66C309.436 183.394 309.327 183.09 309.307 182.748H310.27C310.297 183.028 310.427 183.257 310.659 183.435C310.898 183.612 311.209 183.701 311.591 183.701C311.946 183.701 312.226 183.623 312.431 183.466C312.636 183.308 312.738 183.11 312.738 182.871C312.738 182.626 312.629 182.445 312.411 182.328C312.192 182.206 311.854 182.086 311.396 181.97C310.98 181.861 310.638 181.751 310.372 181.642C310.112 181.526 309.887 181.359 309.696 181.14C309.512 180.915 309.419 180.621 309.419 180.259C309.419 179.972 309.505 179.709 309.675 179.47C309.846 179.231 310.089 179.044 310.403 178.907C310.717 178.764 311.075 178.692 311.478 178.692C312.1 178.692 312.602 178.849 312.984 179.163C313.367 179.477 313.572 179.907 313.599 180.454H312.667C312.646 180.16 312.527 179.925 312.308 179.747C312.096 179.569 311.81 179.481 311.448 179.481C311.113 179.481 310.847 179.552 310.649 179.696C310.451 179.839 310.352 180.027 310.352 180.259C310.352 180.444 310.41 180.597 310.526 180.72C310.649 180.836 310.799 180.932 310.976 181.007C311.161 181.075 311.413 181.154 311.734 181.243C312.137 181.352 312.465 181.461 312.718 181.57C312.971 181.673 313.186 181.83 313.363 182.042C313.548 182.253 313.643 182.53 313.65 182.871C313.65 183.179 313.565 183.455 313.394 183.701C313.223 183.947 312.981 184.142 312.667 184.285C312.359 184.422 312.004 184.49 311.601 184.49ZM315.447 177.872C315.27 177.872 315.12 177.811 314.997 177.688C314.874 177.565 314.812 177.415 314.812 177.237C314.812 177.06 314.874 176.909 314.997 176.786C315.12 176.664 315.27 176.602 315.447 176.602C315.618 176.602 315.762 176.664 315.878 176.786C316.001 176.909 316.062 177.06 316.062 177.237C316.062 177.415 316.001 177.565 315.878 177.688C315.762 177.811 315.618 177.872 315.447 177.872ZM315.898 178.784V184.398H314.966V178.784H315.898ZM319.935 184.49C319.409 184.49 318.931 184.37 318.501 184.131C318.078 183.892 317.743 183.554 317.497 183.117C317.258 182.673 317.139 182.161 317.139 181.581C317.139 181.007 317.262 180.502 317.507 180.065C317.76 179.621 318.102 179.283 318.532 179.05C318.962 178.811 319.444 178.692 319.976 178.692C320.509 178.692 320.99 178.811 321.421 179.05C321.851 179.283 322.189 179.617 322.435 180.054C322.687 180.491 322.814 181 322.814 181.581C322.814 182.161 322.684 182.673 322.425 183.117C322.172 183.554 321.827 183.892 321.39 184.131C320.953 184.37 320.468 184.49 319.935 184.49ZM319.935 183.67C320.27 183.67 320.584 183.592 320.878 183.435C321.171 183.278 321.407 183.042 321.585 182.728C321.769 182.414 321.861 182.031 321.861 181.581C321.861 181.13 321.772 180.747 321.595 180.433C321.417 180.119 321.185 179.887 320.898 179.737C320.611 179.58 320.301 179.501 319.966 179.501C319.625 179.501 319.31 179.58 319.024 179.737C318.744 179.887 318.518 180.119 318.347 180.433C318.177 180.747 318.091 181.13 318.091 181.581C318.091 182.038 318.173 182.424 318.337 182.738C318.508 183.052 318.733 183.288 319.013 183.445C319.293 183.595 319.601 183.67 319.935 183.67ZM326.775 178.682C327.458 178.682 328.011 178.89 328.434 179.306C328.858 179.716 329.069 180.31 329.069 181.089V184.398H328.147V181.222C328.147 180.662 328.007 180.235 327.727 179.942C327.447 179.641 327.065 179.491 326.58 179.491C326.088 179.491 325.696 179.645 325.402 179.952C325.115 180.259 324.972 180.706 324.972 181.294V184.398H324.039V178.784H324.972V179.583C325.156 179.296 325.405 179.074 325.719 178.917C326.04 178.76 326.392 178.682 326.775 178.682Z" fill="white"/>
<path d="M55.6502 43.52H50.7862L49.8902 46H48.3542L52.3862 34.912H54.0662L58.0822 46H56.5462L55.6502 43.52ZM55.2342 42.336L53.2182 36.704L51.2022 42.336H55.2342ZM67.6155 37.232V46H66.1595V44.704C65.8821 45.152 65.4928 45.504 64.9915 45.76C64.5008 46.0053 63.9568 46.128 63.3595 46.128C62.6768 46.128 62.0635 45.9893 61.5195 45.712C60.9755 45.424 60.5435 44.9973 60.2235 44.432C59.9141 43.8667 59.7595 43.1787 59.7595 42.368V37.232H61.1995V42.176C61.1995 43.04 61.4181 43.7067 61.8555 44.176C62.2928 44.6347 62.8901 44.864 63.6475 44.864C64.4261 44.864 65.0395 44.624 65.4875 44.144C65.9355 43.664 66.1595 42.9653 66.1595 42.048V37.232H67.6155ZM71.8498 38.432V43.6C71.8498 44.0267 71.9405 44.3307 72.1218 44.512C72.3032 44.6827 72.6178 44.768 73.0658 44.768H74.1378V46H72.8258C72.0152 46 71.4072 45.8133 71.0018 45.44C70.5965 45.0667 70.3938 44.4533 70.3938 43.6V38.432H69.2578V37.232H70.3938V35.024H71.8498V37.232H74.1378V38.432H71.8498ZM79.726 46.144C78.9046 46.144 78.158 45.9573 77.486 45.584C76.8246 45.2107 76.302 44.6827 75.918 44C75.5446 43.3067 75.358 42.5067 75.358 41.6C75.358 40.704 75.55 39.9147 75.934 39.232C76.3286 38.5387 76.862 38.0107 77.534 37.648C78.206 37.2747 78.958 37.088 79.79 37.088C80.622 37.088 81.374 37.2747 82.046 37.648C82.718 38.0107 83.246 38.5333 83.63 39.216C84.0246 39.8987 84.222 40.6933 84.222 41.6C84.222 42.5067 84.0193 43.3067 83.614 44C83.2193 44.6827 82.6806 45.2107 81.998 45.584C81.3153 45.9573 80.558 46.144 79.726 46.144ZM79.726 44.864C80.2486 44.864 80.7393 44.7413 81.198 44.496C81.6566 44.2507 82.0246 43.8827 82.302 43.392C82.59 42.9013 82.734 42.304 82.734 41.6C82.734 40.896 82.5953 40.2987 82.318 39.808C82.0406 39.3173 81.678 38.9547 81.23 38.72C80.782 38.4747 80.2966 38.352 79.774 38.352C79.2406 38.352 78.75 38.4747 78.302 38.72C77.8646 38.9547 77.5126 39.3173 77.246 39.808C76.9793 40.2987 76.846 40.896 76.846 41.6C76.846 42.3147 76.974 42.9173 77.23 43.408C77.4966 43.8987 77.8486 44.2667 78.286 44.512C78.7233 44.7467 79.2033 44.864 79.726 44.864ZM96.6803 37.072C97.363 37.072 97.971 37.216 98.5043 37.504C99.0377 37.7813 99.459 38.2027 99.7683 38.768C100.078 39.3333 100.232 40.0213 100.232 40.832V46H98.7923V41.04C98.7923 40.1653 98.5737 39.4987 98.1363 39.04C97.7097 38.5707 97.1283 38.336 96.3923 38.336C95.635 38.336 95.0323 38.5813 94.5843 39.072C94.1363 39.552 93.9123 40.2507 93.9123 41.168V46H92.4723V41.04C92.4723 40.1653 92.2537 39.4987 91.8163 39.04C91.3897 38.5707 90.8083 38.336 90.0723 38.336C89.315 38.336 88.7123 38.5813 88.2643 39.072C87.8163 39.552 87.5923 40.2507 87.5923 41.168V46H86.1363V37.232H87.5923V38.496C87.8803 38.0373 88.2643 37.6853 88.7443 37.44C89.235 37.1947 89.7737 37.072 90.3603 37.072C91.0963 37.072 91.747 37.2373 92.3123 37.568C92.8777 37.8987 93.299 38.384 93.5763 39.024C93.8217 38.4053 94.227 37.9253 94.7923 37.584C95.3577 37.2427 95.987 37.072 96.6803 37.072ZM102.077 41.584C102.077 40.688 102.258 39.904 102.621 39.232C102.983 38.5493 103.479 38.0213 104.109 37.648C104.749 37.2747 105.458 37.088 106.237 37.088C107.005 37.088 107.671 37.2533 108.237 37.584C108.802 37.9147 109.223 38.3307 109.501 38.832V37.232H110.973V46H109.501V44.368C109.213 44.88 108.781 45.3067 108.205 45.648C107.639 45.9787 106.978 46.144 106.221 46.144C105.442 46.144 104.738 45.952 104.109 45.568C103.479 45.184 102.983 44.6453 102.621 43.952C102.258 43.2587 102.077 42.4693 102.077 41.584ZM109.501 41.6C109.501 40.9387 109.367 40.3627 109.101 39.872C108.834 39.3813 108.471 39.008 108.013 38.752C107.565 38.4853 107.069 38.352 106.525 38.352C105.981 38.352 105.485 38.48 105.037 38.736C104.589 38.992 104.231 39.3653 103.965 39.856C103.698 40.3467 103.565 40.9227 103.565 41.584C103.565 42.256 103.698 42.8427 103.965 43.344C104.231 43.8347 104.589 44.2133 105.037 44.48C105.485 44.736 105.981 44.864 106.525 44.864C107.069 44.864 107.565 44.736 108.013 44.48C108.471 44.2133 108.834 43.8347 109.101 43.344C109.367 42.8427 109.501 42.2613 109.501 41.6ZM115.209 38.432V43.6C115.209 44.0267 115.3 44.3307 115.481 44.512C115.663 44.6827 115.977 44.768 116.425 44.768H117.497V46H116.185C115.375 46 114.767 45.8133 114.361 45.44C113.956 45.0667 113.753 44.4533 113.753 43.6V38.432H112.617V37.232H113.753V35.024H115.209V37.232H117.497V38.432H115.209ZM120.013 35.808C119.736 35.808 119.501 35.712 119.309 35.52C119.117 35.328 119.021 35.0933 119.021 34.816C119.021 34.5387 119.117 34.304 119.309 34.112C119.501 33.92 119.736 33.824 120.013 33.824C120.28 33.824 120.504 33.92 120.685 34.112C120.877 34.304 120.973 34.5387 120.973 34.816C120.973 35.0933 120.877 35.328 120.685 35.52C120.504 35.712 120.28 35.808 120.013 35.808ZM120.717 37.232V46H119.261V37.232H120.717ZM127.023 46.144C126.202 46.144 125.455 45.9573 124.783 45.584C124.122 45.2107 123.599 44.6827 123.215 44C122.842 43.3067 122.655 42.5067 122.655 41.6C122.655 40.704 122.847 39.9147 123.231 39.232C123.626 38.5387 124.159 38.0107 124.831 37.648C125.503 37.2747 126.255 37.088 127.087 37.088C127.919 37.088 128.671 37.2747 129.343 37.648C130.015 38.0107 130.543 38.5333 130.927 39.216C131.322 39.8987 131.519 40.6933 131.519 41.6C131.519 42.5067 131.316 43.3067 130.911 44C130.516 44.6827 129.978 45.2107 129.295 45.584C128.612 45.9573 127.855 46.144 127.023 46.144ZM127.023 44.864C127.546 44.864 128.036 44.7413 128.495 44.496C128.954 44.2507 129.322 43.8827 129.599 43.392C129.887 42.9013 130.031 42.304 130.031 41.6C130.031 40.896 129.892 40.2987 129.615 39.808C129.338 39.3173 128.975 38.9547 128.527 38.72C128.079 38.4747 127.594 38.352 127.071 38.352C126.538 38.352 126.047 38.4747 125.599 38.72C125.162 38.9547 124.81 39.3173 124.543 39.808C124.276 40.2987 124.143 40.896 124.143 41.6C124.143 42.3147 124.271 42.9173 124.527 43.408C124.794 43.8987 125.146 44.2667 125.583 44.512C126.02 44.7467 126.5 44.864 127.023 44.864ZM137.705 37.072C138.772 37.072 139.636 37.3973 140.297 38.048C140.959 38.688 141.289 39.616 141.289 40.832V46H139.849V41.04C139.849 40.1653 139.631 39.4987 139.193 39.04C138.756 38.5707 138.159 38.336 137.401 38.336C136.633 38.336 136.02 38.576 135.561 39.056C135.113 39.536 134.889 40.2347 134.889 41.152V46H133.433V37.232H134.889V38.48C135.177 38.032 135.567 37.6853 136.057 37.44C136.559 37.1947 137.108 37.072 137.705 37.072ZM159.613 37.232L156.877 46H155.373L153.261 39.04L151.149 46H149.645L146.893 37.232H148.381L150.397 44.592L152.573 37.232H154.061L156.189 44.608L158.173 37.232H159.613ZM160.514 41.584C160.514 40.688 160.696 39.904 161.058 39.232C161.421 38.5493 161.917 38.0213 162.546 37.648C163.186 37.2747 163.896 37.088 164.674 37.088C165.442 37.088 166.109 37.2533 166.674 37.584C167.24 37.9147 167.661 38.3307 167.938 38.832V37.232H169.41V46H167.938V44.368C167.65 44.88 167.218 45.3067 166.642 45.648C166.077 45.9787 165.416 46.144 164.658 46.144C163.88 46.144 163.176 45.952 162.546 45.568C161.917 45.184 161.421 44.6453 161.058 43.952C160.696 43.2587 160.514 42.4693 160.514 41.584ZM167.938 41.6C167.938 40.9387 167.805 40.3627 167.538 39.872C167.272 39.3813 166.909 39.008 166.45 38.752C166.002 38.4853 165.506 38.352 164.962 38.352C164.418 38.352 163.922 38.48 163.474 38.736C163.026 38.992 162.669 39.3653 162.402 39.856C162.136 40.3467 162.002 40.9227 162.002 41.584C162.002 42.256 162.136 42.8427 162.402 43.344C162.669 43.8347 163.026 44.2133 163.474 44.48C163.922 44.736 164.418 44.864 164.962 44.864C165.506 44.864 166.002 44.736 166.45 44.48C166.909 44.2133 167.272 43.8347 167.538 43.344C167.805 42.8427 167.938 42.2613 167.938 41.6ZM174.975 46.144C174.303 46.144 173.7 46.032 173.167 45.808C172.633 45.5733 172.212 45.2533 171.903 44.848C171.593 44.432 171.423 43.9573 171.391 43.424H172.895C172.937 43.8613 173.14 44.2187 173.503 44.496C173.876 44.7733 174.361 44.912 174.959 44.912C175.513 44.912 175.951 44.7893 176.271 44.544C176.591 44.2987 176.751 43.9893 176.751 43.616C176.751 43.232 176.58 42.9493 176.239 42.768C175.897 42.576 175.369 42.3893 174.655 42.208C174.004 42.0373 173.471 41.8667 173.055 41.696C172.649 41.5147 172.297 41.2533 171.999 40.912C171.711 40.56 171.567 40.1013 171.567 39.536C171.567 39.088 171.7 38.6773 171.967 38.304C172.233 37.9307 172.612 37.6373 173.103 37.424C173.593 37.2 174.153 37.088 174.783 37.088C175.753 37.088 176.537 37.3333 177.135 37.824C177.732 38.3147 178.052 38.9867 178.095 39.84H176.639C176.607 39.3813 176.42 39.0133 176.079 38.736C175.748 38.4587 175.3 38.32 174.735 38.32C174.212 38.32 173.796 38.432 173.487 38.656C173.177 38.88 173.023 39.1733 173.023 39.536C173.023 39.824 173.113 40.064 173.295 40.256C173.487 40.4373 173.721 40.5867 173.999 40.704C174.287 40.8107 174.681 40.9333 175.183 41.072C175.812 41.2427 176.324 41.4133 176.719 41.584C177.113 41.744 177.449 41.9893 177.727 42.32C178.015 42.6507 178.164 43.0827 178.175 43.616C178.175 44.096 178.041 44.528 177.775 44.912C177.508 45.296 177.129 45.6 176.639 45.824C176.159 46.0373 175.604 46.144 174.975 46.144ZM63.4205 65.584C63.4205 64.688 63.6018 63.904 63.9645 63.232C64.3271 62.5493 64.8231 62.0213 65.4525 61.648C66.0925 61.2747 66.8018 61.088 67.5805 61.088C68.3485 61.088 69.0151 61.2533 69.5805 61.584C70.1458 61.9147 70.5671 62.3307 70.8445 62.832V61.232H72.3165V70H70.8445V68.368C70.5565 68.88 70.1245 69.3067 69.5485 69.648C68.9831 69.9787 68.3218 70.144 67.5645 70.144C66.7858 70.144 66.0818 69.952 65.4525 69.568C64.8231 69.184 64.3271 68.6453 63.9645 67.952C63.6018 67.2587 63.4205 66.4693 63.4205 65.584ZM70.8445 65.6C70.8445 64.9387 70.7111 64.3627 70.4445 63.872C70.1778 63.3813 69.8151 63.008 69.3565 62.752C68.9085 62.4853 68.4125 62.352 67.8685 62.352C67.3245 62.352 66.8285 62.48 66.3805 62.736C65.9325 62.992 65.5751 63.3653 65.3085 63.856C65.0418 64.3467 64.9085 64.9227 64.9085 65.584C64.9085 66.256 65.0418 66.8427 65.3085 67.344C65.5751 67.8347 65.9325 68.2133 66.3805 68.48C66.8285 68.736 67.3245 68.864 67.8685 68.864C68.4125 68.864 68.9085 68.736 69.3565 68.48C69.8151 68.2133 70.1778 67.8347 70.4445 67.344C70.7111 66.8427 70.8445 66.2613 70.8445 65.6ZM76.233 62.848C76.521 62.3467 76.9476 61.9307 77.513 61.6C78.089 61.2587 78.7556 61.088 79.513 61.088C80.2916 61.088 80.9956 61.2747 81.625 61.648C82.265 62.0213 82.7663 62.5493 83.129 63.232C83.4916 63.904 83.673 64.688 83.673 65.584C83.673 66.4693 83.4916 67.2587 83.129 67.952C82.7663 68.6453 82.265 69.184 81.625 69.568C80.9956 69.952 80.2916 70.144 79.513 70.144C78.7663 70.144 78.105 69.9787 77.529 69.648C76.9636 69.3067 76.5316 68.8853 76.233 68.384V74.16H74.777V61.232H76.233V62.848ZM82.185 65.584C82.185 64.9227 82.0516 64.3467 81.785 63.856C81.5183 63.3653 81.1556 62.992 80.697 62.736C80.249 62.48 79.753 62.352 79.209 62.352C78.6756 62.352 78.1796 62.4853 77.721 62.752C77.273 63.008 76.9103 63.3867 76.633 63.888C76.3663 64.3787 76.233 64.9493 76.233 65.6C76.233 66.2613 76.3663 66.8427 76.633 67.344C76.9103 67.8347 77.273 68.2133 77.721 68.48C78.1796 68.736 78.6756 68.864 79.209 68.864C79.753 68.864 80.249 68.736 80.697 68.48C81.1556 68.2133 81.5183 67.8347 81.785 67.344C82.0516 66.8427 82.185 66.256 82.185 65.584ZM87.0455 62.848C87.3335 62.3467 87.7601 61.9307 88.3255 61.6C88.9015 61.2587 89.5681 61.088 90.3255 61.088C91.1041 61.088 91.8081 61.2747 92.4375 61.648C93.0775 62.0213 93.5788 62.5493 93.9415 63.232C94.3041 63.904 94.4855 64.688 94.4855 65.584C94.4855 66.4693 94.3041 67.2587 93.9415 67.952C93.5788 68.6453 93.0775 69.184 92.4375 69.568C91.8081 69.952 91.1041 70.144 90.3255 70.144C89.5788 70.144 88.9175 69.9787 88.3415 69.648C87.7761 69.3067 87.3441 68.8853 87.0455 68.384V74.16H85.5895V61.232H87.0455V62.848ZM92.9975 65.584C92.9975 64.9227 92.8641 64.3467 92.5975 63.856C92.3308 63.3653 91.9681 62.992 91.5095 62.736C91.0615 62.48 90.5655 62.352 90.0215 62.352C89.4881 62.352 88.9921 62.4853 88.5335 62.752C88.0855 63.008 87.7228 63.3867 87.4455 63.888C87.1788 64.3787 87.0455 64.9493 87.0455 65.6C87.0455 66.2613 87.1788 66.8427 87.4455 67.344C87.7228 67.8347 88.0855 68.2133 88.5335 68.48C88.9921 68.736 89.4881 68.864 90.0215 68.864C90.5655 68.864 91.0615 68.736 91.5095 68.48C91.9681 68.2133 92.3308 67.8347 92.5975 67.344C92.8641 66.8427 92.9975 66.256 92.9975 65.584ZM97.858 58.16V70H96.402V58.16H97.858ZM101.091 59.808C100.814 59.808 100.579 59.712 100.387 59.52C100.195 59.328 100.099 59.0933 100.099 58.816C100.099 58.5387 100.195 58.304 100.387 58.112C100.579 57.92 100.814 57.824 101.091 57.824C101.358 57.824 101.582 57.92 101.763 58.112C101.955 58.304 102.051 58.5387 102.051 58.816C102.051 59.0933 101.955 59.328 101.763 59.52C101.582 59.712 101.358 59.808 101.091 59.808ZM101.795 61.232V70H100.339V61.232H101.795ZM112.277 65.28C112.277 65.5573 112.261 65.8507 112.229 66.16H105.221C105.274 67.024 105.568 67.7013 106.101 68.192C106.645 68.672 107.301 68.912 108.069 68.912C108.698 68.912 109.221 68.768 109.637 68.48C110.064 68.1813 110.362 67.7867 110.533 67.296H112.101C111.866 68.1387 111.397 68.8267 110.693 69.36C109.989 69.8827 109.114 70.144 108.069 70.144C107.237 70.144 106.49 69.9573 105.829 69.584C105.178 69.2107 104.666 68.6827 104.293 68C103.92 67.3067 103.733 66.5067 103.733 65.6C103.733 64.6933 103.914 63.8987 104.277 63.216C104.64 62.5333 105.146 62.0107 105.797 61.648C106.458 61.2747 107.216 61.088 108.069 61.088C108.901 61.088 109.637 61.2693 110.277 61.632C110.917 61.9947 111.408 62.496 111.749 63.136C112.101 63.7653 112.277 64.48 112.277 65.28ZM110.773 64.976C110.773 64.4213 110.65 63.9467 110.405 63.552C110.16 63.1467 109.824 62.8427 109.397 62.64C108.981 62.4267 108.517 62.32 108.005 62.32C107.269 62.32 106.64 62.5547 106.117 63.024C105.605 63.4933 105.312 64.144 105.237 64.976H110.773ZM113.655 65.584C113.655 64.688 113.836 63.904 114.199 63.232C114.562 62.5493 115.058 62.0213 115.687 61.648C116.327 61.2747 117.042 61.088 117.831 61.088C118.514 61.088 119.148 61.248 119.735 61.568C120.322 61.8773 120.77 62.288 121.079 62.8V58.16H122.551V70H121.079V68.352C120.791 68.8747 120.364 69.3067 119.799 69.648C119.234 69.9787 118.572 70.144 117.815 70.144C117.036 70.144 116.327 69.952 115.687 69.568C115.058 69.184 114.562 68.6453 114.199 67.952C113.836 67.2587 113.655 66.4693 113.655 65.584ZM121.079 65.6C121.079 64.9387 120.946 64.3627 120.679 63.872C120.412 63.3813 120.05 63.008 119.591 62.752C119.143 62.4853 118.647 62.352 118.103 62.352C117.559 62.352 117.063 62.48 116.615 62.736C116.167 62.992 115.81 63.3653 115.543 63.856C115.276 64.3467 115.143 64.9227 115.143 65.584C115.143 66.256 115.276 66.8427 115.543 67.344C115.81 67.8347 116.167 68.2133 116.615 68.48C117.063 68.736 117.559 68.864 118.103 68.864C118.647 68.864 119.143 68.736 119.591 68.48C120.05 68.2133 120.412 67.8347 120.679 67.344C120.946 66.8427 121.079 66.2613 121.079 65.6ZM133.629 61.072C134.29 61.072 134.888 61.216 135.421 61.504C135.954 61.7813 136.37 62.2027 136.669 62.768C136.978 63.3333 137.133 64.0213 137.133 64.832V70H135.693V65.04C135.693 64.1653 135.474 63.4987 135.037 63.04C134.6 62.5707 134.002 62.336 133.245 62.336C132.477 62.336 131.864 62.576 131.405 63.056C130.957 63.536 130.733 64.2347 130.733 65.152V70H129.277V58.16H130.733V62.48C131.021 62.032 131.416 61.6853 131.917 61.44C132.429 61.1947 133 61.072 133.629 61.072ZM147.511 65.28C147.511 65.5573 147.495 65.8507 147.463 66.16H140.455C140.509 67.024 140.802 67.7013 141.335 68.192C141.879 68.672 142.535 68.912 143.303 68.912C143.933 68.912 144.455 68.768 144.871 68.48C145.298 68.1813 145.597 67.7867 145.767 67.296H147.335C147.101 68.1387 146.631 68.8267 145.927 69.36C145.223 69.8827 144.349 70.144 143.303 70.144C142.471 70.144 141.725 69.9573 141.063 69.584C140.413 69.2107 139.901 68.6827 139.527 68C139.154 67.3067 138.967 66.5067 138.967 65.6C138.967 64.6933 139.149 63.8987 139.511 63.216C139.874 62.5333 140.381 62.0107 141.031 61.648C141.693 61.2747 142.45 61.088 143.303 61.088C144.135 61.088 144.871 61.2693 145.511 61.632C146.151 61.9947 146.642 62.496 146.983 63.136C147.335 63.7653 147.511 64.48 147.511 65.28ZM146.007 64.976C146.007 64.4213 145.885 63.9467 145.639 63.552C145.394 63.1467 145.058 62.8427 144.631 62.64C144.215 62.4267 143.751 62.32 143.239 62.32C142.503 62.32 141.874 62.5547 141.351 63.024C140.839 63.4933 140.546 64.144 140.471 64.976H146.007ZM150.889 62.656C151.145 62.1547 151.508 61.7653 151.977 61.488C152.457 61.2107 153.039 61.072 153.721 61.072V62.576H153.337C151.705 62.576 150.889 63.4613 150.889 65.232V70H149.433V61.232H150.889V62.656ZM163.402 65.28C163.402 65.5573 163.386 65.8507 163.354 66.16H156.346C156.399 67.024 156.693 67.7013 157.226 68.192C157.77 68.672 158.426 68.912 159.194 68.912C159.823 68.912 160.346 68.768 160.762 68.48C161.189 68.1813 161.487 67.7867 161.658 67.296H163.226C162.991 68.1387 162.522 68.8267 161.818 69.36C161.114 69.8827 160.239 70.144 159.194 70.144C158.362 70.144 157.615 69.9573 156.954 69.584C156.303 69.2107 155.791 68.6827 155.418 68C155.045 67.3067 154.858 66.5067 154.858 65.6C154.858 64.6933 155.039 63.8987 155.402 63.216C155.765 62.5333 156.271 62.0107 156.922 61.648C157.583 61.2747 158.341 61.088 159.194 61.088C160.026 61.088 160.762 61.2693 161.402 61.632C162.042 61.9947 162.533 62.496 162.874 63.136C163.226 63.7653 163.402 64.48 163.402 65.28ZM161.898 64.976C161.898 64.4213 161.775 63.9467 161.53 63.552C161.285 63.1467 160.949 62.8427 160.522 62.64C160.106 62.4267 159.642 62.32 159.13 62.32C158.394 62.32 157.765 62.5547 157.242 63.024C156.73 63.4933 156.437 64.144 156.362 64.976H161.898Z" fill="#143054"/>
<line x1="114" y1="82" x2="114" y2="200" stroke="#143054" stroke-width="2"/>
</g>
<defs>
<linearGradient id="paint0_linear_22_4064" x1="10.4948" y1="108.987" x2="302.916" y2="108.987" gradientUnits="userSpaceOnUse">
<stop stop-color="#DCFFFE"/>
<stop offset="0.450427" stop-color="#B4FCF6"/>
<stop offset="1" stop-color="#C1FAF3"/>
</linearGradient>
<linearGradient id="paint1_linear_22_4064" x1="-1.21818" y1="107.499" x2="350.198" y2="107.499" gradientUnits="userSpaceOnUse">
<stop stop-color="#F03986"/>
<stop offset="0.480583" stop-color="#A95CCC"/>
<stop offset="1" stop-color="#5CE6FE"/>
</linearGradient>
<linearGradient id="paint2_linear_22_4064" x1="-10.7884" y1="174.755" x2="351.217" y2="174.755" gradientUnits="userSpaceOnUse">
<stop stop-color="#143054"/>
<stop offset="1" stop-color="#143054"/>
</linearGradient>
<linearGradient id="paint3_linear_22_4064" x1="175" y1="206.254" x2="175" y2="141.071" gradientUnits="userSpaceOnUse">
<stop stop-color="#F4F5F9"/>
<stop offset="0.464517" stop-color="#F4F5F9" stop-opacity="0.33"/>
<stop offset="0.714517" stop-color="#F9FAFC" stop-opacity="0.12"/>
<stop offset="1" stop-color="white" stop-opacity="0"/>
</linearGradient>
<clipPath id="clip0_22_4064">
<rect width="350" height="209" fill="white"/>
</clipPath>
</defs>
</svg>
