<svg width="350" height="209" viewBox="0 0 350 209" fill="none" xmlns="http://www.w3.org/2000/svg">
<g clip-path="url(#clip0_22_4804)">
<path d="M-5.99996 127.091C-5.99995 124.154 -3.03453 122.146 -0.30716 123.235L28.8506 134.881C29.7585 135.243 30.7652 135.274 31.6935 134.967L73.0931 121.29C73.7465 121.074 74.4433 121.024 75.1209 121.144L111.888 127.665C112.791 127.825 113.722 127.682 114.535 127.257L151.69 107.854C152.207 107.585 152.66 107.21 153.022 106.753L190.126 59.9524C191.075 58.7563 192.603 58.1769 194.105 58.4434L228.627 64.566C230.018 64.8126 231.438 64.3358 232.398 63.3001L268.956 23.8578C269.66 23.0981 270.622 22.629 271.655 22.5426L308.517 19.4553C308.997 19.4151 309.466 19.2918 309.904 19.0908L352.114 -0.296641C354.865 -1.56014 358 0.449723 358 3.4769L358 204.847C358 207.141 356.141 209 353.847 209H-1.84743C-4.14082 209 -6 207.141 -6 204.847L-5.99996 127.091Z" fill="url(#paint0_linear_22_4804)"/>
<path d="M-8 171.299C-8 169.15 -6.36073 167.356 -4.22066 167.163L34.2482 163.692C34.4595 163.673 34.672 163.67 34.8839 163.683L73.5161 166.13C73.7383 166.144 73.9612 166.141 74.1827 166.119L111.963 162.425C112.729 162.35 113.458 162.064 114.071 161.598L151.987 132.789C152.154 132.662 152.311 132.523 152.457 132.372L190.749 92.8501C191.368 92.211 192.176 91.7878 193.054 91.6427L229.909 85.55C230.615 85.4332 231.28 85.1356 231.837 84.6861L268.797 54.8953C269.733 54.1408 270.95 53.8291 272.134 54.0407L308.836 60.6019C309.311 60.6869 309.798 60.6883 310.274 60.6059L355.139 52.8412C357.678 52.4019 360 54.3565 360 56.9329L360 200.847C360 203.141 358.141 205 355.847 205H-3.84744C-6.14082 205 -7.99997 203.141 -7.99997 200.847L-8 171.299Z" fill="url(#paint1_linear_22_4804)"/>
<path d="M-12 186.037C-12 183.743 -10.1408 181.884 -7.84746 181.884H35.4461L74.6758 179.975L112.519 182.643C113.419 182.706 114.315 182.475 115.072 181.984L153.135 157.285L191.27 124.981C191.979 124.38 192.87 124.035 193.798 124L230.622 122.621C231.262 122.597 231.887 122.426 232.449 122.12L269.696 101.89C270.431 101.491 271.269 101.323 272.101 101.408L309.592 105.25C309.899 105.281 310.208 105.278 310.515 105.241L357.348 99.564C359.821 99.2641 362 101.195 362 103.686L362 204.847C362 207.141 360.141 209 357.847 209H-7.84744C-10.1408 209 -12 207.141 -12 204.847V186.037Z" fill="url(#paint2_linear_22_4804)" fill-opacity="0.4"/>
<path d="M-12 186.037C-12 183.743 -10.1408 181.884 -7.84746 181.884H35.4461L74.6758 179.975L112.519 182.643C113.419 182.706 114.315 182.475 115.072 181.984L153.135 157.285L191.27 124.981C191.979 124.38 192.87 124.035 193.798 124L230.622 122.621C231.262 122.597 231.887 122.426 232.449 122.12L269.696 101.89C270.431 101.491 271.269 101.323 272.101 101.408L309.592 105.25C309.899 105.281 310.208 105.278 310.515 105.241L357.348 99.564C359.821 99.2641 362 101.195 362 103.686L362 204.847C362 207.141 360.141 209 357.847 209H-7.84744C-10.1408 209 -12 207.141 -12 204.847V186.037Z" fill="url(#paint3_linear_22_4804)"/>
<path d="M55.6502 43.52H50.7862L49.8902 46H48.3542L52.3862 34.912H54.0662L58.0822 46H56.5462L55.6502 43.52ZM55.2342 42.336L53.2182 36.704L51.2022 42.336H55.2342ZM67.6155 37.232V46H66.1595V44.704C65.8821 45.152 65.4928 45.504 64.9915 45.76C64.5008 46.0053 63.9568 46.128 63.3595 46.128C62.6768 46.128 62.0635 45.9893 61.5195 45.712C60.9755 45.424 60.5435 44.9973 60.2235 44.432C59.9141 43.8667 59.7595 43.1787 59.7595 42.368V37.232H61.1995V42.176C61.1995 43.04 61.4181 43.7067 61.8555 44.176C62.2928 44.6347 62.8901 44.864 63.6475 44.864C64.4261 44.864 65.0395 44.624 65.4875 44.144C65.9355 43.664 66.1595 42.9653 66.1595 42.048V37.232H67.6155ZM71.8498 38.432V43.6C71.8498 44.0267 71.9405 44.3307 72.1218 44.512C72.3032 44.6827 72.6178 44.768 73.0658 44.768H74.1378V46H72.8258C72.0152 46 71.4072 45.8133 71.0018 45.44C70.5965 45.0667 70.3938 44.4533 70.3938 43.6V38.432H69.2578V37.232H70.3938V35.024H71.8498V37.232H74.1378V38.432H71.8498ZM79.726 46.144C78.9046 46.144 78.158 45.9573 77.486 45.584C76.8246 45.2107 76.302 44.6827 75.918 44C75.5446 43.3067 75.358 42.5067 75.358 41.6C75.358 40.704 75.55 39.9147 75.934 39.232C76.3286 38.5387 76.862 38.0107 77.534 37.648C78.206 37.2747 78.958 37.088 79.79 37.088C80.622 37.088 81.374 37.2747 82.046 37.648C82.718 38.0107 83.246 38.5333 83.63 39.216C84.0246 39.8987 84.222 40.6933 84.222 41.6C84.222 42.5067 84.0193 43.3067 83.614 44C83.2193 44.6827 82.6806 45.2107 81.998 45.584C81.3153 45.9573 80.558 46.144 79.726 46.144ZM79.726 44.864C80.2486 44.864 80.7393 44.7413 81.198 44.496C81.6566 44.2507 82.0246 43.8827 82.302 43.392C82.59 42.9013 82.734 42.304 82.734 41.6C82.734 40.896 82.5953 40.2987 82.318 39.808C82.0406 39.3173 81.678 38.9547 81.23 38.72C80.782 38.4747 80.2966 38.352 79.774 38.352C79.2406 38.352 78.75 38.4747 78.302 38.72C77.8646 38.9547 77.5126 39.3173 77.246 39.808C76.9793 40.2987 76.846 40.896 76.846 41.6C76.846 42.3147 76.974 42.9173 77.23 43.408C77.4966 43.8987 77.8486 44.2667 78.286 44.512C78.7233 44.7467 79.2033 44.864 79.726 44.864ZM96.6803 37.072C97.363 37.072 97.971 37.216 98.5043 37.504C99.0377 37.7813 99.459 38.2027 99.7683 38.768C100.078 39.3333 100.232 40.0213 100.232 40.832V46H98.7923V41.04C98.7923 40.1653 98.5737 39.4987 98.1363 39.04C97.7097 38.5707 97.1283 38.336 96.3923 38.336C95.635 38.336 95.0323 38.5813 94.5843 39.072C94.1363 39.552 93.9123 40.2507 93.9123 41.168V46H92.4723V41.04C92.4723 40.1653 92.2537 39.4987 91.8163 39.04C91.3897 38.5707 90.8083 38.336 90.0723 38.336C89.315 38.336 88.7123 38.5813 88.2643 39.072C87.8163 39.552 87.5923 40.2507 87.5923 41.168V46H86.1363V37.232H87.5923V38.496C87.8803 38.0373 88.2643 37.6853 88.7443 37.44C89.235 37.1947 89.7737 37.072 90.3603 37.072C91.0963 37.072 91.747 37.2373 92.3123 37.568C92.8777 37.8987 93.299 38.384 93.5763 39.024C93.8217 38.4053 94.227 37.9253 94.7923 37.584C95.3577 37.2427 95.987 37.072 96.6803 37.072ZM102.077 41.584C102.077 40.688 102.258 39.904 102.621 39.232C102.983 38.5493 103.479 38.0213 104.109 37.648C104.749 37.2747 105.458 37.088 106.237 37.088C107.005 37.088 107.671 37.2533 108.237 37.584C108.802 37.9147 109.223 38.3307 109.501 38.832V37.232H110.973V46H109.501V44.368C109.213 44.88 108.781 45.3067 108.205 45.648C107.639 45.9787 106.978 46.144 106.221 46.144C105.442 46.144 104.738 45.952 104.109 45.568C103.479 45.184 102.983 44.6453 102.621 43.952C102.258 43.2587 102.077 42.4693 102.077 41.584ZM109.501 41.6C109.501 40.9387 109.367 40.3627 109.101 39.872C108.834 39.3813 108.471 39.008 108.013 38.752C107.565 38.4853 107.069 38.352 106.525 38.352C105.981 38.352 105.485 38.48 105.037 38.736C104.589 38.992 104.231 39.3653 103.965 39.856C103.698 40.3467 103.565 40.9227 103.565 41.584C103.565 42.256 103.698 42.8427 103.965 43.344C104.231 43.8347 104.589 44.2133 105.037 44.48C105.485 44.736 105.981 44.864 106.525 44.864C107.069 44.864 107.565 44.736 108.013 44.48C108.471 44.2133 108.834 43.8347 109.101 43.344C109.367 42.8427 109.501 42.2613 109.501 41.6ZM115.209 38.432V43.6C115.209 44.0267 115.3 44.3307 115.481 44.512C115.663 44.6827 115.977 44.768 116.425 44.768H117.497V46H116.185C115.375 46 114.767 45.8133 114.361 45.44C113.956 45.0667 113.753 44.4533 113.753 43.6V38.432H112.617V37.232H113.753V35.024H115.209V37.232H117.497V38.432H115.209ZM120.013 35.808C119.736 35.808 119.501 35.712 119.309 35.52C119.117 35.328 119.021 35.0933 119.021 34.816C119.021 34.5387 119.117 34.304 119.309 34.112C119.501 33.92 119.736 33.824 120.013 33.824C120.28 33.824 120.504 33.92 120.685 34.112C120.877 34.304 120.973 34.5387 120.973 34.816C120.973 35.0933 120.877 35.328 120.685 35.52C120.504 35.712 120.28 35.808 120.013 35.808ZM120.717 37.232V46H119.261V37.232H120.717ZM127.023 46.144C126.202 46.144 125.455 45.9573 124.783 45.584C124.122 45.2107 123.599 44.6827 123.215 44C122.842 43.3067 122.655 42.5067 122.655 41.6C122.655 40.704 122.847 39.9147 123.231 39.232C123.626 38.5387 124.159 38.0107 124.831 37.648C125.503 37.2747 126.255 37.088 127.087 37.088C127.919 37.088 128.671 37.2747 129.343 37.648C130.015 38.0107 130.543 38.5333 130.927 39.216C131.322 39.8987 131.519 40.6933 131.519 41.6C131.519 42.5067 131.316 43.3067 130.911 44C130.516 44.6827 129.978 45.2107 129.295 45.584C128.612 45.9573 127.855 46.144 127.023 46.144ZM127.023 44.864C127.546 44.864 128.036 44.7413 128.495 44.496C128.954 44.2507 129.322 43.8827 129.599 43.392C129.887 42.9013 130.031 42.304 130.031 41.6C130.031 40.896 129.892 40.2987 129.615 39.808C129.338 39.3173 128.975 38.9547 128.527 38.72C128.079 38.4747 127.594 38.352 127.071 38.352C126.538 38.352 126.047 38.4747 125.599 38.72C125.162 38.9547 124.81 39.3173 124.543 39.808C124.276 40.2987 124.143 40.896 124.143 41.6C124.143 42.3147 124.271 42.9173 124.527 43.408C124.794 43.8987 125.146 44.2667 125.583 44.512C126.02 44.7467 126.5 44.864 127.023 44.864ZM137.705 37.072C138.772 37.072 139.636 37.3973 140.297 38.048C140.959 38.688 141.289 39.616 141.289 40.832V46H139.849V41.04C139.849 40.1653 139.631 39.4987 139.193 39.04C138.756 38.5707 138.159 38.336 137.401 38.336C136.633 38.336 136.02 38.576 135.561 39.056C135.113 39.536 134.889 40.2347 134.889 41.152V46H133.433V37.232H134.889V38.48C135.177 38.032 135.567 37.6853 136.057 37.44C136.559 37.1947 137.108 37.072 137.705 37.072ZM159.613 37.232L156.877 46H155.373L153.261 39.04L151.149 46H149.645L146.893 37.232H148.381L150.397 44.592L152.573 37.232H154.061L156.189 44.608L158.173 37.232H159.613ZM160.514 41.584C160.514 40.688 160.696 39.904 161.058 39.232C161.421 38.5493 161.917 38.0213 162.546 37.648C163.186 37.2747 163.896 37.088 164.674 37.088C165.442 37.088 166.109 37.2533 166.674 37.584C167.24 37.9147 167.661 38.3307 167.938 38.832V37.232H169.41V46H167.938V44.368C167.65 44.88 167.218 45.3067 166.642 45.648C166.077 45.9787 165.416 46.144 164.658 46.144C163.88 46.144 163.176 45.952 162.546 45.568C161.917 45.184 161.421 44.6453 161.058 43.952C160.696 43.2587 160.514 42.4693 160.514 41.584ZM167.938 41.6C167.938 40.9387 167.805 40.3627 167.538 39.872C167.272 39.3813 166.909 39.008 166.45 38.752C166.002 38.4853 165.506 38.352 164.962 38.352C164.418 38.352 163.922 38.48 163.474 38.736C163.026 38.992 162.669 39.3653 162.402 39.856C162.136 40.3467 162.002 40.9227 162.002 41.584C162.002 42.256 162.136 42.8427 162.402 43.344C162.669 43.8347 163.026 44.2133 163.474 44.48C163.922 44.736 164.418 44.864 164.962 44.864C165.506 44.864 166.002 44.736 166.45 44.48C166.909 44.2133 167.272 43.8347 167.538 43.344C167.805 42.8427 167.938 42.2613 167.938 41.6ZM174.975 46.144C174.303 46.144 173.7 46.032 173.167 45.808C172.633 45.5733 172.212 45.2533 171.903 44.848C171.593 44.432 171.423 43.9573 171.391 43.424H172.895C172.937 43.8613 173.14 44.2187 173.503 44.496C173.876 44.7733 174.361 44.912 174.959 44.912C175.513 44.912 175.951 44.7893 176.271 44.544C176.591 44.2987 176.751 43.9893 176.751 43.616C176.751 43.232 176.58 42.9493 176.239 42.768C175.897 42.576 175.369 42.3893 174.655 42.208C174.004 42.0373 173.471 41.8667 173.055 41.696C172.649 41.5147 172.297 41.2533 171.999 40.912C171.711 40.56 171.567 40.1013 171.567 39.536C171.567 39.088 171.7 38.6773 171.967 38.304C172.233 37.9307 172.612 37.6373 173.103 37.424C173.593 37.2 174.153 37.088 174.783 37.088C175.753 37.088 176.537 37.3333 177.135 37.824C177.732 38.3147 178.052 38.9867 178.095 39.84H176.639C176.607 39.3813 176.42 39.0133 176.079 38.736C175.748 38.4587 175.3 38.32 174.735 38.32C174.212 38.32 173.796 38.432 173.487 38.656C173.177 38.88 173.023 39.1733 173.023 39.536C173.023 39.824 173.113 40.064 173.295 40.256C173.487 40.4373 173.721 40.5867 173.999 40.704C174.287 40.8107 174.681 40.9333 175.183 41.072C175.812 41.2427 176.324 41.4133 176.719 41.584C177.113 41.744 177.449 41.9893 177.727 42.32C178.015 42.6507 178.164 43.0827 178.175 43.616C178.175 44.096 178.041 44.528 177.775 44.912C177.508 45.296 177.129 45.6 176.639 45.824C176.159 46.0373 175.604 46.144 174.975 46.144ZM63.4205 65.584C63.4205 64.688 63.6018 63.904 63.9645 63.232C64.3271 62.5493 64.8231 62.0213 65.4525 61.648C66.0925 61.2747 66.8018 61.088 67.5805 61.088C68.3485 61.088 69.0151 61.2533 69.5805 61.584C70.1458 61.9147 70.5671 62.3307 70.8445 62.832V61.232H72.3165V70H70.8445V68.368C70.5565 68.88 70.1245 69.3067 69.5485 69.648C68.9831 69.9787 68.3218 70.144 67.5645 70.144C66.7858 70.144 66.0818 69.952 65.4525 69.568C64.8231 69.184 64.3271 68.6453 63.9645 67.952C63.6018 67.2587 63.4205 66.4693 63.4205 65.584ZM70.8445 65.6C70.8445 64.9387 70.7111 64.3627 70.4445 63.872C70.1778 63.3813 69.8151 63.008 69.3565 62.752C68.9085 62.4853 68.4125 62.352 67.8685 62.352C67.3245 62.352 66.8285 62.48 66.3805 62.736C65.9325 62.992 65.5751 63.3653 65.3085 63.856C65.0418 64.3467 64.9085 64.9227 64.9085 65.584C64.9085 66.256 65.0418 66.8427 65.3085 67.344C65.5751 67.8347 65.9325 68.2133 66.3805 68.48C66.8285 68.736 67.3245 68.864 67.8685 68.864C68.4125 68.864 68.9085 68.736 69.3565 68.48C69.8151 68.2133 70.1778 67.8347 70.4445 67.344C70.7111 66.8427 70.8445 66.2613 70.8445 65.6ZM76.233 62.848C76.521 62.3467 76.9476 61.9307 77.513 61.6C78.089 61.2587 78.7556 61.088 79.513 61.088C80.2916 61.088 80.9956 61.2747 81.625 61.648C82.265 62.0213 82.7663 62.5493 83.129 63.232C83.4916 63.904 83.673 64.688 83.673 65.584C83.673 66.4693 83.4916 67.2587 83.129 67.952C82.7663 68.6453 82.265 69.184 81.625 69.568C80.9956 69.952 80.2916 70.144 79.513 70.144C78.7663 70.144 78.105 69.9787 77.529 69.648C76.9636 69.3067 76.5316 68.8853 76.233 68.384V74.16H74.777V61.232H76.233V62.848ZM82.185 65.584C82.185 64.9227 82.0516 64.3467 81.785 63.856C81.5183 63.3653 81.1556 62.992 80.697 62.736C80.249 62.48 79.753 62.352 79.209 62.352C78.6756 62.352 78.1796 62.4853 77.721 62.752C77.273 63.008 76.9103 63.3867 76.633 63.888C76.3663 64.3787 76.233 64.9493 76.233 65.6C76.233 66.2613 76.3663 66.8427 76.633 67.344C76.9103 67.8347 77.273 68.2133 77.721 68.48C78.1796 68.736 78.6756 68.864 79.209 68.864C79.753 68.864 80.249 68.736 80.697 68.48C81.1556 68.2133 81.5183 67.8347 81.785 67.344C82.0516 66.8427 82.185 66.256 82.185 65.584ZM87.0455 62.848C87.3335 62.3467 87.7601 61.9307 88.3255 61.6C88.9015 61.2587 89.5681 61.088 90.3255 61.088C91.1041 61.088 91.8081 61.2747 92.4375 61.648C93.0775 62.0213 93.5788 62.5493 93.9415 63.232C94.3041 63.904 94.4855 64.688 94.4855 65.584C94.4855 66.4693 94.3041 67.2587 93.9415 67.952C93.5788 68.6453 93.0775 69.184 92.4375 69.568C91.8081 69.952 91.1041 70.144 90.3255 70.144C89.5788 70.144 88.9175 69.9787 88.3415 69.648C87.7761 69.3067 87.3441 68.8853 87.0455 68.384V74.16H85.5895V61.232H87.0455V62.848ZM92.9975 65.584C92.9975 64.9227 92.8641 64.3467 92.5975 63.856C92.3308 63.3653 91.9681 62.992 91.5095 62.736C91.0615 62.48 90.5655 62.352 90.0215 62.352C89.4881 62.352 88.9921 62.4853 88.5335 62.752C88.0855 63.008 87.7228 63.3867 87.4455 63.888C87.1788 64.3787 87.0455 64.9493 87.0455 65.6C87.0455 66.2613 87.1788 66.8427 87.4455 67.344C87.7228 67.8347 88.0855 68.2133 88.5335 68.48C88.9921 68.736 89.4881 68.864 90.0215 68.864C90.5655 68.864 91.0615 68.736 91.5095 68.48C91.9681 68.2133 92.3308 67.8347 92.5975 67.344C92.8641 66.8427 92.9975 66.256 92.9975 65.584ZM97.858 58.16V70H96.402V58.16H97.858ZM101.091 59.808C100.814 59.808 100.579 59.712 100.387 59.52C100.195 59.328 100.099 59.0933 100.099 58.816C100.099 58.5387 100.195 58.304 100.387 58.112C100.579 57.92 100.814 57.824 101.091 57.824C101.358 57.824 101.582 57.92 101.763 58.112C101.955 58.304 102.051 58.5387 102.051 58.816C102.051 59.0933 101.955 59.328 101.763 59.52C101.582 59.712 101.358 59.808 101.091 59.808ZM101.795 61.232V70H100.339V61.232H101.795ZM112.277 65.28C112.277 65.5573 112.261 65.8507 112.229 66.16H105.221C105.274 67.024 105.568 67.7013 106.101 68.192C106.645 68.672 107.301 68.912 108.069 68.912C108.698 68.912 109.221 68.768 109.637 68.48C110.064 68.1813 110.362 67.7867 110.533 67.296H112.101C111.866 68.1387 111.397 68.8267 110.693 69.36C109.989 69.8827 109.114 70.144 108.069 70.144C107.237 70.144 106.49 69.9573 105.829 69.584C105.178 69.2107 104.666 68.6827 104.293 68C103.92 67.3067 103.733 66.5067 103.733 65.6C103.733 64.6933 103.914 63.8987 104.277 63.216C104.64 62.5333 105.146 62.0107 105.797 61.648C106.458 61.2747 107.216 61.088 108.069 61.088C108.901 61.088 109.637 61.2693 110.277 61.632C110.917 61.9947 111.408 62.496 111.749 63.136C112.101 63.7653 112.277 64.48 112.277 65.28ZM110.773 64.976C110.773 64.4213 110.65 63.9467 110.405 63.552C110.16 63.1467 109.824 62.8427 109.397 62.64C108.981 62.4267 108.517 62.32 108.005 62.32C107.269 62.32 106.64 62.5547 106.117 63.024C105.605 63.4933 105.312 64.144 105.237 64.976H110.773ZM113.655 65.584C113.655 64.688 113.836 63.904 114.199 63.232C114.562 62.5493 115.058 62.0213 115.687 61.648C116.327 61.2747 117.042 61.088 117.831 61.088C118.514 61.088 119.148 61.248 119.735 61.568C120.322 61.8773 120.77 62.288 121.079 62.8V58.16H122.551V70H121.079V68.352C120.791 68.8747 120.364 69.3067 119.799 69.648C119.234 69.9787 118.572 70.144 117.815 70.144C117.036 70.144 116.327 69.952 115.687 69.568C115.058 69.184 114.562 68.6453 114.199 67.952C113.836 67.2587 113.655 66.4693 113.655 65.584ZM121.079 65.6C121.079 64.9387 120.946 64.3627 120.679 63.872C120.412 63.3813 120.05 63.008 119.591 62.752C119.143 62.4853 118.647 62.352 118.103 62.352C117.559 62.352 117.063 62.48 116.615 62.736C116.167 62.992 115.81 63.3653 115.543 63.856C115.276 64.3467 115.143 64.9227 115.143 65.584C115.143 66.256 115.276 66.8427 115.543 67.344C115.81 67.8347 116.167 68.2133 116.615 68.48C117.063 68.736 117.559 68.864 118.103 68.864C118.647 68.864 119.143 68.736 119.591 68.48C120.05 68.2133 120.412 67.8347 120.679 67.344C120.946 66.8427 121.079 66.2613 121.079 65.6ZM133.629 61.072C134.29 61.072 134.888 61.216 135.421 61.504C135.954 61.7813 136.37 62.2027 136.669 62.768C136.978 63.3333 137.133 64.0213 137.133 64.832V70H135.693V65.04C135.693 64.1653 135.474 63.4987 135.037 63.04C134.6 62.5707 134.002 62.336 133.245 62.336C132.477 62.336 131.864 62.576 131.405 63.056C130.957 63.536 130.733 64.2347 130.733 65.152V70H129.277V58.16H130.733V62.48C131.021 62.032 131.416 61.6853 131.917 61.44C132.429 61.1947 133 61.072 133.629 61.072ZM147.511 65.28C147.511 65.5573 147.495 65.8507 147.463 66.16H140.455C140.509 67.024 140.802 67.7013 141.335 68.192C141.879 68.672 142.535 68.912 143.303 68.912C143.933 68.912 144.455 68.768 144.871 68.48C145.298 68.1813 145.597 67.7867 145.767 67.296H147.335C147.101 68.1387 146.631 68.8267 145.927 69.36C145.223 69.8827 144.349 70.144 143.303 70.144C142.471 70.144 141.725 69.9573 141.063 69.584C140.413 69.2107 139.901 68.6827 139.527 68C139.154 67.3067 138.967 66.5067 138.967 65.6C138.967 64.6933 139.149 63.8987 139.511 63.216C139.874 62.5333 140.381 62.0107 141.031 61.648C141.693 61.2747 142.45 61.088 143.303 61.088C144.135 61.088 144.871 61.2693 145.511 61.632C146.151 61.9947 146.642 62.496 146.983 63.136C147.335 63.7653 147.511 64.48 147.511 65.28ZM146.007 64.976C146.007 64.4213 145.885 63.9467 145.639 63.552C145.394 63.1467 145.058 62.8427 144.631 62.64C144.215 62.4267 143.751 62.32 143.239 62.32C142.503 62.32 141.874 62.5547 141.351 63.024C140.839 63.4933 140.546 64.144 140.471 64.976H146.007ZM150.889 62.656C151.145 62.1547 151.508 61.7653 151.977 61.488C152.457 61.2107 153.039 61.072 153.721 61.072V62.576H153.337C151.705 62.576 150.889 63.4613 150.889 65.232V70H149.433V61.232H150.889V62.656ZM163.402 65.28C163.402 65.5573 163.386 65.8507 163.354 66.16H156.346C156.399 67.024 156.693 67.7013 157.226 68.192C157.77 68.672 158.426 68.912 159.194 68.912C159.823 68.912 160.346 68.768 160.762 68.48C161.189 68.1813 161.487 67.7867 161.658 67.296H163.226C162.991 68.1387 162.522 68.8267 161.818 69.36C161.114 69.8827 160.239 70.144 159.194 70.144C158.362 70.144 157.615 69.9573 156.954 69.584C156.303 69.2107 155.791 68.6827 155.418 68C155.045 67.3067 154.858 66.5067 154.858 65.6C154.858 64.6933 155.039 63.8987 155.402 63.216C155.765 62.5333 156.271 62.0107 156.922 61.648C157.583 61.2747 158.341 61.088 159.194 61.088C160.026 61.088 160.762 61.2693 161.402 61.632C162.042 61.9947 162.533 62.496 162.874 63.136C163.226 63.7653 163.402 64.48 163.402 65.28ZM161.898 64.976C161.898 64.4213 161.775 63.9467 161.53 63.552C161.285 63.1467 160.949 62.8427 160.522 62.64C160.106 62.4267 159.642 62.32 159.13 62.32C158.394 62.32 157.765 62.5547 157.242 63.024C156.73 63.4933 156.437 64.144 156.362 64.976H161.898Z" fill="white"/>
<line x1="114" y1="82" x2="114" y2="200" stroke="white" stroke-width="2"/>
<rect x="236.244" y="141.5" width="8" height="8" rx="4" fill="#BFFBF4"/>
<path d="M255.099 149.072C254.437 149.072 253.832 148.918 253.286 148.611C252.74 148.297 252.306 147.863 251.985 147.31C251.671 146.75 251.514 146.121 251.514 145.425C251.514 144.728 251.671 144.103 251.985 143.55C252.306 142.99 252.74 142.557 253.286 142.249C253.832 141.935 254.437 141.778 255.099 141.778C255.768 141.778 256.376 141.935 256.923 142.249C257.469 142.557 257.899 142.987 258.213 143.54C258.527 144.093 258.684 144.721 258.684 145.425C258.684 146.128 258.527 146.757 258.213 147.31C257.899 147.863 257.469 148.297 256.923 148.611C256.376 148.918 255.768 149.072 255.099 149.072ZM255.099 148.262C255.598 148.262 256.045 148.146 256.441 147.914C256.844 147.682 257.158 147.351 257.383 146.92C257.616 146.49 257.732 145.992 257.732 145.425C257.732 144.851 257.616 144.353 257.383 143.929C257.158 143.499 256.847 143.168 256.451 142.936C256.055 142.703 255.604 142.587 255.099 142.587C254.594 142.587 254.143 142.703 253.747 142.936C253.351 143.168 253.037 143.499 252.804 143.929C252.579 144.353 252.466 144.851 252.466 145.425C252.466 145.992 252.579 146.49 252.804 146.92C253.037 147.351 253.351 147.682 253.747 147.914C254.15 148.146 254.601 148.262 255.099 148.262ZM260.847 144.298C261.011 143.977 261.243 143.728 261.544 143.55C261.851 143.373 262.223 143.284 262.66 143.284V144.247H262.415C261.37 144.247 260.847 144.814 260.847 145.947V149H259.915V143.386H260.847V144.298ZM266.052 143.294C266.537 143.294 266.96 143.4 267.322 143.612C267.691 143.823 267.964 144.09 268.141 144.411V143.386H269.084V149.123C269.084 149.635 268.975 150.089 268.756 150.485C268.538 150.888 268.223 151.202 267.814 151.428C267.411 151.653 266.939 151.766 266.4 151.766C265.662 151.766 265.048 151.592 264.556 151.243C264.064 150.895 263.774 150.42 263.685 149.82H264.607C264.71 150.161 264.921 150.434 265.242 150.639C265.563 150.851 265.949 150.957 266.4 150.957C266.912 150.957 267.329 150.796 267.65 150.475C267.978 150.154 268.141 149.703 268.141 149.123V147.945C267.957 148.273 267.684 148.546 267.322 148.764C266.96 148.983 266.537 149.092 266.052 149.092C265.553 149.092 265.099 148.969 264.689 148.723C264.286 148.478 263.969 148.133 263.737 147.689C263.504 147.245 263.388 146.74 263.388 146.173C263.388 145.599 263.504 145.097 263.737 144.667C263.969 144.23 264.286 143.892 264.689 143.653C265.099 143.414 265.553 143.294 266.052 143.294ZM268.141 146.183C268.141 145.76 268.056 145.391 267.885 145.077C267.715 144.762 267.482 144.523 267.189 144.36C266.902 144.189 266.584 144.103 266.236 144.103C265.888 144.103 265.57 144.185 265.283 144.349C264.997 144.513 264.768 144.752 264.597 145.066C264.426 145.38 264.341 145.749 264.341 146.173C264.341 146.603 264.426 146.979 264.597 147.3C264.768 147.614 264.997 147.856 265.283 148.027C265.57 148.191 265.888 148.273 266.236 148.273C266.584 148.273 266.902 148.191 267.189 148.027C267.482 147.856 267.715 147.614 267.885 147.3C268.056 146.979 268.141 146.606 268.141 146.183ZM270.311 146.173C270.311 145.599 270.427 145.097 270.659 144.667C270.891 144.23 271.209 143.892 271.612 143.653C272.022 143.414 272.476 143.294 272.974 143.294C273.466 143.294 273.893 143.4 274.255 143.612C274.617 143.823 274.886 144.09 275.064 144.411V143.386H276.006V149H275.064V147.955C274.88 148.283 274.603 148.556 274.234 148.775C273.872 148.986 273.449 149.092 272.964 149.092C272.466 149.092 272.015 148.969 271.612 148.723C271.209 148.478 270.891 148.133 270.659 147.689C270.427 147.245 270.311 146.74 270.311 146.173ZM275.064 146.183C275.064 145.76 274.979 145.391 274.808 145.077C274.637 144.762 274.405 144.523 274.111 144.36C273.825 144.189 273.507 144.103 273.159 144.103C272.81 144.103 272.493 144.185 272.206 144.349C271.919 144.513 271.69 144.752 271.52 145.066C271.349 145.38 271.264 145.749 271.264 146.173C271.264 146.603 271.349 146.979 271.52 147.3C271.69 147.614 271.919 147.856 272.206 148.027C272.493 148.191 272.81 148.273 273.159 148.273C273.507 148.273 273.825 148.191 274.111 148.027C274.405 147.856 274.637 147.614 274.808 147.3C274.979 146.979 275.064 146.606 275.064 146.183ZM280.317 143.284C281 143.284 281.553 143.492 281.976 143.909C282.4 144.319 282.612 144.913 282.612 145.691V149H281.69V145.824C281.69 145.264 281.55 144.838 281.27 144.544C280.99 144.243 280.607 144.093 280.122 144.093C279.631 144.093 279.238 144.247 278.944 144.554C278.657 144.861 278.514 145.309 278.514 145.896V149H277.582V143.386H278.514V144.185C278.698 143.899 278.948 143.677 279.262 143.52C279.583 143.362 279.935 143.284 280.317 143.284ZM284.616 142.475C284.438 142.475 284.288 142.413 284.165 142.29C284.042 142.167 283.981 142.017 283.981 141.84C283.981 141.662 284.042 141.512 284.165 141.389C284.288 141.266 284.438 141.204 284.616 141.204C284.787 141.204 284.93 141.266 285.046 141.389C285.169 141.512 285.23 141.662 285.23 141.84C285.23 142.017 285.169 142.167 285.046 142.29C284.93 142.413 284.787 142.475 284.616 142.475ZM285.067 143.386V149H284.134V143.386H285.067ZM286.307 146.183C286.307 145.602 286.423 145.097 286.655 144.667C286.887 144.23 287.208 143.892 287.618 143.653C288.035 143.414 288.509 143.294 289.042 143.294C289.732 143.294 290.299 143.461 290.743 143.796C291.193 144.131 291.49 144.595 291.634 145.189H290.63C290.534 144.848 290.346 144.578 290.066 144.38C289.793 144.182 289.452 144.083 289.042 144.083C288.509 144.083 288.079 144.267 287.751 144.636C287.424 144.998 287.26 145.514 287.26 146.183C287.26 146.859 287.424 147.381 287.751 147.75C288.079 148.119 288.509 148.303 289.042 148.303C289.452 148.303 289.793 148.208 290.066 148.017C290.34 147.825 290.527 147.552 290.63 147.197H291.634C291.484 147.771 291.183 148.232 290.732 148.58C290.282 148.921 289.718 149.092 289.042 149.092C288.509 149.092 288.035 148.973 287.618 148.734C287.208 148.495 286.887 148.157 286.655 147.72C286.423 147.282 286.307 146.77 286.307 146.183ZM300.587 143.386V149H299.655V148.17C299.477 148.457 299.228 148.682 298.907 148.846C298.593 149.003 298.245 149.082 297.862 149.082C297.425 149.082 297.033 148.993 296.684 148.816C296.336 148.631 296.059 148.358 295.855 147.996C295.656 147.634 295.557 147.194 295.557 146.675V143.386H296.479V146.552C296.479 147.105 296.619 147.532 296.899 147.832C297.179 148.126 297.562 148.273 298.047 148.273C298.545 148.273 298.938 148.119 299.225 147.812C299.512 147.504 299.655 147.057 299.655 146.47V143.386H300.587ZM304.896 143.284C305.579 143.284 306.132 143.492 306.556 143.909C306.979 144.319 307.191 144.913 307.191 145.691V149H306.269V145.824C306.269 145.264 306.129 144.838 305.849 144.544C305.569 144.243 305.187 144.093 304.702 144.093C304.21 144.093 303.817 144.247 303.524 144.554C303.237 144.861 303.093 145.309 303.093 145.896V149H302.161V143.386H303.093V144.185C303.278 143.899 303.527 143.677 303.841 143.52C304.162 143.362 304.514 143.284 304.896 143.284ZM309.195 142.475C309.018 142.475 308.867 142.413 308.744 142.29C308.621 142.167 308.56 142.017 308.56 141.84C308.56 141.662 308.621 141.512 308.744 141.389C308.867 141.266 309.018 141.204 309.195 141.204C309.366 141.204 309.509 141.266 309.625 141.389C309.748 141.512 309.81 141.662 309.81 141.84C309.81 142.017 309.748 142.167 309.625 142.29C309.509 142.413 309.366 142.475 309.195 142.475ZM309.646 143.386V149H308.714V143.386H309.646ZM312.372 144.155V147.463C312.372 147.737 312.43 147.931 312.546 148.047C312.662 148.157 312.863 148.211 313.15 148.211H313.837V149H312.997C312.478 149 312.088 148.88 311.829 148.641C311.569 148.402 311.44 148.01 311.44 147.463V144.155H310.712V143.386H311.44V141.973H312.372V143.386H313.837V144.155H312.372ZM316.953 149.092C316.523 149.092 316.137 149.02 315.796 148.877C315.454 148.727 315.185 148.522 314.987 148.262C314.788 147.996 314.679 147.692 314.659 147.351H315.622C315.649 147.631 315.779 147.86 316.011 148.037C316.25 148.215 316.561 148.303 316.943 148.303C317.298 148.303 317.578 148.225 317.783 148.068C317.988 147.911 318.09 147.713 318.09 147.474C318.09 147.228 317.981 147.047 317.763 146.931C317.544 146.808 317.206 146.688 316.749 146.572C316.332 146.463 315.99 146.354 315.724 146.244C315.465 146.128 315.239 145.961 315.048 145.742C314.864 145.517 314.771 145.223 314.771 144.861C314.771 144.575 314.857 144.312 315.028 144.073C315.198 143.834 315.441 143.646 315.755 143.509C316.069 143.366 316.428 143.294 316.83 143.294C317.452 143.294 317.954 143.451 318.336 143.765C318.719 144.08 318.924 144.51 318.951 145.056H318.019C317.998 144.762 317.879 144.527 317.66 144.349C317.448 144.172 317.162 144.083 316.8 144.083C316.465 144.083 316.199 144.155 316.001 144.298C315.803 144.441 315.704 144.629 315.704 144.861C315.704 145.046 315.762 145.2 315.878 145.322C316.001 145.439 316.151 145.534 316.328 145.609C316.513 145.678 316.766 145.756 317.087 145.845C317.489 145.954 317.817 146.063 318.07 146.173C318.323 146.275 318.538 146.432 318.715 146.644C318.9 146.856 318.995 147.132 319.002 147.474C319.002 147.781 318.917 148.058 318.746 148.303C318.575 148.549 318.333 148.744 318.019 148.887C317.711 149.024 317.356 149.092 316.953 149.092Z" fill="white"/>
<rect x="236.244" y="160.699" width="8" height="8" rx="4" fill="#BB54BC"/>
<path d="M256.636 163.148C256.636 163.743 256.431 164.238 256.021 164.634C255.618 165.023 255 165.218 254.167 165.218H252.794V168.199H251.862V161.059H254.167C254.973 161.059 255.584 161.253 256.001 161.643C256.424 162.032 256.636 162.534 256.636 163.148ZM254.167 164.449C254.686 164.449 255.068 164.337 255.314 164.111C255.56 163.886 255.683 163.565 255.683 163.148C255.683 162.268 255.178 161.827 254.167 161.827H252.794V164.449H254.167ZM258.726 163.497C258.89 163.176 259.123 162.927 259.423 162.749C259.73 162.571 260.103 162.483 260.54 162.483V163.446H260.294C259.249 163.446 258.726 164.012 258.726 165.146V168.199H257.794V162.585H258.726V163.497ZM264.064 168.291C263.538 168.291 263.06 168.171 262.63 167.932C262.206 167.693 261.872 167.355 261.626 166.918C261.387 166.474 261.267 165.962 261.267 165.382C261.267 164.808 261.39 164.303 261.636 163.866C261.889 163.422 262.23 163.084 262.661 162.851C263.091 162.612 263.572 162.493 264.105 162.493C264.638 162.493 265.119 162.612 265.549 162.851C265.98 163.084 266.318 163.418 266.564 163.855C266.816 164.292 266.943 164.801 266.943 165.382C266.943 165.962 266.813 166.474 266.553 166.918C266.301 167.355 265.956 167.693 265.519 167.932C265.082 168.171 264.597 168.291 264.064 168.291ZM264.064 167.471C264.399 167.471 264.713 167.393 265.006 167.236C265.3 167.079 265.536 166.843 265.713 166.529C265.898 166.215 265.99 165.832 265.99 165.382C265.99 164.931 265.901 164.548 265.724 164.234C265.546 163.92 265.314 163.688 265.027 163.538C264.74 163.381 264.429 163.302 264.095 163.302C263.753 163.302 263.439 163.381 263.152 163.538C262.872 163.688 262.647 163.92 262.476 164.234C262.305 164.548 262.22 164.931 262.22 165.382C262.22 165.839 262.302 166.225 262.466 166.539C262.637 166.853 262.862 167.089 263.142 167.246C263.422 167.396 263.729 167.471 264.064 167.471ZM270.453 163.353H269.275V168.199H268.342V163.353H267.615V162.585H268.342V162.186C268.342 161.557 268.503 161.1 268.824 160.813C269.152 160.519 269.674 160.372 270.391 160.372V161.151C269.981 161.151 269.691 161.233 269.52 161.397C269.357 161.554 269.275 161.817 269.275 162.186V162.585H270.453V163.353ZM272.021 161.673C271.843 161.673 271.693 161.612 271.57 161.489C271.447 161.366 271.386 161.216 271.386 161.038C271.386 160.861 271.447 160.71 271.57 160.588C271.693 160.465 271.843 160.403 272.021 160.403C272.192 160.403 272.335 160.465 272.451 160.588C272.574 160.71 272.636 160.861 272.636 161.038C272.636 161.216 272.574 161.366 272.451 161.489C272.335 161.612 272.192 161.673 272.021 161.673ZM272.472 162.585V168.199H271.54V162.585H272.472ZM275.198 163.353V166.662C275.198 166.935 275.256 167.13 275.372 167.246C275.488 167.355 275.689 167.41 275.976 167.41H276.662V168.199H275.822C275.303 168.199 274.914 168.079 274.655 167.84C274.395 167.601 274.265 167.208 274.265 166.662V163.353H273.538V162.585H274.265V161.171H275.198V162.585H276.662V163.353H275.198ZM279.779 168.291C279.349 168.291 278.963 168.219 278.622 168.076C278.28 167.926 278.01 167.721 277.812 167.461C277.614 167.195 277.505 166.891 277.485 166.549H278.448C278.475 166.829 278.605 167.058 278.837 167.236C279.076 167.413 279.387 167.502 279.769 167.502C280.124 167.502 280.404 167.424 280.609 167.267C280.814 167.109 280.916 166.911 280.916 166.672C280.916 166.427 280.807 166.246 280.588 166.129C280.37 166.007 280.032 165.887 279.574 165.771C279.158 165.662 278.816 165.552 278.55 165.443C278.29 165.327 278.065 165.16 277.874 164.941C277.689 164.716 277.597 164.422 277.597 164.06C277.597 163.773 277.683 163.51 277.853 163.271C278.024 163.032 278.267 162.845 278.581 162.708C278.895 162.565 279.253 162.493 279.656 162.493C280.278 162.493 280.78 162.65 281.162 162.964C281.545 163.278 281.749 163.708 281.777 164.255H280.845C280.824 163.961 280.705 163.726 280.486 163.548C280.274 163.37 279.988 163.282 279.626 163.282C279.291 163.282 279.025 163.353 278.827 163.497C278.628 163.64 278.529 163.828 278.529 164.06C278.529 164.245 278.588 164.398 278.704 164.521C278.827 164.637 278.977 164.733 279.154 164.808C279.339 164.876 279.591 164.955 279.912 165.044C280.315 165.153 280.643 165.262 280.896 165.371C281.148 165.474 281.364 165.631 281.541 165.843C281.726 166.054 281.821 166.331 281.828 166.672C281.828 166.98 281.743 167.256 281.572 167.502C281.401 167.748 281.159 167.943 280.845 168.086C280.537 168.223 280.182 168.291 279.779 168.291Z" fill="white"/>
<rect x="236.244" y="179.898" width="8" height="8" rx="4" fill="#6478BB"/>
<path d="M256.636 182.347C256.636 182.942 256.431 183.437 256.021 183.833C255.618 184.222 255 184.417 254.167 184.417H252.794V187.398H251.862V180.258H254.167C254.973 180.258 255.584 180.452 256.001 180.842C256.424 181.231 256.636 181.733 256.636 182.347ZM254.167 183.648C254.686 183.648 255.068 183.536 255.314 183.31C255.56 183.085 255.683 182.764 255.683 182.347C255.683 181.466 255.178 181.026 254.167 181.026H252.794V183.648H254.167ZM262.568 182.347C262.568 182.942 262.363 183.437 261.953 183.833C261.55 184.222 260.932 184.417 260.099 184.417H258.726V187.398H257.794V180.258H260.099C260.905 180.258 261.516 180.452 261.933 180.842C262.356 181.231 262.568 181.733 262.568 182.347ZM260.099 183.648C260.618 183.648 261.001 183.536 261.246 183.31C261.492 183.085 261.615 182.764 261.615 182.347C261.615 181.466 261.11 181.026 260.099 181.026H258.726V183.648H260.099ZM263.378 183.823C263.378 183.126 263.535 182.501 263.849 181.948C264.164 181.388 264.59 180.951 265.13 180.637C265.676 180.323 266.281 180.166 266.943 180.166C267.722 180.166 268.401 180.353 268.982 180.729C269.562 181.105 269.986 181.637 270.252 182.327H269.135C268.937 181.897 268.65 181.566 268.275 181.333C267.906 181.101 267.462 180.985 266.943 180.985C266.445 180.985 265.997 181.101 265.601 181.333C265.205 181.566 264.894 181.897 264.669 182.327C264.444 182.75 264.331 183.249 264.331 183.823C264.331 184.389 264.444 184.888 264.669 185.318C264.894 185.742 265.205 186.069 265.601 186.302C265.997 186.534 266.445 186.65 266.943 186.65C267.462 186.65 267.906 186.537 268.275 186.312C268.65 186.08 268.937 185.748 269.135 185.318H270.252C269.986 186.001 269.562 186.53 268.982 186.906C268.401 187.275 267.722 187.459 266.943 187.459C266.281 187.459 265.676 187.306 265.13 186.998C264.59 186.684 264.164 186.25 263.849 185.697C263.535 185.144 263.378 184.519 263.378 183.823ZM274.022 184.581C274.022 184 274.138 183.495 274.371 183.065C274.603 182.627 274.924 182.289 275.334 182.05C275.75 181.811 276.225 181.692 276.757 181.692C277.447 181.692 278.014 181.859 278.458 182.194C278.909 182.528 279.206 182.993 279.349 183.587H278.345C278.25 183.246 278.062 182.976 277.782 182.778C277.509 182.58 277.167 182.481 276.757 182.481C276.225 182.481 275.794 182.665 275.467 183.034C275.139 183.396 274.975 183.911 274.975 184.581C274.975 185.257 275.139 185.779 275.467 186.148C275.794 186.517 276.225 186.701 276.757 186.701C277.167 186.701 277.509 186.606 277.782 186.414C278.055 186.223 278.243 185.95 278.345 185.595H279.349C279.199 186.168 278.898 186.629 278.448 186.978C277.997 187.319 277.434 187.49 276.757 187.49C276.225 187.49 275.75 187.37 275.334 187.131C274.924 186.892 274.603 186.554 274.371 186.117C274.138 185.68 274.022 185.168 274.022 184.581ZM283.041 187.49C282.515 187.49 282.037 187.37 281.607 187.131C281.184 186.892 280.849 186.554 280.603 186.117C280.364 185.673 280.245 185.161 280.245 184.581C280.245 184.007 280.368 183.502 280.613 183.065C280.866 182.621 281.208 182.283 281.638 182.05C282.068 181.811 282.55 181.692 283.082 181.692C283.615 181.692 284.096 181.811 284.527 182.05C284.957 182.283 285.295 182.617 285.541 183.054C285.793 183.491 285.92 184 285.92 184.581C285.92 185.161 285.79 185.673 285.531 186.117C285.278 186.554 284.933 186.892 284.496 187.131C284.059 187.37 283.574 187.49 283.041 187.49ZM283.041 186.67C283.376 186.67 283.69 186.592 283.984 186.435C284.277 186.278 284.513 186.042 284.691 185.728C284.875 185.414 284.967 185.031 284.967 184.581C284.967 184.13 284.878 183.747 284.701 183.433C284.523 183.119 284.291 182.887 284.004 182.737C283.717 182.58 283.407 182.501 283.072 182.501C282.731 182.501 282.416 182.58 282.13 182.737C281.85 182.887 281.624 183.119 281.453 183.433C281.283 183.747 281.197 184.13 281.197 184.581C281.197 185.038 281.279 185.424 281.443 185.738C281.614 186.052 281.839 186.288 282.119 186.445C282.399 186.595 282.707 186.67 283.041 186.67ZM289.881 181.682C290.564 181.682 291.117 181.89 291.54 182.306C291.964 182.716 292.175 183.31 292.175 184.089V187.398H291.253V184.222C291.253 183.662 291.113 183.235 290.833 182.942C290.553 182.641 290.171 182.491 289.686 182.491C289.194 182.491 288.802 182.645 288.508 182.952C288.221 183.259 288.078 183.706 288.078 184.294V187.398H287.145V181.784H288.078V182.583C288.262 182.296 288.511 182.074 288.825 181.917C289.146 181.76 289.498 181.682 289.881 181.682ZM295.788 186.537L297.529 181.784H298.523L296.32 187.398H295.235L293.032 181.784H294.036L295.788 186.537ZM304.562 184.376C304.562 184.553 304.552 184.741 304.531 184.939H300.045C300.079 185.492 300.266 185.926 300.608 186.24C300.956 186.547 301.376 186.701 301.868 186.701C302.271 186.701 302.606 186.609 302.872 186.425C303.145 186.233 303.336 185.981 303.446 185.666H304.449C304.299 186.206 303.999 186.646 303.548 186.988C303.097 187.323 302.537 187.49 301.868 187.49C301.335 187.49 300.857 187.37 300.434 187.131C300.017 186.892 299.689 186.554 299.45 186.117C299.211 185.673 299.092 185.161 299.092 184.581C299.092 184 299.208 183.491 299.44 183.054C299.672 182.617 299.997 182.283 300.413 182.05C300.837 181.811 301.322 181.692 301.868 181.692C302.401 181.692 302.872 181.808 303.282 182.04C303.691 182.272 304.006 182.593 304.224 183.003C304.449 183.406 304.562 183.864 304.562 184.376ZM303.599 184.181C303.599 183.826 303.521 183.522 303.364 183.269C303.206 183.01 302.991 182.815 302.718 182.686C302.452 182.549 302.155 182.481 301.827 182.481C301.356 182.481 300.953 182.631 300.618 182.931C300.29 183.232 300.103 183.648 300.055 184.181H303.599ZM306.725 182.696C306.889 182.375 307.121 182.126 307.421 181.948C307.729 181.77 308.101 181.682 308.538 181.682V182.645H308.292C307.247 182.645 306.725 183.211 306.725 184.345V187.398H305.793V181.784H306.725V182.696ZM311.601 187.49C311.171 187.49 310.785 187.418 310.444 187.275C310.102 187.125 309.833 186.92 309.635 186.66C309.436 186.394 309.327 186.09 309.307 185.748H310.27C310.297 186.028 310.427 186.257 310.659 186.435C310.898 186.612 311.209 186.701 311.591 186.701C311.946 186.701 312.226 186.623 312.431 186.466C312.636 186.308 312.738 186.11 312.738 185.871C312.738 185.626 312.629 185.445 312.411 185.328C312.192 185.206 311.854 185.086 311.396 184.97C310.98 184.861 310.638 184.751 310.372 184.642C310.113 184.526 309.887 184.359 309.696 184.14C309.512 183.915 309.419 183.621 309.419 183.259C309.419 182.972 309.505 182.709 309.675 182.47C309.846 182.231 310.089 182.044 310.403 181.907C310.717 181.764 311.075 181.692 311.478 181.692C312.1 181.692 312.602 181.849 312.984 182.163C313.367 182.477 313.572 182.907 313.599 183.454H312.667C312.646 183.16 312.527 182.925 312.308 182.747C312.096 182.569 311.81 182.481 311.448 182.481C311.113 182.481 310.847 182.552 310.649 182.696C310.451 182.839 310.352 183.027 310.352 183.259C310.352 183.444 310.41 183.597 310.526 183.72C310.649 183.836 310.799 183.932 310.976 184.007C311.161 184.075 311.414 184.154 311.735 184.243C312.137 184.352 312.465 184.461 312.718 184.57C312.971 184.673 313.186 184.83 313.363 185.042C313.548 185.253 313.643 185.53 313.65 185.871C313.65 186.179 313.565 186.455 313.394 186.701C313.223 186.947 312.981 187.142 312.667 187.285C312.359 187.422 312.004 187.49 311.601 187.49ZM315.448 180.872C315.27 180.872 315.12 180.811 314.997 180.688C314.874 180.565 314.812 180.415 314.812 180.237C314.812 180.06 314.874 179.909 314.997 179.786C315.12 179.664 315.27 179.602 315.448 179.602C315.618 179.602 315.762 179.664 315.878 179.786C316.001 179.909 316.062 180.06 316.062 180.237C316.062 180.415 316.001 180.565 315.878 180.688C315.762 180.811 315.618 180.872 315.448 180.872ZM315.898 181.784V187.398H314.966V181.784H315.898ZM319.935 187.49C319.409 187.49 318.931 187.37 318.501 187.131C318.078 186.892 317.743 186.554 317.497 186.117C317.258 185.673 317.139 185.161 317.139 184.581C317.139 184.007 317.262 183.502 317.508 183.065C317.76 182.621 318.102 182.283 318.532 182.05C318.962 181.811 319.444 181.692 319.976 181.692C320.509 181.692 320.99 181.811 321.421 182.05C321.851 182.283 322.189 182.617 322.435 183.054C322.688 183.491 322.814 184 322.814 184.581C322.814 185.161 322.684 185.673 322.425 186.117C322.172 186.554 321.827 186.892 321.39 187.131C320.953 187.37 320.468 187.49 319.935 187.49ZM319.935 186.67C320.27 186.67 320.584 186.592 320.878 186.435C321.171 186.278 321.407 186.042 321.585 185.728C321.769 185.414 321.861 185.031 321.861 184.581C321.861 184.13 321.772 183.747 321.595 183.433C321.417 183.119 321.185 182.887 320.898 182.737C320.611 182.58 320.301 182.501 319.966 182.501C319.625 182.501 319.31 182.58 319.024 182.737C318.744 182.887 318.518 183.119 318.348 183.433C318.177 183.747 318.091 184.13 318.091 184.581C318.091 185.038 318.173 185.424 318.337 185.738C318.508 186.052 318.733 186.288 319.013 186.445C319.293 186.595 319.601 186.67 319.935 186.67ZM326.775 181.682C327.458 181.682 328.011 181.89 328.434 182.306C328.858 182.716 329.069 183.31 329.069 184.089V187.398H328.147V184.222C328.147 183.662 328.007 183.235 327.727 182.942C327.447 182.641 327.065 182.491 326.58 182.491C326.088 182.491 325.696 182.645 325.402 182.952C325.115 183.259 324.972 183.706 324.972 184.294V187.398H324.04V181.784H324.972V182.583C325.156 182.296 325.405 182.074 325.72 181.917C326.04 181.76 326.392 181.682 326.775 181.682Z" fill="white"/>
</g>
<defs>
<linearGradient id="paint0_linear_22_4804" x1="10.4948" y1="108.987" x2="302.916" y2="108.987" gradientUnits="userSpaceOnUse">
<stop stop-color="#DCFFFE"/>
<stop offset="0.450427" stop-color="#B4FCF6"/>
<stop offset="1" stop-color="#C1FAF3"/>
</linearGradient>
<linearGradient id="paint1_linear_22_4804" x1="-1.21818" y1="107.499" x2="350.198" y2="107.499" gradientUnits="userSpaceOnUse">
<stop stop-color="#F03986"/>
<stop offset="0.480583" stop-color="#A95CCC"/>
<stop offset="1" stop-color="#5CE6FE"/>
</linearGradient>
<linearGradient id="paint2_linear_22_4804" x1="-10.7884" y1="174.755" x2="351.217" y2="174.755" gradientUnits="userSpaceOnUse">
<stop stop-color="#143054"/>
<stop offset="1" stop-color="#143054"/>
</linearGradient>
<linearGradient id="paint3_linear_22_4804" x1="175" y1="206.254" x2="175" y2="141.071" gradientUnits="userSpaceOnUse">
<stop stop-color="#25293C"/>
<stop offset="0.464517" stop-color="#25293C" stop-opacity="0.66"/>
<stop offset="0.714517" stop-color="#25293C" stop-opacity="0.49"/>
<stop offset="1" stop-color="#25293C" stop-opacity="0.44"/>
</linearGradient>
<clipPath id="clip0_22_4804">
<rect width="350" height="209" fill="white"/>
</clipPath>
</defs>
</svg>
